<svg xmlns="http://www.w3.org/2000/svg" viewBox="0 0 1626.37 1290.04"><defs><style>.cls-1{fill:#1c1e4b;}.cls-2{fill:#c1dfea;stroke:#474643;stroke-miterlimit:10;}.cls-3{fill:#474643;}.cls-4{fill:#efefef;}.cls-5{fill:#1f1f1f;}</style></defs><title>Untitled-4</title><g id="bluekælder"><polygon class="cls-1" points="612.87 1163.75 0.87 1163.75 100.87 991.75 154.37 891.25 528.37 891.25 466.37 992.25 702.87 991.75 612.87 1163.75"/><polygon class="cls-2" points="438.06 920.01 438.09 920.2 437.98 920.22 432.28 940.74 437.22 940.74 442.98 920.01 438.06 920.01"/><polygon class="cls-2" points="443.73 926.32 443.73 925.87 443.88 925.87 443.9 925.79 443.17 921.01 437.69 940.74 439.75 940.74 443.76 926.32 443.73 926.32"/><polygon class="cls-2" points="444.22 926.32 440.22 940.74 444.83 940.74 448.84 926.32 444.22 926.32"/><polygon class="cls-2" points="449.03 927.32 445.3 940.74 447.36 940.74 449.76 932.1 449.03 927.32"/><polygon class="cls-2" points="430.32 909.3 421.64 940.57 421.2 940.45 430.14 908.29 425.2 908.29 412.92 940.68 412.92 940.68 424.8 908.05 424.05 903.2 406.03 940.68 423.65 940.74 431.06 914.07 430.32 909.3"/><polygon class="cls-2" points="436.86 915.15 429.75 940.74 431.81 940.74 437.59 919.93 436.86 915.15"/><polygon class="cls-2" points="492.71 903.37 424.35 902.21 425.22 907.84 430.43 907.84 430.43 908.07 430.65 908.13 430.55 908.5 430.66 908.48 431.5 913.97 431.55 913.99 431.52 914.1 431.56 914.34 431.45 914.36 424.12 940.74 429.29 940.74 436.67 914.15 431.56 914.15 431.56 913.7 436.97 913.7 436.97 913.92 437.18 913.99 437.08 914.36 437.19 914.34 437.99 919.56 443.28 919.56 443.28 919.78 443.49 919.84 443.39 920.22 443.5 920.2 444.34 925.69 444.39 925.7 444.36 925.82 444.37 925.87 449.13 925.87 449.13 926.09 449.35 926.15 449.25 926.52 449.36 926.51 450.16 931.73 455.44 931.73 455.44 931.95 455.66 932.01 455.56 932.38 455.67 932.37 456.47 937.58 461.75 937.58 461.75 937.81 461.97 937.87 461.87 938.24 461.98 938.23 462.36 940.74 473.76 941.25 492.71 903.37"/><polygon class="cls-2" points="450.23 932.18 450.26 932.37 450.15 932.38 447.83 940.74 452.77 940.74 455.15 932.18 450.23 932.18"/><polygon class="cls-2" points="461.17 940.74 461.9 940.74 461.64 939.04 461.17 940.74"/><polygon class="cls-2" points="456.54 938.03 456.57 938.23 456.46 938.24 455.76 940.74 460.7 940.74 461.46 938.03 456.54 938.03"/><polygon class="cls-2" points="455.33 933.18 453.24 940.74 455.3 940.74 456.07 937.96 455.33 933.18"/><polygon class="cls-3" points="424.35 902.21 424.35 902.17 423.9 902.24 424.05 903.2 424.35 902.21 424.35 902.21"/><polygon class="cls-3" points="431.56 914.34 431.52 914.1 431.55 913.99 431.5 913.97 430.66 908.48 430.55 908.5 430.65 908.13 430.43 908.07 430.43 907.84 425.22 907.84 424.35 902.21 424.35 902.21 424.05 903.2 424.8 908.05 412.63 940.39 412.63 940.39 425.2 908.29 430.14 908.29 421.2 940.45 421.64 940.57 430.32 909.3 431.06 914.07 423.65 940.74 424.12 940.74 431.45 914.36 431.56 914.34"/><polygon class="cls-3" points="461.87 938.24 461.97 937.87 461.75 937.81 461.75 937.58 456.47 937.58 455.67 932.37 455.56 932.38 455.66 932.01 455.44 931.95 455.44 931.73 450.16 931.73 449.36 926.51 449.25 926.52 449.35 926.15 449.13 926.09 449.13 925.87 444.37 925.87 444.36 925.82 444.39 925.7 444.34 925.69 443.5 920.2 443.39 920.22 443.49 919.84 443.28 919.78 443.28 919.56 437.99 919.56 437.19 914.34 437.08 914.36 437.18 913.99 436.97 913.92 436.97 913.7 431.56 913.7 431.56 914.15 436.67 914.15 429.29 940.74 429.75 940.74 436.86 915.15 437.59 919.93 431.81 940.74 432.28 940.74 437.98 920.22 438.09 920.2 438.06 920.01 442.98 920.01 437.22 940.74 437.69 940.74 443.17 921.01 443.9 925.79 443.88 925.87 443.73 925.87 443.73 926.32 443.76 926.32 439.75 940.74 440.22 940.74 444.22 926.32 448.84 926.32 444.83 940.74 445.3 940.74 449.03 927.32 449.76 932.1 447.36 940.74 447.83 940.74 450.15 932.38 450.26 932.37 450.23 932.18 455.15 932.18 452.77 940.74 453.24 940.74 455.33 933.18 456.07 937.96 455.3 940.74 455.76 940.74 456.46 938.24 456.57 938.23 456.54 938.03 461.46 938.03 460.7 940.74 461.17 940.74 461.64 939.04 461.9 940.74 462.36 940.74 461.98 938.23 461.87 938.24"/><path class="cls-4" d="M248.58,1159.59h3.13v11.7h.11c.64-.93,1.29-1.8,1.9-2.59l7.42-9.11H265l-8.79,10.3,9.47,14H262l-8-11.91-2.3,2.66v9.25h-3.13Z" transform="translate(-136.63 -75.75)"/><path class="cls-4" d="M265.67,1183.85l11.09-24.26H292v2.63H281.62l.94,7.74h9v2.59H283l1.08,8.68h8.89v2.62H281.33l-1.08-8.56H272.8l-3.89,8.56Zm14.22-11.08-.79-7c-.14-1.16-.36-2.71-.43-3.93h-.14c-.44,1.15-1,2.52-1.55,3.82l-3.13,7.09Z" transform="translate(-136.63 -75.75)"/><path class="cls-4" d="M296.81,1159.59H300v21.64h10.36v2.62h-13.5Z" transform="translate(-136.63 -75.75)"/><path class="cls-4" d="M313.81,1159.92a44.35,44.35,0,0,1,6.65-.51c4.5,0,7.71,1,9.83,3s3.42,4.78,3.42,8.71-1.22,7.2-3.49,9.43-6,3.49-10.73,3.49a50.32,50.32,0,0,1-5.68-.29Zm3.13,21.45a20.22,20.22,0,0,0,3.17.18c6.69,0,10.33-3.74,10.33-10.29,0-5.73-3.21-9.36-9.83-9.36a17.84,17.84,0,0,0-3.67.32Z" transform="translate(-136.63 -75.75)"/><path class="cls-4" d="M350.34,1172.48h-9.43v8.75h10.51v2.62H337.78v-24.26h13.1v2.63h-10v7.67h9.43Z" transform="translate(-136.63 -75.75)"/><path class="cls-4" d="M355.49,1159.92a32.09,32.09,0,0,1,6-.51c3.35,0,5.51.62,7,2a6,6,0,0,1,1.91,4.61,6.36,6.36,0,0,1-4.57,6.19v.11c1.87.65,3,2.38,3.56,4.9a38.3,38.3,0,0,0,1.88,6.65h-3.24a30.65,30.65,0,0,1-1.62-5.79c-.72-3.35-2-4.61-4.86-4.72h-2.95v10.51h-3.14Zm3.14,11h3.2c3.35,0,5.47-1.84,5.47-4.61,0-3.13-2.27-4.5-5.58-4.53a13.16,13.16,0,0,0-3.09.28Z" transform="translate(-136.63 -75.75)"/></g><g id="bluestuen"><polygon class="cls-2" points="375.87 958.08 0.87 958.08 100.87 786.08 465.87 786.08 375.87 958.08"/><path class="cls-5" d="M248.14,974a11.17,11.17,0,0,0,5.62,1.58c3.2,0,5.07-1.69,5.07-4.14,0-2.26-1.29-3.56-4.57-4.82-4-1.4-6.4-3.46-6.4-6.87,0-3.79,3.13-6.59,7.84-6.59a10.94,10.94,0,0,1,5.37,1.19l-.87,2.55a9.68,9.68,0,0,0-4.61-1.15c-3.31,0-4.57,2-4.57,3.63,0,2.27,1.48,3.39,4.83,4.68,4.1,1.59,6.19,3.57,6.19,7.13,0,3.74-2.77,7-8.5,7a12.59,12.59,0,0,1-6.19-1.54Z" transform="translate(-136.63 -75.75)"/><path class="cls-5" d="M270.93,956.26h-7.38v-2.67h18v2.67H274.1v21.59h-3.17Z" transform="translate(-136.63 -75.75)"/><path class="cls-5" d="M287.35,953.59V968c0,5.43,2.41,7.73,5.65,7.73,3.6,0,5.9-2.37,5.9-7.73V953.59h3.17v14.15c0,7.45-3.92,10.51-9.18,10.51-5,0-8.71-2.84-8.71-10.37V953.59Z" transform="translate(-136.63 -75.75)"/><path class="cls-5" d="M320.07,966.48h-9.43v8.75h10.51v2.62H307.51V953.59h13.1v2.63h-10v7.67h9.43Z" transform="translate(-136.63 -75.75)"/><path class="cls-5" d="M325.22,977.85V953.59h3.42l7.77,12.28a68.42,68.42,0,0,1,4.36,7.88l.07,0c-.29-3.23-.36-6.19-.36-10V953.59h2.95v24.26h-3.17l-7.7-12.31a77.26,77.26,0,0,1-4.53-8.09l-.11,0c.18,3.06.25,6,.25,10v10.36Z" transform="translate(-136.63 -75.75)"/></g><g id="blue2sal"><polygon class="cls-1" points="612.87 812.75 0.87 812.75 100.87 640.75 154.37 540.25 519.37 540.25 466.37 641.25 707.37 641.25 612.87 812.75"/><polygon class="cls-2" points="438.06 569.01 438.09 569.2 437.98 569.22 432.28 589.74 437.22 589.74 442.98 569.01 438.06 569.01"/><polygon class="cls-2" points="443.73 575.32 443.73 574.87 443.88 574.87 443.9 574.79 443.17 570.01 437.69 589.74 439.75 589.74 443.76 575.32 443.73 575.32"/><polygon class="cls-2" points="444.22 575.32 440.22 589.74 444.83 589.74 448.84 575.32 444.22 575.32"/><polygon class="cls-2" points="449.03 576.32 445.3 589.74 447.36 589.74 449.76 581.1 449.03 576.32"/><polygon class="cls-2" points="430.32 558.3 421.64 589.57 421.2 589.45 430.14 557.29 425.2 557.29 412.92 589.68 412.92 589.68 424.8 557.05 424.05 552.2 406.03 589.68 423.65 589.74 431.06 563.07 430.32 558.3"/><polygon class="cls-2" points="436.86 564.15 429.75 589.74 431.81 589.74 437.59 568.93 436.86 564.15"/><polygon class="cls-2" points="492.71 552.37 424.35 551.21 425.22 556.84 430.43 556.84 430.43 557.07 430.65 557.13 430.55 557.5 430.66 557.48 431.5 562.97 431.55 562.99 431.52 563.1 431.56 563.34 431.45 563.36 424.12 589.74 429.29 589.74 436.67 563.15 431.56 563.15 431.56 562.7 436.97 562.7 436.97 562.92 437.18 562.99 437.08 563.36 437.19 563.34 437.99 568.56 443.28 568.56 443.28 568.78 443.49 568.84 443.39 569.22 443.5 569.2 444.34 574.69 444.39 574.7 444.36 574.82 444.37 574.87 449.13 574.87 449.13 575.09 449.35 575.15 449.25 575.52 449.36 575.51 450.16 580.73 455.44 580.73 455.44 580.95 455.66 581.01 455.56 581.38 455.67 581.37 456.47 586.58 461.75 586.58 461.75 586.81 461.97 586.87 461.87 587.24 461.98 587.23 462.36 589.74 473.76 590.25 492.71 552.37"/><polygon class="cls-2" points="450.23 581.18 450.26 581.37 450.15 581.38 447.83 589.74 452.77 589.74 455.15 581.18 450.23 581.18"/><polygon class="cls-2" points="461.17 589.74 461.9 589.74 461.64 588.04 461.17 589.74"/><polygon class="cls-2" points="456.54 587.03 456.57 587.23 456.46 587.24 455.76 589.74 460.7 589.74 461.46 587.03 456.54 587.03"/><polygon class="cls-2" points="455.33 582.18 453.24 589.74 455.3 589.74 456.07 586.96 455.33 582.18"/><polygon class="cls-3" points="424.35 551.21 424.35 551.17 423.9 551.24 424.05 552.2 424.35 551.21 424.35 551.21"/><polygon class="cls-3" points="431.56 563.34 431.52 563.1 431.55 562.99 431.5 562.97 430.66 557.48 430.55 557.5 430.65 557.13 430.43 557.07 430.43 556.84 425.22 556.84 424.35 551.21 424.35 551.21 424.05 552.2 424.8 557.05 412.63 589.39 412.63 589.39 425.2 557.29 430.14 557.29 421.2 589.45 421.64 589.57 430.32 558.3 431.06 563.07 423.65 589.74 424.12 589.74 431.45 563.36 431.56 563.34"/><polygon class="cls-3" points="461.87 587.24 461.97 586.87 461.75 586.81 461.75 586.58 456.47 586.58 455.67 581.37 455.56 581.38 455.66 581.01 455.44 580.95 455.44 580.73 450.16 580.73 449.36 575.51 449.25 575.52 449.35 575.15 449.13 575.09 449.13 574.87 444.37 574.87 444.36 574.82 444.39 574.7 444.34 574.69 443.5 569.2 443.39 569.22 443.49 568.84 443.28 568.78 443.28 568.56 437.99 568.56 437.19 563.34 437.08 563.36 437.18 562.99 436.97 562.92 436.97 562.7 431.56 562.7 431.56 563.15 436.67 563.15 429.29 589.74 429.75 589.74 436.86 564.15 437.59 568.93 431.81 589.74 432.28 589.74 437.98 569.22 438.09 569.2 438.06 569.01 442.98 569.01 437.22 589.74 437.69 589.74 443.17 570.01 443.9 574.79 443.88 574.87 443.73 574.87 443.73 575.32 443.76 575.32 439.75 589.74 440.22 589.74 444.22 575.32 448.84 575.32 444.83 589.74 445.3 589.74 449.03 576.32 449.76 581.1 447.36 589.74 447.83 589.74 450.15 581.38 450.26 581.37 450.23 581.18 455.15 581.18 452.77 589.74 453.24 589.74 455.33 582.18 456.07 586.96 455.3 589.74 455.76 589.74 456.46 587.24 456.57 587.23 456.54 587.03 461.46 587.03 460.7 589.74 461.17 589.74 461.64 588.04 461.9 589.74 462.36 589.74 461.98 587.23 461.87 587.24"/><path class="cls-4" d="M254.33,811.41h-.07l-4.06,2.19-.62-2.41,5.11-2.73h2.7v23.39h-3.06Z" transform="translate(-136.63 -75.75)"/><path class="cls-4" d="M266.18,830a2.13,2.13,0,0,1,2.16-2.27,2.27,2.27,0,1,1-2.16,2.27Z" transform="translate(-136.63 -75.75)"/><path class="cls-4" d="M281.69,828a11.17,11.17,0,0,0,5.62,1.58c3.2,0,5.07-1.69,5.07-4.14,0-2.26-1.29-3.56-4.57-4.82-4-1.4-6.4-3.46-6.4-6.87,0-3.79,3.13-6.59,7.84-6.59a10.94,10.94,0,0,1,5.37,1.19l-.87,2.55a9.67,9.67,0,0,0-4.6-1.15c-3.32,0-4.58,2-4.58,3.63,0,2.27,1.48,3.39,4.83,4.68,4.1,1.59,6.19,3.57,6.19,7.13,0,3.74-2.77,7-8.5,7a12.59,12.59,0,0,1-6.19-1.54Z" transform="translate(-136.63 -75.75)"/><path class="cls-4" d="M303.8,824.22l-2.52,7.63H298l8.24-24.26h3.78l8.28,24.26H315l-2.59-7.63Zm7.95-2.44-2.37-7c-.54-1.58-.9-3-1.26-4.42H308c-.35,1.43-.75,2.91-1.22,4.39l-2.37,7Z" transform="translate(-136.63 -75.75)"/><path class="cls-4" d="M321.91,807.59H325v21.64H335.4v2.62H321.91Z" transform="translate(-136.63 -75.75)"/><polygon class="cls-2" points="375.87 596.75 0.87 596.75 100.87 424.75 465.87 424.75 375.87 596.75"/><path class="cls-5" d="M247.46,625.85v-1.94l2.48-2.41c6-5.69,8.68-8.71,8.71-12.24,0-2.38-1.15-4.57-4.64-4.57a8,8,0,0,0-5,2l-1-2.23a10.25,10.25,0,0,1,6.62-2.38c5,0,7.16,3.46,7.16,6.8,0,4.32-3.13,7.82-8.06,12.57l-1.87,1.73v.07H262.4v2.62Z" transform="translate(-136.63 -75.75)"/><path class="cls-5" d="M266.18,624a2.13,2.13,0,0,1,2.16-2.27,2.27,2.27,0,1,1-2.16,2.27Z" transform="translate(-136.63 -75.75)"/><path class="cls-5" d="M274.06,622a11.17,11.17,0,0,0,5.62,1.58c3.2,0,5.07-1.69,5.07-4.14,0-2.26-1.29-3.56-4.57-4.82-4-1.4-6.41-3.46-6.41-6.87,0-3.79,3.14-6.59,7.85-6.59a10.94,10.94,0,0,1,5.37,1.19l-.87,2.55a9.68,9.68,0,0,0-4.61-1.15c-3.31,0-4.57,2-4.57,3.63,0,2.27,1.48,3.39,4.83,4.68,4.1,1.59,6.19,3.57,6.19,7.13,0,3.74-2.77,7-8.5,7a12.59,12.59,0,0,1-6.19-1.54Z" transform="translate(-136.63 -75.75)"/><path class="cls-5" d="M296.17,618.22l-2.52,7.63h-3.24l8.24-24.26h3.78l8.28,24.26h-3.35l-2.59-7.63Zm7.95-2.44-2.37-7c-.54-1.58-.9-3-1.26-4.42h-.08c-.36,1.43-.75,2.91-1.22,4.39l-2.38,7Z" transform="translate(-136.63 -75.75)"/><path class="cls-5" d="M314.27,601.59h3.14v21.64h10.36v2.62h-13.5Z" transform="translate(-136.63 -75.75)"/></g><g id="indgang"><path d="M744.48,1319.87v35.05H740v-35.05Z" transform="translate(-136.63 -75.75)"/><path d="M752.74,1336.56c0-2.6,0-4.73-.2-6.81h4.05l.26,4.16H757a9.25,9.25,0,0,1,8.32-4.73c3.48,0,8.89,2.08,8.89,10.71v15h-4.58v-14.51c0-4.05-1.51-7.44-5.82-7.44a6.71,6.71,0,0,0-6.45,6.82v15.13h-4.58Z" transform="translate(-136.63 -75.75)"/><path d="M803.34,1318v30.42c0,2.24,0,4.78.21,6.5h-4.11l-.21-4.37h-.1a9.31,9.31,0,0,1-8.58,4.94c-6.09,0-10.77-5.15-10.77-12.79,0-8.37,5.15-13.52,11.29-13.52,3.85,0,6.45,1.82,7.59,3.85h.1v-15Zm-4.58,22a8.38,8.38,0,0,0-.2-1.93,6.74,6.74,0,0,0-6.61-5.3c-4.73,0-7.54,4.16-7.54,9.72,0,5.1,2.5,9.31,7.44,9.31a6.89,6.89,0,0,0,6.71-5.46,8.26,8.26,0,0,0,.2-2Z" transform="translate(-136.63 -75.75)"/><path d="M832.62,1329.75c-.11,1.82-.21,3.85-.21,6.92v14.61c0,5.77-1.15,9.31-3.59,11.49s-6,3-9.15,3a16.29,16.29,0,0,1-8.38-2.08l1.15-3.49a14.16,14.16,0,0,0,7.38,2c4.68,0,8.12-2.44,8.12-8.79v-2.81h-.11a9,9,0,0,1-8,4.22c-6.24,0-10.71-5.31-10.71-12.28,0-8.52,5.56-13.36,11.34-13.36a8.38,8.38,0,0,1,7.85,4.37h.1l.21-3.8Zm-4.74,9.93a6.48,6.48,0,0,0-.26-2.08,6.59,6.59,0,0,0-6.39-4.83c-4.37,0-7.49,3.69-7.49,9.51,0,4.94,2.49,9,7.43,9a6.7,6.7,0,0,0,6.35-4.68,7.93,7.93,0,0,0,.36-2.44Z" transform="translate(-136.63 -75.75)"/><path d="M853.93,1354.92l-.36-3.17h-.16a9.37,9.37,0,0,1-7.69,3.74c-5.1,0-7.7-3.59-7.7-7.23,0-6.08,5.41-9.41,15.13-9.36v-.52c0-2.08-.57-5.82-5.72-5.82a12.57,12.57,0,0,0-6.55,1.87l-1-3a15.56,15.56,0,0,1,8.27-2.24c7.7,0,9.57,5.25,9.57,10.3v9.41a35.72,35.72,0,0,0,.41,6Zm-.67-12.84c-5-.11-10.66.78-10.66,5.66a4,4,0,0,0,4.31,4.37,6.27,6.27,0,0,0,6.09-4.21,5,5,0,0,0,.26-1.46Z" transform="translate(-136.63 -75.75)"/><path d="M865.06,1336.56c0-2.6,0-4.73-.21-6.81h4.06l.26,4.16h.1a9.26,9.26,0,0,1,8.32-4.73c3.49,0,8.9,2.08,8.9,10.71v15h-4.58v-14.51c0-4.05-1.51-7.44-5.82-7.44a6.71,6.71,0,0,0-6.45,6.82v15.13h-4.58Z" transform="translate(-136.63 -75.75)"/><path d="M915.61,1329.75c-.11,1.82-.21,3.85-.21,6.92v14.61c0,5.77-1.15,9.31-3.59,11.49s-6,3-9.15,3a16.23,16.23,0,0,1-8.37-2.08l1.14-3.49a14.16,14.16,0,0,0,7.38,2c4.68,0,8.12-2.44,8.12-8.79v-2.81h-.11a9,9,0,0,1-8,4.22c-6.24,0-10.71-5.31-10.71-12.28,0-8.52,5.57-13.36,11.34-13.36,4.37,0,6.76,2.29,7.85,4.37h.1l.21-3.8Zm-4.74,9.93a6.48,6.48,0,0,0-.26-2.08,6.58,6.58,0,0,0-6.39-4.83c-4.37,0-7.49,3.69-7.49,9.51,0,4.94,2.5,9,7.44,9a6.7,6.7,0,0,0,6.34-4.68,7.93,7.93,0,0,0,.36-2.44Z" transform="translate(-136.63 -75.75)"/><polygon points="795.71 1193.42 766.73 1204.89 791 1206.29 807.84 1219.67 795.71 1193.42"/><polygon points="808.71 1156.42 779.73 1167.89 804 1169.29 820.84 1182.67 808.71 1156.42"/><polygon points="821.71 1119.42 792.73 1130.89 817 1132.29 833.84 1145.67 821.71 1119.42"/></g><g id="sort4sal"><polygon class="cls-5" points="1559.99 130 807.37 130 891.95 0 1626.37 0 1559.99 130"/><polygon class="cls-2" points="1509.06 34.01 1509.09 34.2 1508.98 34.22 1503.28 54.74 1508.22 54.74 1513.98 34.01 1509.06 34.01"/><polygon class="cls-2" points="1514.73 40.32 1514.73 39.87 1514.88 39.87 1514.9 39.79 1514.17 35.01 1508.69 54.74 1510.75 54.74 1514.76 40.32 1514.73 40.32"/><polygon class="cls-2" points="1515.22 40.32 1511.22 54.74 1515.83 54.74 1519.84 40.32 1515.22 40.32"/><polygon class="cls-2" points="1520.03 41.32 1516.3 54.74 1518.36 54.74 1520.76 46.1 1520.03 41.32"/><polygon class="cls-2" points="1501.33 23.3 1492.64 54.57 1492.2 54.45 1501.14 22.29 1496.2 22.29 1483.92 54.68 1483.92 54.68 1495.8 22.05 1495.05 17.2 1477.03 54.68 1494.65 54.74 1502.06 28.07 1501.33 23.3"/><polygon class="cls-2" points="1507.86 29.16 1500.75 54.74 1502.81 54.74 1508.59 33.93 1507.86 29.16"/><polygon class="cls-2" points="1563.71 17.37 1495.35 16.21 1496.22 21.84 1501.43 21.84 1501.43 22.07 1501.65 22.13 1501.55 22.5 1501.66 22.48 1502.5 27.97 1502.55 27.98 1502.52 28.1 1502.56 28.34 1502.45 28.36 1495.12 54.74 1500.29 54.74 1507.67 28.15 1502.56 28.15 1502.56 27.7 1507.97 27.7 1507.97 27.93 1508.18 27.98 1508.08 28.36 1508.19 28.34 1508.99 33.56 1514.28 33.56 1514.28 33.78 1514.49 33.84 1514.39 34.22 1514.5 34.2 1515.34 39.69 1515.39 39.7 1515.36 39.82 1515.37 39.87 1520.13 39.87 1520.13 40.09 1520.35 40.15 1520.25 40.52 1520.36 40.51 1521.16 45.73 1526.44 45.73 1526.44 45.95 1526.66 46.01 1526.56 46.38 1526.67 46.37 1527.47 51.58 1532.75 51.58 1532.75 51.81 1532.97 51.87 1532.87 52.24 1532.97 52.23 1533.36 54.74 1544.76 55.25 1563.71 17.37"/><polygon class="cls-2" points="1521.23 46.18 1521.26 46.37 1521.15 46.38 1518.83 54.74 1523.77 54.74 1526.15 46.18 1521.23 46.18"/><polygon class="cls-2" points="1532.17 54.74 1532.9 54.74 1532.64 53.04 1532.17 54.74"/><polygon class="cls-2" points="1527.54 52.03 1527.57 52.23 1527.46 52.24 1526.77 54.74 1531.7 54.74 1532.46 52.03 1527.54 52.03"/><polygon class="cls-2" points="1526.34 47.18 1524.24 54.74 1526.3 54.74 1527.07 51.95 1526.34 47.18"/><polygon class="cls-3" points="1495.35 16.21 1495.35 16.17 1494.9 16.24 1495.05 17.2 1495.35 16.21 1495.35 16.21"/><polygon class="cls-3" points="1502.56 28.34 1502.52 28.1 1502.55 27.98 1502.5 27.97 1501.66 22.48 1501.55 22.5 1501.65 22.13 1501.43 22.07 1501.43 21.84 1496.22 21.84 1495.35 16.21 1495.35 16.21 1495.05 17.2 1495.8 22.05 1483.63 54.39 1483.63 54.39 1496.2 22.29 1501.14 22.29 1492.2 54.45 1492.64 54.57 1501.33 23.3 1502.06 28.07 1494.65 54.74 1495.12 54.74 1502.45 28.36 1502.56 28.34"/><polygon class="cls-3" points="1532.87 52.24 1532.97 51.87 1532.75 51.81 1532.75 51.58 1527.47 51.58 1526.67 46.37 1526.56 46.38 1526.66 46.01 1526.44 45.95 1526.44 45.73 1521.16 45.73 1520.36 40.51 1520.25 40.52 1520.35 40.15 1520.13 40.09 1520.13 39.87 1515.37 39.87 1515.36 39.82 1515.39 39.7 1515.34 39.69 1514.5 34.2 1514.39 34.22 1514.49 33.84 1514.28 33.78 1514.28 33.56 1508.99 33.56 1508.19 28.34 1508.08 28.36 1508.18 27.98 1507.97 27.93 1507.97 27.7 1502.56 27.7 1502.56 28.15 1507.67 28.15 1500.29 54.74 1500.75 54.74 1507.86 29.16 1508.59 33.93 1502.81 54.74 1503.28 54.74 1508.98 34.22 1509.09 34.2 1509.06 34.01 1513.98 34.01 1508.22 54.74 1508.69 54.74 1514.17 35.01 1514.9 39.79 1514.88 39.87 1514.73 39.87 1514.73 40.32 1514.76 40.32 1510.75 54.74 1511.22 54.74 1515.22 40.32 1519.84 40.32 1515.83 54.74 1516.3 54.74 1520.03 41.32 1520.76 46.1 1518.36 54.74 1518.83 54.74 1521.15 46.38 1521.26 46.37 1521.23 46.18 1526.15 46.18 1523.77 54.74 1524.24 54.74 1526.34 47.18 1527.07 51.95 1526.3 54.74 1526.77 54.74 1527.46 52.24 1527.57 52.23 1527.54 52.03 1532.46 52.03 1531.7 54.74 1532.17 54.74 1532.64 53.04 1532.9 54.74 1533.36 54.74 1532.97 52.23 1532.87 52.24"/><path class="cls-4" d="M1063.25,147.85v-6.37h-10.87V139.4l10.44-14.94h3.42V139h3.27v2.48h-3.27v6.37Zm0-8.85v-7.81c0-1.23,0-2.45.11-3.67h-.11c-.72,1.36-1.3,2.37-1.94,3.45l-5.73,8V139Z" transform="translate(-136.63 -75.75)"/><path class="cls-4" d="M1072.18,146a2.13,2.13,0,0,1,2.16-2.27,2.27,2.27,0,1,1-2.16,2.27Z" transform="translate(-136.63 -75.75)"/><path class="cls-4" d="M1087.69,144a11.17,11.17,0,0,0,5.62,1.58c3.2,0,5.07-1.69,5.07-4.14,0-2.26-1.29-3.56-4.57-4.82-4-1.4-6.4-3.46-6.4-6.87,0-3.79,3.13-6.59,7.84-6.59a10.94,10.94,0,0,1,5.37,1.19l-.87,2.55a9.67,9.67,0,0,0-4.6-1.15c-3.32,0-4.58,2-4.58,3.63,0,2.27,1.48,3.39,4.83,4.68,4.1,1.59,6.19,3.57,6.19,7.13,0,3.74-2.77,7-8.5,7a12.59,12.59,0,0,1-6.19-1.54Z" transform="translate(-136.63 -75.75)"/><path class="cls-4" d="M1109.8,140.22l-2.52,7.63H1104l8.24-24.26h3.78l8.28,24.26H1121l-2.59-7.63Zm8-2.44-2.37-7c-.54-1.58-.9-3-1.26-4.42H1114c-.35,1.43-.75,2.91-1.22,4.39l-2.37,7Z" transform="translate(-136.63 -75.75)"/><path class="cls-4" d="M1127.91,123.59H1131v21.64h10.36v2.62h-13.49Z" transform="translate(-136.63 -75.75)"/></g><g id="sort3sal"><polygon class="cls-5" points="1559.99 295 807.37 295 891.95 165 1626.37 165 1559.99 295"/><polygon class="cls-2" points="1509.06 199.01 1509.09 199.2 1508.98 199.22 1503.28 219.74 1508.22 219.74 1513.98 199.01 1509.06 199.01"/><polygon class="cls-2" points="1514.73 205.32 1514.73 204.87 1514.88 204.87 1514.9 204.79 1514.17 200.01 1508.69 219.74 1510.75 219.74 1514.76 205.32 1514.73 205.32"/><polygon class="cls-2" points="1515.22 205.32 1511.22 219.74 1515.83 219.74 1519.84 205.32 1515.22 205.32"/><polygon class="cls-2" points="1520.03 206.32 1516.3 219.74 1518.36 219.74 1520.76 211.1 1520.03 206.32"/><polygon class="cls-2" points="1501.33 188.3 1492.64 219.57 1492.2 219.45 1501.14 187.29 1496.2 187.29 1483.92 219.68 1483.92 219.68 1495.8 187.05 1495.05 182.2 1477.03 219.68 1494.65 219.74 1502.06 193.07 1501.33 188.3"/><polygon class="cls-2" points="1507.86 194.16 1500.75 219.74 1502.81 219.74 1508.59 198.93 1507.86 194.16"/><polygon class="cls-2" points="1563.71 182.37 1495.35 181.21 1496.22 186.84 1501.43 186.84 1501.43 187.07 1501.65 187.13 1501.55 187.5 1501.66 187.48 1502.5 192.97 1502.55 192.99 1502.52 193.1 1502.56 193.34 1502.45 193.36 1495.12 219.74 1500.29 219.74 1507.67 193.15 1502.56 193.15 1502.56 192.7 1507.97 192.7 1507.97 192.93 1508.18 192.99 1508.08 193.36 1508.19 193.34 1508.99 198.56 1514.28 198.56 1514.28 198.78 1514.49 198.84 1514.39 199.22 1514.5 199.2 1515.34 204.69 1515.39 204.7 1515.36 204.82 1515.37 204.87 1520.13 204.87 1520.13 205.09 1520.35 205.15 1520.25 205.53 1520.36 205.51 1521.16 210.72 1526.44 210.72 1526.44 210.95 1526.66 211.01 1526.56 211.38 1526.67 211.37 1527.47 216.58 1532.75 216.58 1532.75 216.81 1532.97 216.87 1532.87 217.24 1532.97 217.22 1533.36 219.74 1544.76 220.25 1563.71 182.37"/><polygon class="cls-2" points="1521.23 211.18 1521.26 211.37 1521.15 211.38 1518.83 219.74 1523.77 219.74 1526.15 211.18 1521.23 211.18"/><polygon class="cls-2" points="1532.17 219.74 1532.9 219.74 1532.64 218.04 1532.17 219.74"/><polygon class="cls-2" points="1527.54 217.03 1527.57 217.22 1527.46 217.24 1526.77 219.74 1531.7 219.74 1532.46 217.03 1527.54 217.03"/><polygon class="cls-2" points="1526.34 212.18 1524.24 219.74 1526.3 219.74 1527.07 216.96 1526.34 212.18"/><polygon class="cls-3" points="1495.35 181.21 1495.35 181.17 1494.9 181.24 1495.05 182.2 1495.35 181.21 1495.35 181.21"/><polygon class="cls-3" points="1502.56 193.34 1502.52 193.1 1502.55 192.99 1502.5 192.97 1501.66 187.48 1501.55 187.5 1501.65 187.13 1501.43 187.07 1501.43 186.84 1496.22 186.84 1495.35 181.21 1495.35 181.21 1495.05 182.2 1495.8 187.05 1483.63 219.39 1483.63 219.39 1496.2 187.29 1501.14 187.29 1492.2 219.45 1492.64 219.57 1501.33 188.3 1502.06 193.07 1494.65 219.74 1495.12 219.74 1502.45 193.36 1502.56 193.34"/><polygon class="cls-3" points="1532.87 217.24 1532.97 216.87 1532.75 216.81 1532.75 216.58 1527.47 216.58 1526.67 211.37 1526.56 211.38 1526.66 211.01 1526.44 210.95 1526.44 210.72 1521.16 210.72 1520.36 205.51 1520.25 205.53 1520.35 205.15 1520.13 205.09 1520.13 204.87 1515.37 204.87 1515.36 204.82 1515.39 204.7 1515.34 204.69 1514.5 199.2 1514.39 199.22 1514.49 198.84 1514.28 198.78 1514.28 198.56 1508.99 198.56 1508.19 193.34 1508.08 193.36 1508.18 192.99 1507.97 192.93 1507.97 192.7 1502.56 192.7 1502.56 193.15 1507.67 193.15 1500.29 219.74 1500.75 219.74 1507.86 194.16 1508.59 198.93 1502.81 219.74 1503.28 219.74 1508.98 199.22 1509.09 199.2 1509.06 199.01 1513.98 199.01 1508.22 219.74 1508.69 219.74 1514.17 200.01 1514.9 204.79 1514.88 204.87 1514.73 204.87 1514.73 205.32 1514.76 205.32 1510.75 219.74 1511.22 219.74 1515.22 205.32 1519.84 205.32 1515.83 219.74 1516.3 219.74 1520.03 206.32 1520.76 211.1 1518.36 219.74 1518.83 219.74 1521.15 211.38 1521.26 211.37 1521.23 211.18 1526.15 211.18 1523.77 219.74 1524.24 219.74 1526.34 212.18 1527.07 216.96 1526.3 219.74 1526.77 219.74 1527.46 217.24 1527.57 217.22 1527.54 217.03 1532.46 217.03 1531.7 219.74 1532.17 219.74 1532.64 218.04 1532.9 219.74 1533.36 219.74 1532.97 217.22 1532.87 217.24"/><path class="cls-4" d="M1054.22,313.22a10.63,10.63,0,0,0,5.18,1.47c4.07,0,5.33-2.59,5.29-4.53,0-3.28-3-4.68-6-4.68h-1.76V303.1h1.76c2.31,0,5.22-1.18,5.22-4,0-1.87-1.19-3.52-4.1-3.52a8.61,8.61,0,0,0-4.68,1.55l-.83-2.31a11.14,11.14,0,0,1,6.12-1.8c4.61,0,6.7,2.74,6.7,5.58,0,2.41-1.44,4.46-4.32,5.51v.07a6.1,6.1,0,0,1,5.22,6c0,3.74-2.92,7-8.54,7a12,12,0,0,1-6.08-1.58Z" transform="translate(-136.63 -75.75)"/><path class="cls-4" d="M1072.18,315a2.13,2.13,0,0,1,2.16-2.27,2.27,2.27,0,1,1-2.16,2.27Z" transform="translate(-136.63 -75.75)"/><path class="cls-4" d="M1087.69,313a11.17,11.17,0,0,0,5.62,1.58c3.2,0,5.07-1.69,5.07-4.14,0-2.26-1.29-3.56-4.57-4.82-4-1.4-6.4-3.46-6.4-6.87,0-3.79,3.13-6.59,7.84-6.59a10.94,10.94,0,0,1,5.37,1.19l-.87,2.55a9.67,9.67,0,0,0-4.6-1.15c-3.32,0-4.58,2-4.58,3.63,0,2.27,1.48,3.39,4.83,4.68,4.1,1.59,6.19,3.57,6.19,7.13,0,3.74-2.77,7-8.5,7a12.59,12.59,0,0,1-6.19-1.54Z" transform="translate(-136.63 -75.75)"/><path class="cls-4" d="M1109.8,309.22l-2.52,7.63H1104l8.24-24.26h3.78l8.28,24.26H1121l-2.59-7.63Zm8-2.44-2.37-7c-.54-1.58-.9-3-1.26-4.42H1114c-.35,1.43-.75,2.91-1.22,4.39l-2.37,7Z" transform="translate(-136.63 -75.75)"/><path class="cls-4" d="M1127.91,292.59H1131v21.64h10.36v2.62h-13.49Z" transform="translate(-136.63 -75.75)"/></g><g id="sort1sal"><polygon class="cls-5" points="1559.99 625 807.37 625 891.95 495 1626.37 495 1559.99 625"/><polygon class="cls-2" points="1509.06 529.01 1509.09 529.2 1508.98 529.22 1503.28 549.74 1508.22 549.74 1513.98 529.01 1509.06 529.01"/><polygon class="cls-2" points="1514.73 535.32 1514.73 534.87 1514.88 534.87 1514.9 534.79 1514.17 530.01 1508.69 549.74 1510.75 549.74 1514.76 535.32 1514.73 535.32"/><polygon class="cls-2" points="1515.22 535.32 1511.22 549.74 1515.83 549.74 1519.84 535.32 1515.22 535.32"/><polygon class="cls-2" points="1520.03 536.32 1516.3 549.74 1518.36 549.74 1520.76 541.1 1520.03 536.32"/><polygon class="cls-2" points="1501.33 518.3 1492.64 549.57 1492.2 549.45 1501.14 517.29 1496.2 517.29 1483.92 549.68 1483.92 549.68 1495.8 517.05 1495.05 512.2 1477.03 549.68 1494.65 549.74 1502.06 523.07 1501.33 518.3"/><polygon class="cls-2" points="1507.86 524.15 1500.75 549.74 1502.81 549.74 1508.59 528.93 1507.86 524.15"/><polygon class="cls-2" points="1563.71 512.37 1495.35 511.21 1496.22 516.84 1501.43 516.84 1501.43 517.07 1501.65 517.13 1501.55 517.5 1501.66 517.48 1502.5 522.97 1502.55 522.99 1502.52 523.1 1502.56 523.34 1502.45 523.36 1495.12 549.74 1500.29 549.74 1507.67 523.15 1502.56 523.15 1502.56 522.7 1507.97 522.7 1507.97 522.92 1508.18 522.99 1508.08 523.36 1508.19 523.34 1508.99 528.56 1514.28 528.56 1514.28 528.78 1514.49 528.84 1514.39 529.22 1514.5 529.2 1515.34 534.69 1515.39 534.7 1515.36 534.82 1515.37 534.87 1520.13 534.87 1520.13 535.09 1520.35 535.15 1520.25 535.52 1520.36 535.51 1521.16 540.73 1526.44 540.73 1526.44 540.95 1526.66 541.01 1526.56 541.38 1526.67 541.37 1527.47 546.58 1532.75 546.58 1532.75 546.81 1532.97 546.87 1532.87 547.24 1532.97 547.23 1533.36 549.74 1544.76 550.25 1563.71 512.37"/><polygon class="cls-2" points="1521.23 541.18 1521.26 541.37 1521.15 541.38 1518.83 549.74 1523.77 549.74 1526.15 541.18 1521.23 541.18"/><polygon class="cls-2" points="1532.17 549.74 1532.9 549.74 1532.64 548.04 1532.17 549.74"/><polygon class="cls-2" points="1527.54 547.03 1527.57 547.23 1527.46 547.24 1526.77 549.74 1531.7 549.74 1532.46 547.03 1527.54 547.03"/><polygon class="cls-2" points="1526.34 542.18 1524.24 549.74 1526.3 549.74 1527.07 546.96 1526.34 542.18"/><polygon class="cls-3" points="1495.35 511.21 1495.35 511.17 1494.9 511.24 1495.05 512.2 1495.35 511.21 1495.35 511.21"/><polygon class="cls-3" points="1502.56 523.34 1502.52 523.1 1502.55 522.99 1502.5 522.97 1501.66 517.48 1501.55 517.5 1501.65 517.13 1501.43 517.07 1501.43 516.84 1496.22 516.84 1495.35 511.21 1495.35 511.21 1495.05 512.2 1495.8 517.05 1483.63 549.39 1483.63 549.39 1496.2 517.29 1501.14 517.29 1492.2 549.45 1492.64 549.57 1501.33 518.3 1502.06 523.07 1494.65 549.74 1495.12 549.74 1502.45 523.36 1502.56 523.34"/><polygon class="cls-3" points="1532.87 547.24 1532.97 546.87 1532.75 546.81 1532.75 546.58 1527.47 546.58 1526.67 541.37 1526.56 541.38 1526.66 541.01 1526.44 540.95 1526.44 540.73 1521.16 540.73 1520.36 535.51 1520.25 535.52 1520.35 535.15 1520.13 535.09 1520.13 534.87 1515.37 534.87 1515.36 534.82 1515.39 534.7 1515.34 534.69 1514.5 529.2 1514.39 529.22 1514.49 528.84 1514.28 528.78 1514.28 528.56 1508.99 528.56 1508.19 523.34 1508.08 523.36 1508.18 522.99 1507.97 522.92 1507.97 522.7 1502.56 522.7 1502.56 523.15 1507.67 523.15 1500.29 549.74 1500.75 549.74 1507.86 524.15 1508.59 528.93 1502.81 549.74 1503.28 549.74 1508.98 529.22 1509.09 529.2 1509.06 529.01 1513.98 529.01 1508.22 549.74 1508.69 549.74 1514.17 530.01 1514.9 534.79 1514.88 534.87 1514.73 534.87 1514.73 535.32 1514.76 535.32 1510.75 549.74 1511.22 549.74 1515.22 535.32 1519.84 535.32 1515.83 549.74 1516.3 549.74 1520.03 536.32 1520.76 541.1 1518.36 549.74 1518.83 549.74 1521.15 541.38 1521.26 541.37 1521.23 541.18 1526.15 541.18 1523.77 549.74 1524.24 549.74 1526.34 542.18 1527.07 546.96 1526.3 549.74 1526.77 549.74 1527.46 547.24 1527.57 547.23 1527.54 547.03 1532.46 547.03 1531.7 549.74 1532.17 549.74 1532.64 548.04 1532.9 549.74 1533.36 549.74 1532.97 547.23 1532.87 547.24"/><path class="cls-4" d="M1060.33,626.41h-.07l-4.06,2.19-.62-2.41,5.11-2.73h2.7v23.39h-3.06Z" transform="translate(-136.63 -75.75)"/><path class="cls-4" d="M1072.18,645a2.13,2.13,0,0,1,2.16-2.27,2.27,2.27,0,1,1-2.16,2.27Z" transform="translate(-136.63 -75.75)"/><path class="cls-4" d="M1087.69,643a11.17,11.17,0,0,0,5.62,1.58c3.2,0,5.07-1.69,5.07-4.14,0-2.26-1.29-3.56-4.57-4.82-4-1.4-6.4-3.46-6.4-6.87,0-3.79,3.13-6.59,7.84-6.59a10.94,10.94,0,0,1,5.37,1.19l-.87,2.55a9.67,9.67,0,0,0-4.6-1.15c-3.32,0-4.58,2-4.58,3.63,0,2.27,1.48,3.39,4.83,4.68,4.1,1.59,6.19,3.57,6.19,7.13,0,3.74-2.77,7-8.5,7a12.59,12.59,0,0,1-6.19-1.54Z" transform="translate(-136.63 -75.75)"/><path class="cls-4" d="M1109.8,639.22l-2.52,7.63H1104l8.24-24.26h3.78l8.28,24.26H1121l-2.59-7.63Zm8-2.44-2.37-7c-.54-1.58-.9-3-1.26-4.42H1114c-.35,1.43-.75,2.91-1.22,4.39l-2.37,7Z" transform="translate(-136.63 -75.75)"/><path class="cls-4" d="M1127.91,622.59H1131v21.64h10.36v2.62h-13.49Z" transform="translate(-136.63 -75.75)"/></g><g id="bastard"><polygon class="cls-2" points="1547.87 795.75 1050.87 795.75 1129.87 665.75 1609.87 665.75 1547.87 795.75"/><polygon class="cls-2" points="1518.06 694.01 1518.09 694.2 1517.98 694.22 1512.28 714.74 1517.22 714.74 1522.98 694.01 1518.06 694.01"/><polygon class="cls-2" points="1523.73 700.32 1523.73 699.87 1523.88 699.87 1523.9 699.79 1523.17 695.01 1517.69 714.74 1519.75 714.74 1523.76 700.32 1523.73 700.32"/><polygon class="cls-2" points="1524.22 700.32 1520.22 714.74 1524.83 714.74 1528.84 700.32 1524.22 700.32"/><polygon class="cls-2" points="1529.03 701.32 1525.3 714.74 1527.36 714.74 1529.76 706.1 1529.03 701.32"/><polygon class="cls-2" points="1510.33 683.3 1501.64 714.57 1501.2 714.45 1510.14 682.29 1505.2 682.29 1492.92 714.68 1492.92 714.68 1504.8 682.05 1504.05 677.2 1486.03 714.68 1503.65 714.74 1511.06 688.07 1510.33 683.3"/><polygon class="cls-2" points="1516.86 689.15 1509.75 714.74 1511.81 714.74 1517.59 693.93 1516.86 689.15"/><polygon class="cls-2" points="1572.71 677.37 1504.35 676.21 1505.22 681.84 1510.43 681.84 1510.43 682.07 1510.65 682.13 1510.55 682.5 1510.66 682.48 1511.5 687.97 1511.55 687.99 1511.52 688.1 1511.56 688.34 1511.45 688.36 1504.12 714.74 1509.29 714.74 1516.67 688.15 1511.56 688.15 1511.56 687.7 1516.97 687.7 1516.97 687.92 1517.18 687.99 1517.08 688.36 1517.19 688.34 1517.99 693.56 1523.28 693.56 1523.28 693.78 1523.49 693.84 1523.39 694.22 1523.5 694.2 1524.34 699.69 1524.39 699.7 1524.36 699.82 1524.37 699.87 1529.13 699.87 1529.13 700.09 1529.35 700.15 1529.25 700.52 1529.36 700.51 1530.16 705.73 1535.44 705.73 1535.44 705.95 1535.66 706.01 1535.56 706.38 1535.67 706.37 1536.47 711.58 1541.75 711.58 1541.75 711.81 1541.97 711.87 1541.87 712.24 1541.97 712.23 1542.36 714.74 1553.76 715.25 1572.71 677.37"/><polygon class="cls-2" points="1530.23 706.18 1530.26 706.37 1530.15 706.38 1527.83 714.74 1532.77 714.74 1535.15 706.18 1530.23 706.18"/><polygon class="cls-2" points="1541.17 714.74 1541.9 714.74 1541.64 713.04 1541.17 714.74"/><polygon class="cls-2" points="1536.54 712.03 1536.57 712.23 1536.46 712.24 1535.77 714.74 1540.7 714.74 1541.46 712.03 1536.54 712.03"/><polygon class="cls-2" points="1535.34 707.18 1533.24 714.74 1535.3 714.74 1536.07 711.96 1535.34 707.18"/><polygon class="cls-3" points="1504.35 676.21 1504.35 676.17 1503.9 676.24 1504.05 677.2 1504.35 676.21 1504.35 676.21"/><polygon class="cls-3" points="1511.56 688.34 1511.52 688.1 1511.55 687.99 1511.5 687.97 1510.66 682.48 1510.55 682.5 1510.65 682.13 1510.43 682.07 1510.43 681.84 1505.22 681.84 1504.35 676.21 1504.35 676.21 1504.05 677.2 1504.8 682.05 1492.63 714.39 1492.63 714.39 1505.2 682.29 1510.14 682.29 1501.2 714.45 1501.64 714.57 1510.33 683.3 1511.06 688.07 1503.65 714.74 1504.12 714.74 1511.45 688.36 1511.56 688.34"/><polygon class="cls-3" points="1541.87 712.24 1541.97 711.87 1541.75 711.81 1541.75 711.58 1536.47 711.58 1535.67 706.37 1535.56 706.38 1535.66 706.01 1535.44 705.95 1535.44 705.73 1530.16 705.73 1529.36 700.51 1529.25 700.52 1529.35 700.15 1529.13 700.09 1529.13 699.87 1524.37 699.87 1524.36 699.82 1524.39 699.7 1524.34 699.69 1523.5 694.2 1523.39 694.22 1523.49 693.84 1523.28 693.78 1523.28 693.56 1517.99 693.56 1517.19 688.34 1517.08 688.36 1517.18 687.99 1516.97 687.92 1516.97 687.7 1511.56 687.7 1511.56 688.15 1516.67 688.15 1509.29 714.74 1509.75 714.74 1516.86 689.15 1517.59 693.93 1511.81 714.74 1512.28 714.74 1517.98 694.22 1518.09 694.2 1518.06 694.01 1522.98 694.01 1517.22 714.74 1517.69 714.74 1523.17 695.01 1523.9 699.79 1523.88 699.87 1523.73 699.87 1523.73 700.32 1523.76 700.32 1519.75 714.74 1520.22 714.74 1524.22 700.32 1528.84 700.32 1524.83 714.74 1525.3 714.74 1529.03 701.32 1529.76 706.1 1527.36 714.74 1527.83 714.74 1530.15 706.38 1530.26 706.37 1530.23 706.18 1535.15 706.18 1532.77 714.74 1533.24 714.74 1535.34 707.18 1536.07 711.96 1535.3 714.74 1535.77 714.74 1536.46 712.24 1536.57 712.23 1536.54 712.03 1541.46 712.03 1540.7 714.74 1541.17 714.74 1541.64 713.04 1541.9 714.74 1542.36 714.74 1541.97 712.23 1541.87 712.24"/><path class="cls-5" d="M1264.27,810.58a26.7,26.7,0,0,1,5.09-.45c2.78,0,4.57.48,5.92,1.57a4.51,4.51,0,0,1,1.79,3.8,5.12,5.12,0,0,1-3.65,4.74v.06a5.57,5.57,0,0,1,4.45,5.41,5.84,5.84,0,0,1-1.82,4.32c-1.51,1.38-3.94,2-7.46,2a32.08,32.08,0,0,1-4.32-.26Zm2.79,8.83h2.52c3,0,4.67-1.54,4.67-3.62,0-2.53-1.92-3.52-4.73-3.52a12.34,12.34,0,0,0-2.46.19Zm0,10.33a14.26,14.26,0,0,0,2.33.13c2.88,0,5.54-1.06,5.54-4.19,0-2.94-2.53-4.16-5.57-4.16h-2.3Z" transform="translate(-136.63 -75.75)"/><path class="cls-5" d="M1285.1,825.07l-2.24,6.78H1280l7.33-21.56h3.36l7.36,21.56h-3l-2.3-6.78Zm7.07-2.17-2.11-6.21c-.48-1.41-.8-2.69-1.12-3.94h-.06c-.32,1.28-.67,2.59-1.09,3.91l-2.11,6.24Z" transform="translate(-136.63 -75.75)"/><path class="cls-5" d="M1300.82,828.46a9.82,9.82,0,0,0,5,1.41c2.85,0,4.51-1.5,4.51-3.68,0-2-1.15-3.17-4.07-4.29-3.51-1.24-5.69-3.07-5.69-6.11,0-3.36,2.78-5.85,7-5.85a9.84,9.84,0,0,1,4.76,1l-.77,2.27a8.61,8.61,0,0,0-4.09-1c-2.94,0-4.06,1.76-4.06,3.23,0,2,1.31,3,4.28,4.16,3.65,1.41,5.51,3.17,5.51,6.34s-2.47,6.2-7.55,6.2a11.15,11.15,0,0,1-5.51-1.37Z" transform="translate(-136.63 -75.75)"/><path class="cls-5" d="M1321.07,812.66h-6.56v-2.37h16v2.37h-6.59v19.19h-2.82Z" transform="translate(-136.63 -75.75)"/><path class="cls-5" d="M1334,825.07l-2.24,6.78h-2.88l7.32-21.56h3.36l7.36,21.56h-3l-2.31-6.78Zm7.07-2.17-2.11-6.21c-.48-1.41-.8-2.69-1.12-3.94h-.07c-.32,1.28-.67,2.59-1.09,3.91l-2.11,6.24Z" transform="translate(-136.63 -75.75)"/><path class="cls-5" d="M1350.06,810.58a28.9,28.9,0,0,1,5.35-.45c3,0,4.89.54,6.24,1.76a5.39,5.39,0,0,1,1.69,4.09,5.67,5.67,0,0,1-4.06,5.51v.09c1.66.58,2.65,2.12,3.17,4.35a33.77,33.77,0,0,0,1.66,5.92h-2.88a28,28,0,0,1-1.44-5.15c-.64-3-1.79-4.09-4.32-4.19h-2.62v9.34h-2.79Zm2.79,9.82h2.84c3,0,4.87-1.63,4.87-4.1,0-2.78-2-4-5-4a11.17,11.17,0,0,0-2.75.26Z" transform="translate(-136.63 -75.75)"/><path class="cls-5" d="M1367.28,810.58a39.35,39.35,0,0,1,5.92-.45c4,0,6.85.93,8.73,2.69a9.92,9.92,0,0,1,3,7.74,11.37,11.37,0,0,1-3.1,8.38c-2,2-5.34,3.11-9.54,3.11a44.8,44.8,0,0,1-5-.26Zm2.78,19.07a18.66,18.66,0,0,0,2.82.16c5.95,0,9.18-3.33,9.18-9.15,0-5.09-2.85-8.32-8.73-8.32a16,16,0,0,0-3.27.28Z" transform="translate(-136.63 -75.75)"/><path class="cls-5" d="M1410.45,831.15a13.93,13.93,0,0,1-5.7,1c-6.08,0-10.66-3.84-10.66-10.91,0-6.75,4.58-11.32,11.27-11.32a11.52,11.52,0,0,1,5.12,1l-.68,2.27a10.11,10.11,0,0,0-4.35-.9c-5,0-8.41,3.23-8.41,8.9,0,5.28,3,8.67,8.29,8.67a11,11,0,0,0,4.54-.9Z" transform="translate(-136.63 -75.75)"/><path class="cls-5" d="M1417.55,825.07l-2.24,6.78h-2.88l7.33-21.56h3.36l7.36,21.56h-3l-2.3-6.78Zm7.07-2.17-2.11-6.21c-.48-1.41-.8-2.69-1.12-3.94h-.06c-.33,1.28-.68,2.59-1.09,3.91l-2.11,6.24Z" transform="translate(-136.63 -75.75)"/><path class="cls-5" d="M1433.65,810.29h11.61v2.33h-8.83v7.17h8.16v2.3h-8.16v9.76h-2.78Z" transform="translate(-136.63 -75.75)"/><path class="cls-5" d="M1460.4,821.74H1452v7.78h9.35v2.33h-12.13V810.29h11.65v2.33H1452v6.82h8.39Zm-.55-16.35-4.06,3.75h-2.3l3-3.75Z" transform="translate(-136.63 -75.75)"/><path class="cls-5" d="M1476.14,821.74h-8.38v7.78h9.34v2.33H1465V810.29h11.65v2.33h-8.86v6.82h8.38Z" transform="translate(-136.63 -75.75)"/><path class="cls-5" d="M1480.72,831.85V810.29h3l6.91,10.91a60.43,60.43,0,0,1,3.87,7l.06,0c-.25-2.88-.32-5.5-.32-8.86v-9h2.63v21.56h-2.82l-6.85-10.94a69.12,69.12,0,0,1-4-7.2l-.09,0c.16,2.72.22,5.32.22,8.9v9.21Z" transform="translate(-136.63 -75.75)"/></g><g id="gaarden"><polygon class="cls-2" points="1034.87 955.75 586.37 955.75 670.31 825.75 1095.87 825.75 1034.87 955.75"/><path class="cls-5" d="M844,993.77a22.35,22.35,0,0,1-7.45,1.34c-3.67,0-6.7-.94-9.07-3.21a12.45,12.45,0,0,1-3.38-9c0-7.24,5-12.53,13.13-12.53a14.87,14.87,0,0,1,6.05,1.12l-.75,2.55a12.72,12.72,0,0,0-5.37-1c-5.9,0-9.75,3.67-9.75,9.75s3.71,9.79,9.36,9.79a10.22,10.22,0,0,0,4.17-.64v-7.24h-4.93v-2.52h8Z" transform="translate(-136.63 -75.75)"/><path class="cls-5" d="M852.75,987.22l-2.51,7.63H847l8.24-24.26H859l8.28,24.26H864l-2.59-7.63Zm8-2.44-2.38-7c-.54-1.58-.9-3-1.26-4.42H857c-.36,1.43-.75,2.91-1.22,4.39l-2.38,7Zm0-18.29a3.6,3.6,0,1,1-3.57-3.24A3.27,3.27,0,0,1,860.75,966.49Zm-5.33,0a1.79,1.79,0,0,0,1.73,1.83,1.91,1.91,0,0,0,0-3.81A1.79,1.79,0,0,0,855.42,966.53Z" transform="translate(-136.63 -75.75)"/><path class="cls-5" d="M870.86,970.92a32.13,32.13,0,0,1,6-.51c3.34,0,5.5.62,7,2A6,6,0,0,1,885.8,977a6.36,6.36,0,0,1-4.57,6.19v.11c1.87.65,3,2.38,3.56,4.9a38.3,38.3,0,0,0,1.88,6.65h-3.24a30.65,30.65,0,0,1-1.62-5.79c-.72-3.35-2-4.61-4.86-4.72h-3v10.51h-3.14ZM874,982h3.2c3.35,0,5.47-1.84,5.47-4.61,0-3.13-2.27-4.5-5.58-4.53a13.16,13.16,0,0,0-3.09.28Z" transform="translate(-136.63 -75.75)"/><path class="cls-5" d="M890.23,970.92a44.6,44.6,0,0,1,6.66-.51c4.5,0,7.7,1.05,9.83,3s3.42,4.78,3.42,8.71-1.23,7.2-3.5,9.43-6,3.49-10.72,3.49a50.51,50.51,0,0,1-5.69-.29Zm3.13,21.45a20.3,20.3,0,0,0,3.17.18c6.7,0,10.33-3.74,10.33-10.29,0-5.73-3.2-9.36-9.83-9.36a17.84,17.84,0,0,0-3.67.32Z" transform="translate(-136.63 -75.75)"/><path class="cls-5" d="M917.34,970.59v10.15h11.73V970.59h3.17v24.26h-3.17V983.48H917.34v11.37h-3.13V970.59Z" transform="translate(-136.63 -75.75)"/><path class="cls-5" d="M941.6,987.22l-2.52,7.63h-3.24l8.24-24.26h3.79l8.27,24.26H952.8l-2.6-7.63Zm8-2.44-2.38-7c-.54-1.58-.9-3-1.26-4.42h-.07c-.36,1.43-.76,2.91-1.22,4.39l-2.38,7Z" transform="translate(-136.63 -75.75)"/><path class="cls-5" d="M963.13,994.85l-7.92-24.26h3.38l3.78,11.95c1,3.28,2,6.23,2.59,9.08H965c.68-2.81,1.69-5.87,2.77-9l4.1-12h3.35l-8.68,24.26Z" transform="translate(-136.63 -75.75)"/><path class="cls-5" d="M990.45,983.48H981v8.75h10.51v2.62H977.89V970.59H991v2.63H981v7.67h9.43Z" transform="translate(-136.63 -75.75)"/><path class="cls-5" d="M995.6,994.85V970.59H999l7.78,12.28a68.24,68.24,0,0,1,4.35,7.88l.07,0c-.28-3.23-.36-6.19-.36-10V970.59h3v24.26h-3.17l-7.7-12.31a75.63,75.63,0,0,1-4.54-8.09l-.11,0c.18,3.06.25,6,.25,10v10.36Z" transform="translate(-136.63 -75.75)"/></g><g id="bygning"><polygon class="cls-2" points="1538.87 1151.75 1014.87 1154.75 1163.87 825.75 1163.48 825.75 1287.87 825.75 1219.87 981.75 1602.87 979.75 1538.87 1151.75"/></g><g id="sort2sal"><polygon class="cls-5" points="1559.99 460 807.37 460 891.95 330 1626.37 330 1559.99 460"/><polygon class="cls-2" points="1509.06 364.01 1509.09 364.2 1508.98 364.22 1503.28 384.74 1508.22 384.74 1513.98 364.01 1509.06 364.01"/><polygon class="cls-2" points="1514.73 370.32 1514.73 369.87 1514.88 369.87 1514.9 369.79 1514.17 365.01 1508.69 384.74 1510.75 384.74 1514.76 370.32 1514.73 370.32"/><polygon class="cls-2" points="1515.22 370.32 1511.22 384.74 1515.83 384.74 1519.84 370.32 1515.22 370.32"/><polygon class="cls-2" points="1520.03 371.32 1516.3 384.74 1518.36 384.74 1520.76 376.1 1520.03 371.32"/><polygon class="cls-2" points="1501.33 353.3 1492.64 384.57 1492.2 384.45 1501.14 352.29 1496.2 352.29 1483.92 384.68 1483.92 384.68 1495.8 352.05 1495.05 347.2 1477.03 384.68 1494.65 384.74 1502.06 358.07 1501.33 353.3"/><polygon class="cls-2" points="1507.86 359.15 1500.75 384.74 1502.81 384.74 1508.59 363.93 1507.86 359.15"/><polygon class="cls-2" points="1563.71 347.37 1495.35 346.21 1496.22 351.84 1501.43 351.84 1501.43 352.07 1501.65 352.13 1501.55 352.5 1501.66 352.48 1502.5 357.97 1502.55 357.99 1502.52 358.1 1502.56 358.34 1502.45 358.36 1495.12 384.74 1500.29 384.74 1507.67 358.15 1502.56 358.15 1502.56 357.7 1507.97 357.7 1507.97 357.93 1508.18 357.99 1508.08 358.36 1508.19 358.34 1508.99 363.56 1514.28 363.56 1514.28 363.78 1514.49 363.84 1514.39 364.22 1514.5 364.2 1515.34 369.69 1515.39 369.7 1515.36 369.82 1515.37 369.87 1520.13 369.87 1520.13 370.09 1520.35 370.15 1520.25 370.52 1520.36 370.51 1521.16 375.73 1526.44 375.73 1526.44 375.95 1526.66 376.01 1526.56 376.38 1526.67 376.37 1527.47 381.58 1532.75 381.58 1532.75 381.81 1532.97 381.87 1532.87 382.24 1532.97 382.23 1533.36 384.74 1544.76 385.25 1563.71 347.37"/><polygon class="cls-2" points="1521.23 376.18 1521.26 376.37 1521.15 376.38 1518.83 384.74 1523.77 384.74 1526.15 376.18 1521.23 376.18"/><polygon class="cls-2" points="1532.17 384.74 1532.9 384.74 1532.64 383.04 1532.17 384.74"/><polygon class="cls-2" points="1527.54 382.03 1527.57 382.23 1527.46 382.24 1526.77 384.74 1531.7 384.74 1532.46 382.03 1527.54 382.03"/><polygon class="cls-2" points="1526.34 377.18 1524.24 384.74 1526.3 384.74 1527.07 381.95 1526.34 377.18"/><polygon class="cls-3" points="1495.35 346.21 1495.35 346.17 1494.9 346.24 1495.05 347.2 1495.35 346.21 1495.35 346.21"/><polygon class="cls-3" points="1502.56 358.34 1502.52 358.1 1502.55 357.99 1502.5 357.97 1501.66 352.48 1501.55 352.5 1501.65 352.13 1501.43 352.07 1501.43 351.84 1496.22 351.84 1495.35 346.21 1495.35 346.21 1495.05 347.2 1495.8 352.05 1483.63 384.39 1483.63 384.39 1496.2 352.29 1501.14 352.29 1492.2 384.45 1492.64 384.57 1501.33 353.3 1502.06 358.07 1494.65 384.74 1495.12 384.74 1502.45 358.36 1502.56 358.34"/><polygon class="cls-3" points="1532.87 382.24 1532.97 381.87 1532.75 381.81 1532.75 381.58 1527.47 381.58 1526.67 376.37 1526.56 376.38 1526.66 376.01 1526.44 375.95 1526.44 375.73 1521.16 375.73 1520.36 370.51 1520.25 370.52 1520.35 370.15 1520.13 370.09 1520.13 369.87 1515.37 369.87 1515.36 369.82 1515.39 369.7 1515.34 369.69 1514.5 364.2 1514.39 364.22 1514.49 363.84 1514.28 363.78 1514.28 363.56 1508.99 363.56 1508.19 358.34 1508.08 358.36 1508.18 357.99 1507.97 357.93 1507.97 357.7 1502.56 357.7 1502.56 358.15 1507.67 358.15 1500.29 384.74 1500.75 384.74 1507.86 359.15 1508.59 363.93 1502.81 384.74 1503.28 384.74 1508.98 364.22 1509.09 364.2 1509.06 364.01 1513.98 364.01 1508.22 384.74 1508.69 384.74 1514.17 365.01 1514.9 369.79 1514.88 369.87 1514.73 369.87 1514.73 370.32 1514.76 370.32 1510.75 384.74 1511.22 384.74 1515.22 370.32 1519.84 370.32 1515.83 384.74 1516.3 384.74 1520.03 371.32 1520.76 376.1 1518.36 384.74 1518.83 384.74 1521.15 376.38 1521.26 376.37 1521.23 376.18 1526.15 376.18 1523.77 384.74 1524.24 384.74 1526.34 377.18 1527.07 381.95 1526.3 384.74 1526.77 384.74 1527.46 382.24 1527.57 382.23 1527.54 382.03 1532.46 382.03 1531.7 384.74 1532.17 384.74 1532.64 383.04 1532.9 384.74 1533.36 384.74 1532.97 382.23 1532.87 382.24"/><path class="cls-4" d="M1053.46,480.85v-1.94l2.48-2.41c6-5.69,8.68-8.71,8.71-12.24,0-2.38-1.15-4.57-4.64-4.57a8,8,0,0,0-5,2l-1-2.23a10.25,10.25,0,0,1,6.62-2.38c5,0,7.16,3.46,7.16,6.8,0,4.32-3.13,7.82-8.06,12.57l-1.87,1.73v.07h10.51v2.62Z" transform="translate(-136.63 -75.75)"/><path class="cls-4" d="M1072.18,479a2.13,2.13,0,0,1,2.16-2.27,2.27,2.27,0,1,1-2.16,2.27Z" transform="translate(-136.63 -75.75)"/><path class="cls-4" d="M1087.69,477a11.17,11.17,0,0,0,5.62,1.58c3.2,0,5.07-1.69,5.07-4.14,0-2.26-1.29-3.56-4.57-4.82-4-1.4-6.4-3.46-6.4-6.87,0-3.79,3.13-6.59,7.84-6.59a10.94,10.94,0,0,1,5.37,1.19l-.87,2.55a9.67,9.67,0,0,0-4.6-1.15c-3.32,0-4.58,2-4.58,3.63,0,2.27,1.48,3.39,4.83,4.68,4.1,1.59,6.19,3.57,6.19,7.13,0,3.74-2.77,7-8.5,7a12.59,12.59,0,0,1-6.19-1.54Z" transform="translate(-136.63 -75.75)"/><path class="cls-4" d="M1109.8,473.22l-2.52,7.63H1104l8.24-24.26h3.78l8.28,24.26H1121l-2.59-7.63Zm8-2.44-2.37-7c-.54-1.58-.9-3-1.26-4.42H1114c-.35,1.43-.75,2.91-1.22,4.39l-2.37,7Z" transform="translate(-136.63 -75.75)"/><path class="cls-4" d="M1127.91,456.59H1131v21.64h10.36v2.62h-13.49Z" transform="translate(-136.63 -75.75)"/></g></svg>
