<svg id="baggrund" xmlns="http://www.w3.org/2000/svg" viewBox="0 0 1646.37 1190.04"><defs><style>.cls-1{fill:#1c1e4b;}.cls-2{fill:#c1dfea;stroke:#474643;stroke-miterlimit:10;}.cls-3{fill:#474643;}.cls-4{fill:#efefef;}.cls-5{fill:#1f1f1f;}.cls-6{fill:#fff;}</style></defs><title>plantegning</title><g id="bluekælder"><polygon class="cls-1" points="612.87 1063.75 0.87 1063.75 100.87 891.75 154.37 791.25 528.37 791.25 466.37 892.25 702.87 891.75 612.87 1063.75"/><polygon class="cls-2" points="438.06 820.01 438.09 820.2 437.98 820.22 432.28 840.74 437.22 840.74 442.98 820.01 438.06 820.01"/><polygon class="cls-2" points="443.73 826.32 443.73 825.87 443.88 825.87 443.9 825.79 443.17 821.01 437.69 840.74 439.75 840.74 443.76 826.32 443.73 826.32"/><polygon class="cls-2" points="444.22 826.32 440.22 840.74 444.83 840.74 448.84 826.32 444.22 826.32"/><polygon class="cls-2" points="449.03 827.32 445.3 840.74 447.36 840.74 449.76 832.1 449.03 827.32"/><polygon class="cls-2" points="430.32 809.3 421.64 840.57 421.2 840.45 430.14 808.29 425.2 808.29 412.92 840.68 412.92 840.68 424.8 808.05 424.05 803.2 406.03 840.68 423.65 840.74 431.06 814.07 430.32 809.3"/><polygon class="cls-2" points="436.86 815.15 429.75 840.74 431.81 840.74 437.59 819.93 436.86 815.15"/><polygon class="cls-2" points="492.71 803.37 424.35 802.21 425.22 807.84 430.43 807.84 430.43 808.07 430.65 808.13 430.55 808.5 430.66 808.48 431.5 813.97 431.55 813.99 431.52 814.1 431.56 814.34 431.45 814.36 424.12 840.74 429.29 840.74 436.67 814.15 431.56 814.15 431.56 813.7 436.97 813.7 436.97 813.92 437.18 813.99 437.08 814.36 437.19 814.34 437.99 819.56 443.28 819.56 443.28 819.78 443.49 819.84 443.39 820.22 443.5 820.2 444.34 825.69 444.39 825.7 444.36 825.82 444.37 825.87 449.13 825.87 449.13 826.09 449.35 826.15 449.25 826.52 449.36 826.51 450.16 831.73 455.44 831.73 455.44 831.95 455.66 832.01 455.56 832.38 455.67 832.37 456.47 837.58 461.75 837.58 461.75 837.81 461.97 837.87 461.87 838.24 461.98 838.23 462.36 840.74 473.76 841.25 492.71 803.37"/><polygon class="cls-2" points="450.23 832.18 450.26 832.37 450.15 832.38 447.83 840.74 452.77 840.74 455.15 832.18 450.23 832.18"/><polygon class="cls-2" points="461.17 840.74 461.9 840.74 461.64 839.04 461.17 840.74"/><polygon class="cls-2" points="456.54 838.03 456.57 838.23 456.46 838.24 455.76 840.74 460.7 840.74 461.46 838.03 456.54 838.03"/><polygon class="cls-2" points="455.33 833.18 453.24 840.74 455.3 840.74 456.07 837.96 455.33 833.18"/><polygon class="cls-3" points="424.35 802.21 424.35 802.17 423.9 802.24 424.05 803.2 424.35 802.21 424.35 802.21"/><polygon class="cls-3" points="431.56 814.34 431.52 814.1 431.55 813.99 431.5 813.97 430.66 808.48 430.55 808.5 430.65 808.13 430.43 808.07 430.43 807.84 425.22 807.84 424.35 802.21 424.35 802.21 424.05 803.2 424.8 808.05 412.63 840.39 412.63 840.39 425.2 808.29 430.14 808.29 421.2 840.45 421.64 840.57 430.32 809.3 431.06 814.07 423.65 840.74 424.12 840.74 431.45 814.36 431.56 814.34"/><polygon class="cls-3" points="461.87 838.24 461.97 837.87 461.75 837.81 461.75 837.58 456.47 837.58 455.67 832.37 455.56 832.38 455.66 832.01 455.44 831.95 455.44 831.73 450.16 831.73 449.36 826.51 449.25 826.52 449.35 826.15 449.13 826.09 449.13 825.87 444.37 825.87 444.36 825.82 444.39 825.7 444.34 825.69 443.5 820.2 443.39 820.22 443.49 819.84 443.28 819.78 443.28 819.56 437.99 819.56 437.19 814.34 437.08 814.36 437.18 813.99 436.97 813.92 436.97 813.7 431.56 813.7 431.56 814.15 436.67 814.15 429.29 840.74 429.75 840.74 436.86 815.15 437.59 819.93 431.81 840.74 432.28 840.74 437.98 820.22 438.09 820.2 438.06 820.01 442.98 820.01 437.22 840.74 437.69 840.74 443.17 821.01 443.9 825.79 443.88 825.87 443.73 825.87 443.73 826.32 443.76 826.32 439.75 840.74 440.22 840.74 444.22 826.32 448.84 826.32 444.83 840.74 445.3 840.74 449.03 827.32 449.76 832.1 447.36 840.74 447.83 840.74 450.15 832.38 450.26 832.37 450.23 832.18 455.15 832.18 452.77 840.74 453.24 840.74 455.33 833.18 456.07 837.96 455.3 840.74 455.76 840.74 456.46 838.24 456.57 838.23 456.54 838.03 461.46 838.03 460.7 840.74 461.17 840.74 461.64 839.04 461.9 840.74 462.36 840.74 461.98 838.23 461.87 838.24"/><path class="cls-4" d="M198.58,1176.17h3.13v11.7h.11c.64-.93,1.29-1.8,1.9-2.59l7.42-9.11H215l-8.79,10.3,9.47,14H212l-8-11.91-2.3,2.66v9.25h-3.13Z" transform="translate(-116.63 -175.75)"/><path class="cls-4" d="M215.67,1200.43l11.09-24.26H242v2.63H231.62l.94,7.74h9v2.59H233l1.08,8.68h8.89v2.62H231.33l-1.08-8.56H222.8l-3.89,8.56Zm14.22-11.08-.79-7c-.14-1.16-.36-2.7-.43-3.93h-.14c-.44,1.15-1,2.52-1.55,3.82l-3.13,7.09Z" transform="translate(-116.63 -175.75)"/><path class="cls-4" d="M246.81,1176.17H250v21.64h10.36v2.62h-13.5Z" transform="translate(-116.63 -175.75)"/><path class="cls-4" d="M263.81,1176.5a44.35,44.35,0,0,1,6.65-.51c4.5,0,7.71,1,9.83,3s3.42,4.78,3.42,8.71-1.22,7.2-3.49,9.43-6,3.49-10.73,3.49a50.32,50.32,0,0,1-5.68-.29Zm3.13,21.45a20.22,20.22,0,0,0,3.17.18c6.69,0,10.33-3.74,10.33-10.29,0-5.73-3.21-9.36-9.83-9.36a17.84,17.84,0,0,0-3.67.32Z" transform="translate(-116.63 -175.75)"/><path class="cls-4" d="M300.34,1189.06h-9.43v8.75h10.51v2.62H287.78v-24.26h13.1v2.63h-10v7.67h9.43Z" transform="translate(-116.63 -175.75)"/><path class="cls-4" d="M305.49,1176.5a32.09,32.09,0,0,1,6-.51c3.35,0,5.51.62,7,2a6,6,0,0,1,1.91,4.61,6.36,6.36,0,0,1-4.57,6.19v.11c1.87.65,3,2.38,3.56,4.9a38.3,38.3,0,0,0,1.88,6.65h-3.24a30.65,30.65,0,0,1-1.62-5.79c-.72-3.35-2-4.61-4.86-4.72h-2.95v10.51h-3.14Zm3.14,11h3.2c3.35,0,5.47-1.84,5.47-4.61,0-3.13-2.27-4.5-5.58-4.53a13.16,13.16,0,0,0-3.09.28Z" transform="translate(-116.63 -175.75)"/></g><g id="bluestuen"><polygon class="cls-2" points="375.87 891.25 0.87 891.25 100.87 719.25 465.87 719.25 375.87 891.25"/><path class="cls-5" d="M198.14,1017.21a11.17,11.17,0,0,0,5.62,1.58c3.2,0,5.07-1.69,5.07-4.14,0-2.27-1.29-3.56-4.57-4.82-4-1.41-6.4-3.46-6.4-6.88,0-3.78,3.13-6.59,7.84-6.59a11.05,11.05,0,0,1,5.37,1.19l-.87,2.56a9.68,9.68,0,0,0-4.61-1.15c-3.31,0-4.57,2-4.57,3.63,0,2.27,1.48,3.39,4.83,4.68,4.1,1.59,6.19,3.56,6.19,7.13,0,3.74-2.77,7-8.5,7a12.48,12.48,0,0,1-6.19-1.55Z" transform="translate(-116.63 -175.75)"/><path class="cls-5" d="M220.93,999.42h-7.38v-2.66h18v2.66H224.1V1021h-3.17Z" transform="translate(-116.63 -175.75)"/><path class="cls-5" d="M237.35,996.76v14.36c0,5.44,2.41,7.74,5.65,7.74,3.6,0,5.9-2.37,5.9-7.74V996.76h3.17v14.15c0,7.45-3.92,10.51-9.18,10.51-5,0-8.71-2.85-8.71-10.37V996.76Z" transform="translate(-116.63 -175.75)"/><path class="cls-5" d="M270.07,1009.65h-9.43v8.74h10.51V1021H257.51V996.76h13.1v2.63h-10v7.67h9.43Z" transform="translate(-116.63 -175.75)"/><path class="cls-5" d="M275.22,1021V996.76h3.42l7.77,12.27a68.5,68.5,0,0,1,4.36,7.89l.07,0c-.29-3.24-.36-6.19-.36-10V996.76h2.95V1021h-3.17l-7.7-12.31a76.38,76.38,0,0,1-4.53-8.1l-.11,0c.18,3.06.25,6,.25,10V1021Z" transform="translate(-116.63 -175.75)"/></g><g id="blue2sal"><polygon class="cls-1" points="612.87 719.25 0.87 719.25 100.87 547.25 154.37 446.75 519.37 446.75 466.37 547.75 707.37 547.75 612.87 719.25"/><polygon class="cls-2" points="438.06 475.51 438.09 475.7 437.98 475.72 432.28 496.24 437.22 496.24 442.98 475.51 438.06 475.51"/><polygon class="cls-2" points="443.73 481.82 443.73 481.37 443.88 481.37 443.9 481.29 443.17 476.51 437.69 496.24 439.75 496.24 443.76 481.82 443.73 481.82"/><polygon class="cls-2" points="444.22 481.82 440.22 496.24 444.83 496.24 448.84 481.82 444.22 481.82"/><polygon class="cls-2" points="449.03 482.82 445.3 496.24 447.36 496.24 449.76 487.6 449.03 482.82"/><polygon class="cls-2" points="430.32 464.8 421.64 496.07 421.2 495.95 430.14 463.79 425.2 463.79 412.92 496.18 412.92 496.18 424.8 463.55 424.05 458.7 406.03 496.18 423.65 496.24 431.06 469.57 430.32 464.8"/><polygon class="cls-2" points="436.86 470.65 429.75 496.24 431.81 496.24 437.59 475.43 436.86 470.65"/><polygon class="cls-2" points="492.71 458.87 424.35 457.71 425.22 463.34 430.43 463.34 430.43 463.57 430.65 463.63 430.55 464 430.66 463.98 431.5 469.47 431.55 469.49 431.52 469.6 431.56 469.84 431.45 469.86 424.12 496.24 429.29 496.24 436.67 469.65 431.56 469.65 431.56 469.2 436.97 469.2 436.97 469.43 437.18 469.49 437.08 469.86 437.19 469.84 437.99 475.06 443.28 475.06 443.28 475.28 443.49 475.34 443.39 475.72 443.5 475.7 444.34 481.19 444.39 481.2 444.36 481.32 444.37 481.37 449.13 481.37 449.13 481.59 449.35 481.65 449.25 482.02 449.36 482.01 450.16 487.23 455.44 487.23 455.44 487.45 455.66 487.51 455.56 487.88 455.67 487.87 456.47 493.08 461.75 493.08 461.75 493.31 461.97 493.37 461.87 493.74 461.98 493.73 462.36 496.24 473.76 496.75 492.71 458.87"/><polygon class="cls-2" points="450.23 487.68 450.26 487.87 450.15 487.88 447.83 496.24 452.77 496.24 455.15 487.68 450.23 487.68"/><polygon class="cls-2" points="461.17 496.24 461.9 496.24 461.64 494.54 461.17 496.24"/><polygon class="cls-2" points="456.54 493.53 456.57 493.73 456.46 493.74 455.76 496.24 460.7 496.24 461.46 493.53 456.54 493.53"/><polygon class="cls-2" points="455.33 488.68 453.24 496.24 455.3 496.24 456.07 493.45 455.33 488.68"/><polygon class="cls-3" points="424.35 457.71 424.35 457.67 423.9 457.74 424.05 458.7 424.35 457.71 424.35 457.71"/><polygon class="cls-3" points="431.56 469.84 431.52 469.6 431.55 469.49 431.5 469.47 430.66 463.98 430.55 464 430.65 463.63 430.43 463.57 430.43 463.34 425.22 463.34 424.35 457.71 424.35 457.71 424.05 458.7 424.8 463.55 412.63 495.89 412.63 495.89 425.2 463.79 430.14 463.79 421.2 495.95 421.64 496.07 430.32 464.8 431.06 469.57 423.65 496.24 424.12 496.24 431.45 469.86 431.56 469.84"/><polygon class="cls-3" points="461.87 493.74 461.97 493.37 461.75 493.31 461.75 493.08 456.47 493.08 455.67 487.87 455.56 487.88 455.66 487.51 455.44 487.45 455.44 487.23 450.16 487.23 449.36 482.01 449.25 482.02 449.35 481.65 449.13 481.59 449.13 481.37 444.37 481.37 444.36 481.32 444.39 481.2 444.34 481.19 443.5 475.7 443.39 475.72 443.49 475.34 443.28 475.28 443.28 475.06 437.99 475.06 437.19 469.84 437.08 469.86 437.18 469.49 436.97 469.43 436.97 469.2 431.56 469.2 431.56 469.65 436.67 469.65 429.29 496.24 429.75 496.24 436.86 470.65 437.59 475.43 431.81 496.24 432.28 496.24 437.98 475.72 438.09 475.7 438.06 475.51 442.98 475.51 437.22 496.24 437.69 496.24 443.17 476.51 443.9 481.29 443.88 481.37 443.73 481.37 443.73 481.82 443.76 481.82 439.75 496.24 440.22 496.24 444.22 481.82 448.84 481.82 444.83 496.24 445.3 496.24 449.03 482.82 449.76 487.6 447.36 496.24 447.83 496.24 450.15 487.88 450.26 487.87 450.23 487.68 455.15 487.68 452.77 496.24 453.24 496.24 455.33 488.68 456.07 493.45 455.3 496.24 455.76 496.24 456.46 493.74 456.57 493.73 456.54 493.53 461.46 493.53 460.7 496.24 461.17 496.24 461.64 494.54 461.9 496.24 462.36 496.24 461.98 493.73 461.87 493.74"/><path class="cls-4" d="M204.33,827.91h-.07l-4.06,2.19-.62-2.41,5.11-2.73h2.7v23.39h-3.06Z" transform="translate(-116.63 -175.75)"/><path class="cls-4" d="M216.18,846.48a2.13,2.13,0,0,1,2.16-2.27,2.27,2.27,0,1,1-2.16,2.27Z" transform="translate(-116.63 -175.75)"/><path class="cls-4" d="M231.69,844.54a11.17,11.17,0,0,0,5.62,1.58c3.2,0,5.07-1.69,5.07-4.14,0-2.26-1.29-3.56-4.57-4.82-4-1.4-6.4-3.46-6.4-6.87,0-3.79,3.13-6.59,7.84-6.59a10.94,10.94,0,0,1,5.37,1.19l-.87,2.55a9.67,9.67,0,0,0-4.6-1.15c-3.32,0-4.58,2-4.58,3.63,0,2.27,1.48,3.39,4.83,4.68,4.1,1.59,6.19,3.57,6.19,7.13,0,3.74-2.77,7-8.5,7a12.59,12.59,0,0,1-6.19-1.54Z" transform="translate(-116.63 -175.75)"/><path class="cls-4" d="M253.8,840.72l-2.52,7.63H248l8.24-24.26h3.78l8.28,24.26H265l-2.59-7.63Zm7.95-2.44-2.37-7c-.54-1.58-.9-3-1.26-4.42H258c-.35,1.43-.75,2.91-1.22,4.39l-2.37,7Z" transform="translate(-116.63 -175.75)"/><path class="cls-4" d="M271.91,824.09H275v21.64H285.4v2.62H271.91Z" transform="translate(-116.63 -175.75)"/><polygon class="cls-2" points="375.87 546.75 0.87 546.75 100.87 374.75 465.87 374.75 375.87 546.75"/><path class="cls-5" d="M197.46,685.85v-1.94l2.48-2.41c6-5.69,8.68-8.71,8.71-12.24,0-2.38-1.15-4.57-4.64-4.57a8,8,0,0,0-5,2l-1-2.23a10.25,10.25,0,0,1,6.62-2.38c5,0,7.16,3.46,7.16,6.8,0,4.32-3.13,7.82-8.06,12.57l-1.87,1.73v.07H212.4v2.62Z" transform="translate(-116.63 -175.75)"/><path class="cls-5" d="M216.18,684a2.13,2.13,0,0,1,2.16-2.27,2.27,2.27,0,1,1-2.16,2.27Z" transform="translate(-116.63 -175.75)"/><path class="cls-5" d="M224.06,682a11.17,11.17,0,0,0,5.62,1.58c3.2,0,5.07-1.69,5.07-4.14,0-2.26-1.29-3.56-4.57-4.82-4-1.4-6.41-3.46-6.41-6.87,0-3.79,3.14-6.59,7.85-6.59a10.94,10.94,0,0,1,5.37,1.19l-.87,2.55a9.68,9.68,0,0,0-4.61-1.15c-3.31,0-4.57,2-4.57,3.63,0,2.27,1.48,3.39,4.83,4.68,4.1,1.59,6.19,3.57,6.19,7.13,0,3.74-2.77,7-8.5,7a12.59,12.59,0,0,1-6.19-1.54Z" transform="translate(-116.63 -175.75)"/><path class="cls-5" d="M246.17,678.22l-2.52,7.63h-3.24l8.24-24.26h3.78l8.28,24.26h-3.35l-2.59-7.63Zm8-2.44-2.37-7c-.54-1.58-.9-3-1.26-4.42h-.08c-.36,1.43-.75,2.91-1.22,4.39l-2.38,7Z" transform="translate(-116.63 -175.75)"/><path class="cls-5" d="M264.27,661.59h3.14v21.64h10.36v2.62h-13.5Z" transform="translate(-116.63 -175.75)"/></g><g id="indgang"><path d="M744.48,1319.87v35.05H740v-35.05Z" transform="translate(-116.63 -175.75)"/><path d="M752.74,1336.56c0-2.6,0-4.73-.2-6.81h4.05l.26,4.16H757a9.25,9.25,0,0,1,8.32-4.73c3.48,0,8.89,2.08,8.89,10.71v15h-4.58v-14.51c0-4.05-1.51-7.44-5.82-7.44a6.71,6.71,0,0,0-6.45,6.82v15.13h-4.58Z" transform="translate(-116.63 -175.75)"/><path d="M803.34,1318v30.42c0,2.24,0,4.78.21,6.5h-4.11l-.21-4.37h-.1a9.31,9.31,0,0,1-8.58,4.94c-6.09,0-10.77-5.15-10.77-12.79,0-8.37,5.15-13.52,11.29-13.52,3.85,0,6.45,1.82,7.59,3.85h.1v-15Zm-4.58,22a8.38,8.38,0,0,0-.2-1.93,6.74,6.74,0,0,0-6.61-5.3c-4.73,0-7.54,4.16-7.54,9.72,0,5.1,2.5,9.31,7.44,9.31a6.89,6.89,0,0,0,6.71-5.46,8.26,8.26,0,0,0,.2-2Z" transform="translate(-116.63 -175.75)"/><path d="M832.62,1329.75c-.11,1.82-.21,3.85-.21,6.92v14.61c0,5.77-1.15,9.31-3.59,11.49s-6,3-9.15,3a16.29,16.29,0,0,1-8.38-2.08l1.15-3.49a14.16,14.16,0,0,0,7.38,2c4.68,0,8.12-2.44,8.12-8.79v-2.81h-.11a9,9,0,0,1-8,4.22c-6.24,0-10.71-5.31-10.71-12.28,0-8.52,5.56-13.36,11.34-13.36a8.38,8.38,0,0,1,7.85,4.37h.1l.21-3.8Zm-4.74,9.93a6.48,6.48,0,0,0-.26-2.08,6.59,6.59,0,0,0-6.39-4.83c-4.37,0-7.49,3.69-7.49,9.51,0,4.94,2.49,9,7.43,9a6.7,6.7,0,0,0,6.35-4.68,7.93,7.93,0,0,0,.36-2.44Z" transform="translate(-116.63 -175.75)"/><path d="M853.93,1354.92l-.36-3.17h-.16a9.37,9.37,0,0,1-7.69,3.74c-5.1,0-7.7-3.59-7.7-7.23,0-6.08,5.41-9.41,15.13-9.36v-.52c0-2.08-.57-5.82-5.72-5.82a12.57,12.57,0,0,0-6.55,1.87l-1-3a15.56,15.56,0,0,1,8.27-2.24c7.7,0,9.57,5.25,9.57,10.3v9.41a35.72,35.72,0,0,0,.41,6Zm-.67-12.84c-5-.11-10.66.78-10.66,5.66a4,4,0,0,0,4.31,4.37,6.27,6.27,0,0,0,6.09-4.21,5,5,0,0,0,.26-1.46Z" transform="translate(-116.63 -175.75)"/><path d="M865.06,1336.56c0-2.6,0-4.73-.21-6.81h4.06l.26,4.16h.1a9.26,9.26,0,0,1,8.32-4.73c3.49,0,8.9,2.08,8.9,10.71v15h-4.58v-14.51c0-4.05-1.51-7.44-5.82-7.44a6.71,6.71,0,0,0-6.45,6.82v15.13h-4.58Z" transform="translate(-116.63 -175.75)"/><path d="M915.61,1329.75c-.11,1.82-.21,3.85-.21,6.92v14.61c0,5.77-1.15,9.31-3.59,11.49s-6,3-9.15,3a16.23,16.23,0,0,1-8.37-2.08l1.14-3.49a14.16,14.16,0,0,0,7.38,2c4.68,0,8.12-2.44,8.12-8.79v-2.81h-.11a9,9,0,0,1-8,4.22c-6.24,0-10.71-5.31-10.71-12.28,0-8.52,5.57-13.36,11.34-13.36,4.37,0,6.76,2.29,7.85,4.37h.1l.21-3.8Zm-4.74,9.93a6.48,6.48,0,0,0-.26-2.08,6.58,6.58,0,0,0-6.39-4.83c-4.37,0-7.49,3.69-7.49,9.51,0,4.94,2.5,9,7.44,9a6.7,6.7,0,0,0,6.34-4.68,7.93,7.93,0,0,0,.36-2.44Z" transform="translate(-116.63 -175.75)"/><polygon points="815.71 1093.42 786.73 1104.89 811 1106.29 827.84 1119.67 815.71 1093.42"/><polygon points="828.71 1056.42 799.73 1067.89 824 1069.29 840.84 1082.67 828.71 1056.42"/><polygon points="841.71 1019.42 812.73 1030.89 837 1032.29 853.84 1045.67 841.71 1019.42"/></g><g id="sort4sal"><polygon class="cls-5" points="1579.99 130 827.37 130 911.95 0 1646.37 0 1579.99 130"/><polygon class="cls-2" points="1529.06 34.01 1529.09 34.2 1528.98 34.22 1523.28 54.74 1528.22 54.74 1533.98 34.01 1529.06 34.01"/><polygon class="cls-2" points="1534.73 40.32 1534.73 39.87 1534.88 39.87 1534.9 39.79 1534.17 35.01 1528.69 54.74 1530.75 54.74 1534.76 40.32 1534.73 40.32"/><polygon class="cls-2" points="1535.22 40.32 1531.22 54.74 1535.83 54.74 1539.84 40.32 1535.22 40.32"/><polygon class="cls-2" points="1540.03 41.32 1536.3 54.74 1538.36 54.74 1540.76 46.1 1540.03 41.32"/><polygon class="cls-2" points="1521.33 23.3 1512.64 54.57 1512.2 54.45 1521.14 22.29 1516.2 22.29 1503.92 54.68 1503.92 54.68 1515.8 22.05 1515.05 17.2 1497.03 54.68 1514.65 54.74 1522.06 28.07 1521.33 23.3"/><polygon class="cls-2" points="1527.86 29.16 1520.75 54.74 1522.81 54.74 1528.59 33.93 1527.86 29.16"/><polygon class="cls-2" points="1583.71 17.37 1515.35 16.21 1516.22 21.84 1521.43 21.84 1521.43 22.07 1521.65 22.13 1521.55 22.5 1521.66 22.48 1522.5 27.97 1522.55 27.98 1522.52 28.1 1522.56 28.34 1522.45 28.36 1515.12 54.74 1520.29 54.74 1527.67 28.15 1522.56 28.15 1522.56 27.7 1527.97 27.7 1527.97 27.93 1528.18 27.98 1528.08 28.36 1528.19 28.34 1528.99 33.56 1534.28 33.56 1534.28 33.78 1534.49 33.84 1534.39 34.22 1534.5 34.2 1535.34 39.69 1535.39 39.7 1535.36 39.82 1535.37 39.87 1540.13 39.87 1540.13 40.09 1540.35 40.15 1540.25 40.52 1540.36 40.51 1541.16 45.73 1546.44 45.73 1546.44 45.95 1546.66 46.01 1546.56 46.38 1546.67 46.37 1547.47 51.58 1552.75 51.58 1552.75 51.81 1552.97 51.87 1552.87 52.24 1552.97 52.23 1553.36 54.74 1564.76 55.25 1583.71 17.37"/><polygon class="cls-2" points="1541.23 46.18 1541.26 46.37 1541.15 46.38 1538.83 54.74 1543.77 54.74 1546.15 46.18 1541.23 46.18"/><polygon class="cls-2" points="1552.17 54.74 1552.9 54.74 1552.64 53.04 1552.17 54.74"/><polygon class="cls-2" points="1547.54 52.03 1547.57 52.23 1547.46 52.24 1546.77 54.74 1551.7 54.74 1552.46 52.03 1547.54 52.03"/><polygon class="cls-2" points="1546.34 47.18 1544.24 54.74 1546.3 54.74 1547.07 51.95 1546.34 47.18"/><polygon class="cls-3" points="1515.35 16.21 1515.35 16.17 1514.9 16.24 1515.05 17.2 1515.35 16.21 1515.35 16.21"/><polygon class="cls-3" points="1522.56 28.34 1522.52 28.1 1522.55 27.98 1522.5 27.97 1521.66 22.48 1521.55 22.5 1521.65 22.13 1521.43 22.07 1521.43 21.84 1516.22 21.84 1515.35 16.21 1515.35 16.21 1515.05 17.2 1515.8 22.05 1503.63 54.39 1503.63 54.39 1516.2 22.29 1521.14 22.29 1512.2 54.45 1512.64 54.57 1521.33 23.3 1522.06 28.07 1514.65 54.74 1515.12 54.74 1522.45 28.36 1522.56 28.34"/><polygon class="cls-3" points="1552.87 52.24 1552.97 51.87 1552.75 51.81 1552.75 51.58 1547.47 51.58 1546.67 46.37 1546.56 46.38 1546.66 46.01 1546.44 45.95 1546.44 45.73 1541.16 45.73 1540.36 40.51 1540.25 40.52 1540.35 40.15 1540.13 40.09 1540.13 39.87 1535.37 39.87 1535.36 39.82 1535.39 39.7 1535.34 39.69 1534.5 34.2 1534.39 34.22 1534.49 33.84 1534.28 33.78 1534.28 33.56 1528.99 33.56 1528.19 28.34 1528.08 28.36 1528.18 27.98 1527.97 27.93 1527.97 27.7 1522.56 27.7 1522.56 28.15 1527.67 28.15 1520.29 54.74 1520.75 54.74 1527.86 29.16 1528.59 33.93 1522.81 54.74 1523.28 54.74 1528.98 34.22 1529.09 34.2 1529.06 34.01 1533.98 34.01 1528.22 54.74 1528.69 54.74 1534.17 35.01 1534.9 39.79 1534.88 39.87 1534.73 39.87 1534.73 40.32 1534.76 40.32 1530.75 54.74 1531.22 54.74 1535.22 40.32 1539.84 40.32 1535.83 54.74 1536.3 54.74 1540.03 41.32 1540.76 46.1 1538.36 54.74 1538.83 54.74 1541.15 46.38 1541.26 46.37 1541.23 46.18 1546.15 46.18 1543.77 54.74 1544.24 54.74 1546.34 47.18 1547.07 51.95 1546.3 54.74 1546.77 54.74 1547.46 52.24 1547.57 52.23 1547.54 52.03 1552.46 52.03 1551.7 54.74 1552.17 54.74 1552.64 53.04 1552.9 54.74 1553.36 54.74 1552.97 52.23 1552.87 52.24"/><path class="cls-4" d="M1063.25,247.85v-6.37h-10.87V239.4l10.44-14.94h3.42V239h3.27v2.48h-3.27v6.37Zm0-8.85v-7.81c0-1.23,0-2.45.11-3.67h-.11c-.72,1.36-1.3,2.37-1.94,3.45l-5.73,8V239Z" transform="translate(-116.63 -175.75)"/><path class="cls-4" d="M1072.18,246a2.13,2.13,0,0,1,2.16-2.27,2.27,2.27,0,1,1-2.16,2.27Z" transform="translate(-116.63 -175.75)"/><path class="cls-4" d="M1087.69,244a11.17,11.17,0,0,0,5.62,1.58c3.2,0,5.07-1.69,5.07-4.14,0-2.26-1.29-3.56-4.57-4.82-4-1.4-6.4-3.46-6.4-6.87,0-3.79,3.13-6.59,7.84-6.59a10.94,10.94,0,0,1,5.37,1.19l-.87,2.55a9.67,9.67,0,0,0-4.6-1.15c-3.32,0-4.58,2-4.58,3.63,0,2.27,1.48,3.39,4.83,4.68,4.1,1.59,6.19,3.57,6.19,7.13,0,3.74-2.77,7-8.5,7a12.59,12.59,0,0,1-6.19-1.54Z" transform="translate(-116.63 -175.75)"/><path class="cls-4" d="M1109.8,240.22l-2.52,7.63H1104l8.24-24.26h3.78l8.28,24.26H1121l-2.59-7.63Zm8-2.44-2.37-7c-.54-1.58-.9-3-1.26-4.42H1114c-.35,1.43-.75,2.91-1.22,4.39l-2.37,7Z" transform="translate(-116.63 -175.75)"/><path class="cls-4" d="M1127.91,223.59H1131v21.64h10.36v2.62h-13.49Z" transform="translate(-116.63 -175.75)"/></g><g id="sort3sal"><polygon class="cls-5" points="1579.99 274.69 827.37 274.69 911.95 144.69 1646.37 144.69 1579.99 274.69"/><polygon class="cls-2" points="1529.06 178.7 1529.09 178.89 1528.98 178.9 1523.28 199.43 1528.22 199.43 1533.98 178.7 1529.06 178.7"/><polygon class="cls-2" points="1534.73 185 1534.73 184.55 1534.88 184.55 1534.9 184.48 1534.17 179.7 1528.69 199.43 1530.75 199.43 1534.76 185 1534.73 185"/><polygon class="cls-2" points="1535.22 185 1531.22 199.43 1535.83 199.43 1539.84 185 1535.22 185"/><polygon class="cls-2" points="1540.03 186.01 1536.3 199.43 1538.36 199.43 1540.76 190.78 1540.03 186.01"/><polygon class="cls-2" points="1521.33 167.99 1512.64 199.26 1512.2 199.14 1521.14 166.98 1516.2 166.98 1503.92 199.36 1503.92 199.36 1515.8 166.74 1515.05 161.88 1497.03 199.36 1514.65 199.43 1522.06 172.76 1521.33 167.99"/><polygon class="cls-2" points="1527.86 173.84 1520.75 199.43 1522.81 199.43 1528.59 178.62 1527.86 173.84"/><polygon class="cls-2" points="1583.71 162.05 1515.35 160.9 1516.22 166.53 1521.43 166.53 1521.43 166.75 1521.65 166.81 1521.55 167.19 1521.66 167.17 1522.5 172.66 1522.55 172.67 1522.52 172.79 1522.56 173.03 1522.45 173.04 1515.12 199.43 1520.29 199.43 1527.67 172.84 1522.56 172.84 1522.56 172.39 1527.97 172.39 1527.97 172.61 1528.18 172.67 1528.08 173.04 1528.19 173.03 1528.99 178.25 1534.28 178.25 1534.28 178.47 1534.49 178.53 1534.39 178.9 1534.5 178.89 1535.34 184.38 1535.39 184.39 1535.36 184.5 1535.37 184.55 1540.13 184.55 1540.13 184.78 1540.35 184.84 1540.25 185.21 1540.36 185.2 1541.16 190.41 1546.44 190.41 1546.44 190.64 1546.66 190.7 1546.56 191.07 1546.67 191.05 1547.47 196.27 1552.75 196.27 1552.75 196.5 1552.97 196.56 1552.87 196.93 1552.97 196.91 1553.36 199.43 1564.76 199.94 1583.71 162.05"/><polygon class="cls-2" points="1541.23 190.86 1541.26 191.05 1541.15 191.07 1538.83 199.43 1543.77 199.43 1546.15 190.86 1541.23 190.86"/><polygon class="cls-2" points="1552.17 199.43 1552.9 199.43 1552.64 197.73 1552.17 199.43"/><polygon class="cls-2" points="1547.54 196.72 1547.57 196.91 1547.46 196.93 1546.77 199.43 1551.7 199.43 1552.46 196.72 1547.54 196.72"/><polygon class="cls-2" points="1546.34 191.87 1544.24 199.43 1546.3 199.43 1547.07 196.64 1546.34 191.87"/><polygon class="cls-3" points="1515.35 160.9 1515.35 160.86 1514.9 160.93 1515.05 161.88 1515.35 160.9 1515.35 160.9"/><polygon class="cls-3" points="1522.56 173.03 1522.52 172.79 1522.55 172.67 1522.5 172.66 1521.66 167.17 1521.55 167.19 1521.65 166.81 1521.43 166.75 1521.43 166.53 1516.22 166.53 1515.35 160.9 1515.35 160.9 1515.05 161.88 1515.8 166.74 1503.63 199.08 1503.63 199.08 1516.2 166.98 1521.14 166.98 1512.2 199.14 1512.64 199.26 1521.33 167.99 1522.06 172.76 1514.65 199.43 1515.12 199.43 1522.45 173.04 1522.56 173.03"/><polygon class="cls-3" points="1552.87 196.93 1552.97 196.56 1552.75 196.5 1552.75 196.27 1547.47 196.27 1546.67 191.05 1546.56 191.07 1546.66 190.7 1546.44 190.64 1546.44 190.41 1541.16 190.41 1540.36 185.2 1540.25 185.21 1540.35 184.84 1540.13 184.78 1540.13 184.55 1535.37 184.55 1535.36 184.5 1535.39 184.39 1535.34 184.38 1534.5 178.89 1534.39 178.9 1534.49 178.53 1534.28 178.47 1534.28 178.25 1528.99 178.25 1528.19 173.03 1528.08 173.04 1528.18 172.67 1527.97 172.61 1527.97 172.39 1522.56 172.39 1522.56 172.84 1527.67 172.84 1520.29 199.43 1520.75 199.43 1527.86 173.84 1528.59 178.62 1522.81 199.43 1523.28 199.43 1528.98 178.9 1529.09 178.89 1529.06 178.7 1533.98 178.7 1528.22 199.43 1528.69 199.43 1534.17 179.7 1534.9 184.48 1534.88 184.55 1534.73 184.55 1534.73 185 1534.76 185 1530.75 199.43 1531.22 199.43 1535.22 185 1539.84 185 1535.83 199.43 1536.3 199.43 1540.03 186.01 1540.76 190.78 1538.36 199.43 1538.83 199.43 1541.15 191.07 1541.26 191.05 1541.23 190.86 1546.15 190.86 1543.77 199.43 1544.24 199.43 1546.34 191.87 1547.07 196.64 1546.3 199.43 1546.77 199.43 1547.46 196.93 1547.57 196.91 1547.54 196.72 1552.46 196.72 1551.7 199.43 1552.17 199.43 1552.64 197.73 1552.9 199.43 1553.36 199.43 1552.97 196.91 1552.87 196.93"/><path class="cls-4" d="M1054.22,392.91a10.63,10.63,0,0,0,5.18,1.47c4.07,0,5.33-2.59,5.29-4.53,0-3.28-3-4.68-6-4.68h-1.76v-2.38h1.76c2.31,0,5.22-1.19,5.22-4,0-1.87-1.19-3.53-4.1-3.53a8.61,8.61,0,0,0-4.68,1.55l-.83-2.3a11.14,11.14,0,0,1,6.12-1.8c4.61,0,6.7,2.73,6.7,5.58,0,2.41-1.44,4.46-4.32,5.51v.07a6.09,6.09,0,0,1,5.22,6c0,3.74-2.92,7-8.54,7a11.85,11.85,0,0,1-6.08-1.59Z" transform="translate(-116.63 -175.75)"/><path class="cls-4" d="M1072.18,394.67a2.13,2.13,0,0,1,2.16-2.27,2.27,2.27,0,1,1-2.16,2.27Z" transform="translate(-116.63 -175.75)"/><path class="cls-4" d="M1087.69,392.73a11.17,11.17,0,0,0,5.62,1.58c3.2,0,5.07-1.69,5.07-4.14,0-2.27-1.29-3.56-4.57-4.82-4-1.41-6.4-3.46-6.4-6.88,0-3.78,3.13-6.59,7.84-6.59a11.05,11.05,0,0,1,5.37,1.19l-.87,2.56a9.67,9.67,0,0,0-4.6-1.15c-3.32,0-4.58,2-4.58,3.63,0,2.27,1.48,3.39,4.83,4.68,4.1,1.59,6.19,3.57,6.19,7.13,0,3.74-2.77,7-8.5,7a12.48,12.48,0,0,1-6.19-1.55Z" transform="translate(-116.63 -175.75)"/><path class="cls-4" d="M1109.8,388.91l-2.52,7.63H1104l8.24-24.26h3.78l8.28,24.26H1121l-2.59-7.63Zm8-2.45-2.37-7c-.54-1.58-.9-3-1.26-4.43H1114c-.35,1.44-.75,2.92-1.22,4.39l-2.37,7Z" transform="translate(-116.63 -175.75)"/><path class="cls-4" d="M1127.91,372.28H1131v21.63h10.36v2.63h-13.49Z" transform="translate(-116.63 -175.75)"/></g><g id="sort1sal"><polygon class="cls-5" points="1579.99 564.06 827.37 564.06 911.95 434.06 1646.37 434.06 1579.99 564.06"/><polygon class="cls-2" points="1529.06 468.07 1529.09 468.26 1528.98 468.28 1523.28 488.8 1528.22 488.8 1533.98 468.07 1529.06 468.07"/><polygon class="cls-2" points="1534.73 474.38 1534.73 473.93 1534.88 473.93 1534.9 473.85 1534.17 469.08 1528.69 488.8 1530.75 488.8 1534.76 474.38 1534.73 474.38"/><polygon class="cls-2" points="1535.22 474.38 1531.22 488.8 1535.83 488.8 1539.84 474.38 1535.22 474.38"/><polygon class="cls-2" points="1540.03 475.38 1536.3 488.8 1538.36 488.8 1540.76 480.16 1540.03 475.38"/><polygon class="cls-2" points="1521.33 457.36 1512.64 488.63 1512.2 488.51 1521.14 456.35 1516.2 456.35 1503.92 488.74 1503.92 488.74 1515.8 456.12 1515.05 451.26 1497.03 488.74 1514.65 488.8 1522.06 462.13 1521.33 457.36"/><polygon class="cls-2" points="1527.86 463.22 1520.75 488.8 1522.81 488.8 1528.59 467.99 1527.86 463.22"/><polygon class="cls-2" points="1583.71 451.43 1515.35 450.27 1516.22 455.9 1521.43 455.9 1521.43 456.13 1521.65 456.19 1521.55 456.56 1521.66 456.55 1522.5 462.03 1522.55 462.05 1522.52 462.16 1522.56 462.4 1522.45 462.42 1515.12 488.8 1520.29 488.8 1527.67 462.21 1522.56 462.21 1522.56 461.76 1527.97 461.76 1527.97 461.99 1528.18 462.05 1528.08 462.42 1528.19 462.4 1528.99 467.62 1534.28 467.62 1534.28 467.85 1534.49 467.91 1534.39 468.28 1534.5 468.26 1535.34 473.75 1535.39 473.76 1535.36 473.88 1535.37 473.93 1540.13 473.93 1540.13 474.15 1540.35 474.21 1540.25 474.59 1540.36 474.57 1541.16 479.79 1546.44 479.79 1546.44 480.01 1546.66 480.07 1546.56 480.45 1546.67 480.43 1547.47 485.65 1552.75 485.65 1552.75 485.87 1552.97 485.93 1552.87 486.3 1552.97 486.29 1553.36 488.8 1564.76 489.31 1583.71 451.43"/><polygon class="cls-2" points="1541.23 480.24 1541.26 480.43 1541.15 480.45 1538.83 488.8 1543.77 488.8 1546.15 480.24 1541.23 480.24"/><polygon class="cls-2" points="1552.17 488.8 1552.9 488.8 1552.64 487.1 1552.17 488.8"/><polygon class="cls-2" points="1547.54 486.1 1547.57 486.29 1547.46 486.3 1546.77 488.8 1551.7 488.8 1552.46 486.1 1547.54 486.1"/><polygon class="cls-2" points="1546.34 481.24 1544.24 488.8 1546.3 488.8 1547.07 486.02 1546.34 481.24"/><polygon class="cls-3" points="1515.35 450.27 1515.35 450.24 1514.9 450.31 1515.05 451.26 1515.35 450.27 1515.35 450.27"/><polygon class="cls-3" points="1522.56 462.4 1522.52 462.16 1522.55 462.05 1522.5 462.03 1521.66 456.55 1521.55 456.56 1521.65 456.19 1521.43 456.13 1521.43 455.9 1516.22 455.9 1515.35 450.27 1515.35 450.27 1515.05 451.26 1515.8 456.12 1503.63 488.45 1503.63 488.45 1516.2 456.35 1521.14 456.35 1512.2 488.51 1512.64 488.63 1521.33 457.36 1522.06 462.13 1514.65 488.8 1515.12 488.8 1522.45 462.42 1522.56 462.4"/><polygon class="cls-3" points="1552.87 486.3 1552.97 485.93 1552.75 485.87 1552.75 485.65 1547.47 485.65 1546.67 480.43 1546.56 480.45 1546.66 480.07 1546.44 480.01 1546.44 479.79 1541.16 479.79 1540.36 474.57 1540.25 474.59 1540.35 474.21 1540.13 474.15 1540.13 473.93 1535.37 473.93 1535.36 473.88 1535.39 473.76 1535.34 473.75 1534.5 468.26 1534.39 468.28 1534.49 467.91 1534.28 467.85 1534.28 467.62 1528.99 467.62 1528.19 462.4 1528.08 462.42 1528.18 462.05 1527.97 461.99 1527.97 461.76 1522.56 461.76 1522.56 462.21 1527.67 462.21 1520.29 488.8 1520.75 488.8 1527.86 463.22 1528.59 467.99 1522.81 488.8 1523.28 488.8 1528.98 468.28 1529.09 468.26 1529.06 468.07 1533.98 468.07 1528.22 488.8 1528.69 488.8 1534.17 469.08 1534.9 473.85 1534.88 473.93 1534.73 473.93 1534.73 474.38 1534.76 474.38 1530.75 488.8 1531.22 488.8 1535.22 474.38 1539.84 474.38 1535.83 488.8 1536.3 488.8 1540.03 475.38 1540.76 480.16 1538.36 488.8 1538.83 488.8 1541.15 480.45 1541.26 480.43 1541.23 480.24 1546.15 480.24 1543.77 488.8 1544.24 488.8 1546.34 481.24 1547.07 486.02 1546.3 488.8 1546.77 488.8 1547.46 486.3 1547.57 486.29 1547.54 486.1 1552.46 486.1 1551.7 488.8 1552.17 488.8 1552.64 487.1 1552.9 488.8 1553.36 488.8 1552.97 486.29 1552.87 486.3"/><path class="cls-4" d="M1060.33,665.47h-.07l-4.06,2.2-.62-2.41,5.11-2.74h2.7v23.4h-3.06Z" transform="translate(-116.63 -175.75)"/><path class="cls-4" d="M1072.18,684a2.12,2.12,0,0,1,2.16-2.26,2.27,2.27,0,0,1,0,4.53A2.12,2.12,0,0,1,1072.18,684Z" transform="translate(-116.63 -175.75)"/><path class="cls-4" d="M1087.69,682.1a11.07,11.07,0,0,0,5.62,1.59c3.2,0,5.07-1.7,5.07-4.14,0-2.27-1.29-3.57-4.57-4.83-4-1.4-6.4-3.45-6.4-6.87,0-3.78,3.13-6.59,7.84-6.59a11.05,11.05,0,0,1,5.37,1.19l-.87,2.55a9.67,9.67,0,0,0-4.6-1.15c-3.32,0-4.58,2-4.58,3.64,0,2.26,1.48,3.38,4.83,4.68,4.1,1.58,6.19,3.56,6.19,7.12,0,3.75-2.77,7-8.5,7a12.59,12.59,0,0,1-6.19-1.55Z" transform="translate(-116.63 -175.75)"/><path class="cls-4" d="M1109.8,678.29l-2.52,7.63H1104l8.24-24.26h3.78l8.28,24.26H1121l-2.59-7.63Zm8-2.45-2.37-7c-.54-1.59-.9-3-1.26-4.43H1114c-.35,1.44-.75,2.91-1.22,4.39l-2.37,7Z" transform="translate(-116.63 -175.75)"/><path class="cls-4" d="M1127.91,661.66H1131v21.63h10.36v2.63h-13.49Z" transform="translate(-116.63 -175.75)"/></g><g id="bastard"><polygon class="cls-2" points="1567.87 708.75 1070.87 708.75 1149.87 578.75 1629.87 578.75 1567.87 708.75"/><polygon class="cls-2" points="1538.06 607.01 1538.09 607.2 1537.98 607.22 1532.28 627.74 1537.22 627.74 1542.98 607.01 1538.06 607.01"/><polygon class="cls-2" points="1543.73 613.32 1543.73 612.87 1543.88 612.87 1543.9 612.79 1543.17 608.01 1537.69 627.74 1539.75 627.74 1543.76 613.32 1543.73 613.32"/><polygon class="cls-2" points="1544.22 613.32 1540.22 627.74 1544.83 627.74 1548.84 613.32 1544.22 613.32"/><polygon class="cls-2" points="1549.03 614.32 1545.3 627.74 1547.36 627.74 1549.76 619.1 1549.03 614.32"/><polygon class="cls-2" points="1530.33 596.3 1521.64 627.57 1521.2 627.45 1530.14 595.29 1525.2 595.29 1512.92 627.68 1512.92 627.68 1524.8 595.05 1524.05 590.2 1506.03 627.68 1523.65 627.74 1531.06 601.07 1530.33 596.3"/><polygon class="cls-2" points="1536.86 602.15 1529.75 627.74 1531.81 627.74 1537.59 606.93 1536.86 602.15"/><polygon class="cls-2" points="1592.71 590.37 1524.35 589.21 1525.22 594.84 1530.43 594.84 1530.43 595.07 1530.65 595.13 1530.55 595.5 1530.66 595.48 1531.5 600.97 1531.55 600.99 1531.52 601.1 1531.56 601.34 1531.45 601.36 1524.12 627.74 1529.29 627.74 1536.67 601.15 1531.56 601.15 1531.56 600.7 1536.97 600.7 1536.97 600.92 1537.18 600.99 1537.08 601.36 1537.19 601.34 1537.99 606.56 1543.28 606.56 1543.28 606.78 1543.49 606.84 1543.39 607.22 1543.5 607.2 1544.34 612.69 1544.39 612.7 1544.36 612.82 1544.37 612.87 1549.13 612.87 1549.13 613.09 1549.35 613.15 1549.25 613.52 1549.36 613.51 1550.16 618.73 1555.44 618.73 1555.44 618.95 1555.66 619.01 1555.56 619.38 1555.67 619.37 1556.47 624.58 1561.75 624.58 1561.75 624.81 1561.97 624.87 1561.87 625.24 1561.97 625.23 1562.36 627.74 1573.76 628.25 1592.71 590.37"/><polygon class="cls-2" points="1550.23 619.18 1550.26 619.37 1550.15 619.38 1547.83 627.74 1552.77 627.74 1555.15 619.18 1550.23 619.18"/><polygon class="cls-2" points="1561.17 627.74 1561.9 627.74 1561.64 626.04 1561.17 627.74"/><polygon class="cls-2" points="1556.54 625.03 1556.57 625.23 1556.46 625.24 1555.77 627.74 1560.7 627.74 1561.46 625.03 1556.54 625.03"/><polygon class="cls-2" points="1555.34 620.18 1553.24 627.74 1555.3 627.74 1556.07 624.96 1555.34 620.18"/><polygon class="cls-3" points="1524.35 589.21 1524.35 589.17 1523.9 589.24 1524.05 590.2 1524.35 589.21 1524.35 589.21"/><polygon class="cls-3" points="1531.56 601.34 1531.52 601.1 1531.55 600.99 1531.5 600.97 1530.66 595.48 1530.55 595.5 1530.65 595.13 1530.43 595.07 1530.43 594.84 1525.22 594.84 1524.35 589.21 1524.35 589.21 1524.05 590.2 1524.8 595.05 1512.63 627.39 1512.63 627.39 1525.2 595.29 1530.14 595.29 1521.2 627.45 1521.64 627.57 1530.33 596.3 1531.06 601.07 1523.65 627.74 1524.12 627.74 1531.45 601.36 1531.56 601.34"/><polygon class="cls-3" points="1561.87 625.24 1561.97 624.87 1561.75 624.81 1561.75 624.58 1556.47 624.58 1555.67 619.37 1555.56 619.38 1555.66 619.01 1555.44 618.95 1555.44 618.73 1550.16 618.73 1549.36 613.51 1549.25 613.52 1549.35 613.15 1549.13 613.09 1549.13 612.87 1544.37 612.87 1544.36 612.82 1544.39 612.7 1544.34 612.69 1543.5 607.2 1543.39 607.22 1543.49 606.84 1543.28 606.78 1543.28 606.56 1537.99 606.56 1537.19 601.34 1537.08 601.36 1537.18 600.99 1536.97 600.92 1536.97 600.7 1531.56 600.7 1531.56 601.15 1536.67 601.15 1529.29 627.74 1529.75 627.74 1536.86 602.15 1537.59 606.93 1531.81 627.74 1532.28 627.74 1537.98 607.22 1538.09 607.2 1538.06 607.01 1542.98 607.01 1537.22 627.74 1537.69 627.74 1543.17 608.01 1543.9 612.79 1543.88 612.87 1543.73 612.87 1543.73 613.32 1543.76 613.32 1539.75 627.74 1540.22 627.74 1544.22 613.32 1548.84 613.32 1544.83 627.74 1545.3 627.74 1549.03 614.32 1549.76 619.1 1547.36 627.74 1547.83 627.74 1550.15 619.38 1550.26 619.37 1550.23 619.18 1555.15 619.18 1552.77 627.74 1553.24 627.74 1555.34 620.18 1556.07 624.96 1555.3 627.74 1555.77 627.74 1556.46 625.24 1556.57 625.23 1556.54 625.03 1561.46 625.03 1560.7 627.74 1561.17 627.74 1561.64 626.04 1561.9 627.74 1562.36 627.74 1561.97 625.23 1561.87 625.24"/><path class="cls-5" d="M1264.27,823.58a26.7,26.7,0,0,1,5.09-.45c2.78,0,4.57.48,5.92,1.57a4.51,4.51,0,0,1,1.79,3.8,5.12,5.12,0,0,1-3.65,4.74v.06a5.57,5.57,0,0,1,4.45,5.41,5.84,5.84,0,0,1-1.82,4.32c-1.51,1.38-3.94,2-7.46,2a32.08,32.08,0,0,1-4.32-.26Zm2.79,8.83h2.52c3,0,4.67-1.54,4.67-3.62,0-2.53-1.92-3.52-4.73-3.52a12.34,12.34,0,0,0-2.46.19Zm0,10.33a14.26,14.26,0,0,0,2.33.13c2.88,0,5.54-1.06,5.54-4.19,0-2.94-2.53-4.16-5.57-4.16h-2.3Z" transform="translate(-116.63 -175.75)"/><path class="cls-5" d="M1285.1,838.07l-2.24,6.78H1280l7.33-21.56h3.36l7.36,21.56h-3l-2.3-6.78Zm7.07-2.17-2.11-6.21c-.48-1.41-.8-2.69-1.12-3.94h-.06c-.32,1.28-.67,2.59-1.09,3.91l-2.11,6.24Z" transform="translate(-116.63 -175.75)"/><path class="cls-5" d="M1300.82,841.46a9.82,9.82,0,0,0,5,1.41c2.85,0,4.51-1.5,4.51-3.68,0-2-1.15-3.17-4.07-4.29-3.51-1.24-5.69-3.07-5.69-6.11,0-3.36,2.78-5.85,7-5.85a9.84,9.84,0,0,1,4.76,1l-.77,2.27a8.61,8.61,0,0,0-4.09-1c-2.94,0-4.06,1.76-4.06,3.23,0,2,1.31,3,4.28,4.16,3.65,1.41,5.51,3.17,5.51,6.34s-2.47,6.2-7.55,6.2a11.15,11.15,0,0,1-5.51-1.37Z" transform="translate(-116.63 -175.75)"/><path class="cls-5" d="M1321.07,825.66h-6.56v-2.37h16v2.37h-6.59v19.19h-2.82Z" transform="translate(-116.63 -175.75)"/><path class="cls-5" d="M1334,838.07l-2.24,6.78h-2.88l7.32-21.56h3.36l7.36,21.56h-3l-2.31-6.78Zm7.07-2.17-2.11-6.21c-.48-1.41-.8-2.69-1.12-3.94h-.07c-.32,1.28-.67,2.59-1.09,3.91l-2.11,6.24Z" transform="translate(-116.63 -175.75)"/><path class="cls-5" d="M1350.06,823.58a28.9,28.9,0,0,1,5.35-.45c3,0,4.89.54,6.24,1.76a5.39,5.39,0,0,1,1.69,4.09,5.67,5.67,0,0,1-4.06,5.51v.09c1.66.58,2.65,2.12,3.17,4.35a33.77,33.77,0,0,0,1.66,5.92h-2.88a28,28,0,0,1-1.44-5.15c-.64-3-1.79-4.09-4.32-4.19h-2.62v9.34h-2.79Zm2.79,9.82h2.84c3,0,4.87-1.63,4.87-4.1,0-2.78-2-4-5-4a11.17,11.17,0,0,0-2.75.26Z" transform="translate(-116.63 -175.75)"/><path class="cls-5" d="M1367.28,823.58a39.35,39.35,0,0,1,5.92-.45c4,0,6.85.93,8.73,2.69a9.92,9.92,0,0,1,3,7.74,11.37,11.37,0,0,1-3.1,8.38c-2,2-5.34,3.11-9.54,3.11a44.8,44.8,0,0,1-5-.26Zm2.78,19.07a18.66,18.66,0,0,0,2.82.16c5.95,0,9.18-3.33,9.18-9.15,0-5.09-2.85-8.32-8.73-8.32a16,16,0,0,0-3.27.28Z" transform="translate(-116.63 -175.75)"/><path class="cls-5" d="M1410.45,844.15a13.93,13.93,0,0,1-5.7,1c-6.08,0-10.66-3.84-10.66-10.91,0-6.75,4.58-11.32,11.27-11.32a11.52,11.52,0,0,1,5.12,1l-.68,2.27a10.11,10.11,0,0,0-4.35-.9c-5,0-8.41,3.23-8.41,8.9,0,5.28,3,8.67,8.29,8.67a11,11,0,0,0,4.54-.9Z" transform="translate(-116.63 -175.75)"/><path class="cls-5" d="M1417.55,838.07l-2.24,6.78h-2.88l7.33-21.56h3.36l7.36,21.56h-3l-2.3-6.78Zm7.07-2.17-2.11-6.21c-.48-1.41-.8-2.69-1.12-3.94h-.06c-.33,1.28-.68,2.59-1.09,3.91l-2.11,6.24Z" transform="translate(-116.63 -175.75)"/><path class="cls-5" d="M1433.65,823.29h11.61v2.33h-8.83v7.17h8.16v2.3h-8.16v9.76h-2.78Z" transform="translate(-116.63 -175.75)"/><path class="cls-5" d="M1460.4,834.74H1452v7.78h9.35v2.33h-12.13V823.29h11.65v2.33H1452v6.82h8.39Zm-.55-16.35-4.06,3.75h-2.3l3-3.75Z" transform="translate(-116.63 -175.75)"/><path class="cls-5" d="M1476.14,834.74h-8.38v7.78h9.34v2.33H1465V823.29h11.65v2.33h-8.86v6.82h8.38Z" transform="translate(-116.63 -175.75)"/><path class="cls-5" d="M1480.72,844.85V823.29h3l6.91,10.91a60.43,60.43,0,0,1,3.87,7l.06,0c-.25-2.88-.32-5.5-.32-8.86v-9h2.63v21.56h-2.82l-6.85-10.94a69.12,69.12,0,0,1-4-7.2l-.09,0c.16,2.72.22,5.32.22,8.9v9.21Z" transform="translate(-116.63 -175.75)"/></g><g id="gaarden"><polygon class="cls-2" points="1054.87 855.75 606.37 855.75 690.31 725.75 1115.87 725.75 1054.87 855.75"/><path class="cls-5" d="M894,973.77a22.35,22.35,0,0,1-7.45,1.34c-3.67,0-6.7-.94-9.07-3.21a12.45,12.45,0,0,1-3.38-9c0-7.24,5-12.53,13.13-12.53a14.87,14.87,0,0,1,6.05,1.12l-.75,2.55a12.72,12.72,0,0,0-5.37-1c-5.9,0-9.75,3.67-9.75,9.75s3.71,9.79,9.36,9.79a10.22,10.22,0,0,0,4.17-.64v-7.24h-4.93v-2.52h8Z" transform="translate(-116.63 -175.75)"/><path class="cls-5" d="M902.75,967.22l-2.51,7.63H897l8.24-24.26H909l8.28,24.26H914l-2.59-7.63Zm8-2.44-2.38-7c-.54-1.58-.9-3-1.26-4.42H907c-.36,1.43-.75,2.91-1.22,4.39l-2.38,7Zm0-18.29a3.6,3.6,0,1,1-3.57-3.24A3.27,3.27,0,0,1,910.75,946.49Zm-5.33,0a1.79,1.79,0,0,0,1.73,1.83,1.91,1.91,0,0,0,0-3.81A1.79,1.79,0,0,0,905.42,946.53Z" transform="translate(-116.63 -175.75)"/><path class="cls-5" d="M920.86,950.92a32.13,32.13,0,0,1,6-.51c3.34,0,5.5.62,7,2A6,6,0,0,1,935.8,957a6.36,6.36,0,0,1-4.57,6.19v.11c1.87.65,3,2.38,3.56,4.9a38.3,38.3,0,0,0,1.88,6.65h-3.24a30.65,30.65,0,0,1-1.62-5.79c-.72-3.35-2-4.61-4.86-4.72h-3v10.51h-3.14ZM924,962h3.2c3.35,0,5.47-1.84,5.47-4.61,0-3.13-2.27-4.5-5.58-4.53a13.16,13.16,0,0,0-3.09.28Z" transform="translate(-116.63 -175.75)"/><path class="cls-5" d="M940.23,950.92a44.6,44.6,0,0,1,6.66-.51c4.5,0,7.7,1.05,9.83,3s3.42,4.78,3.42,8.71-1.23,7.2-3.5,9.43-6,3.49-10.72,3.49a50.51,50.51,0,0,1-5.69-.29Zm3.13,21.45a20.3,20.3,0,0,0,3.17.18c6.7,0,10.33-3.74,10.33-10.29,0-5.73-3.2-9.36-9.83-9.36a17.84,17.84,0,0,0-3.67.32Z" transform="translate(-116.63 -175.75)"/><path class="cls-5" d="M967.34,950.59v10.15h11.73V950.59h3.17v24.26h-3.17V963.48H967.34v11.37h-3.13V950.59Z" transform="translate(-116.63 -175.75)"/><path class="cls-5" d="M991.6,967.22l-2.52,7.63h-3.24l8.24-24.26h3.79l8.27,24.26h-3.34l-2.6-7.63Zm8-2.44-2.38-7c-.54-1.58-.9-3-1.26-4.42h-.07c-.36,1.43-.76,2.91-1.22,4.39l-2.38,7Z" transform="translate(-116.63 -175.75)"/><path class="cls-5" d="M1013.13,974.85l-7.92-24.26h3.38l3.78,11.95c1,3.28,2,6.23,2.59,9.08h.08c.68-2.81,1.69-5.87,2.77-9l4.1-12h3.35l-8.68,24.26Z" transform="translate(-116.63 -175.75)"/><path class="cls-5" d="M1040.45,963.48H1031v8.75h10.51v2.62h-13.64V950.59H1041v2.63h-10v7.67h9.43Z" transform="translate(-116.63 -175.75)"/><path class="cls-5" d="M1045.6,974.85V950.59H1049l7.78,12.28a68.24,68.24,0,0,1,4.35,7.88l.07,0c-.28-3.23-.36-6.19-.36-10V950.59h3v24.26h-3.17l-7.7-12.31a75.63,75.63,0,0,1-4.54-8.09l-.11,0c.18,3.06.25,6,.25,10v10.36Z" transform="translate(-116.63 -175.75)"/></g><g id="bygning"><polygon class="cls-2" points="1558.87 1051.75 1034.87 1054.75 1183.87 725.75 1183.48 725.75 1307.87 725.75 1239.87 881.75 1622.87 879.75 1558.87 1051.75"/></g><g id="sort2sal"><polygon class="cls-5" points="1579.99 419.38 827.37 419.38 911.95 289.38 1646.37 289.38 1579.99 419.38"/><polygon class="cls-2" points="1529.06 323.38 1529.09 323.57 1528.98 323.59 1523.28 344.11 1528.22 344.11 1533.98 323.38 1529.06 323.38"/><polygon class="cls-2" points="1534.73 329.69 1534.73 329.24 1534.88 329.24 1534.9 329.16 1534.17 324.39 1528.69 344.11 1530.75 344.11 1534.76 329.69 1534.73 329.69"/><polygon class="cls-2" points="1535.22 329.69 1531.22 344.11 1535.83 344.11 1539.84 329.69 1535.22 329.69"/><polygon class="cls-2" points="1540.03 330.7 1536.3 344.11 1538.36 344.11 1540.76 335.47 1540.03 330.7"/><polygon class="cls-2" points="1521.33 312.67 1512.64 343.95 1512.2 343.83 1521.14 311.67 1516.2 311.67 1503.92 344.05 1503.92 344.05 1515.8 311.43 1515.05 306.57 1497.03 344.05 1514.65 344.11 1522.06 317.45 1521.33 312.67"/><polygon class="cls-2" points="1527.86 318.53 1520.75 344.11 1522.81 344.11 1528.59 323.31 1527.86 318.53"/><polygon class="cls-2" points="1583.71 306.74 1515.35 305.58 1516.22 311.22 1521.43 311.22 1521.43 311.44 1521.65 311.5 1521.55 311.88 1521.66 311.86 1522.5 317.35 1522.55 317.36 1522.52 317.47 1522.56 317.72 1522.45 317.73 1515.12 344.11 1520.29 344.11 1527.67 317.52 1522.56 317.52 1522.56 317.07 1527.97 317.07 1527.97 317.3 1528.18 317.36 1528.08 317.73 1528.19 317.72 1528.99 322.93 1534.28 322.93 1534.28 323.16 1534.49 323.22 1534.39 323.59 1534.5 323.57 1535.34 329.06 1535.39 329.08 1535.36 329.19 1535.37 329.24 1540.13 329.24 1540.13 329.47 1540.35 329.53 1540.25 329.9 1540.36 329.88 1541.16 335.1 1546.44 335.1 1546.44 335.32 1546.66 335.39 1546.56 335.76 1546.67 335.74 1547.47 340.96 1552.75 340.96 1552.75 341.18 1552.97 341.24 1552.87 341.62 1552.97 341.6 1553.36 344.11 1564.76 344.63 1583.71 306.74"/><polygon class="cls-2" points="1541.23 335.55 1541.26 335.74 1541.15 335.76 1538.83 344.11 1543.77 344.11 1546.15 335.55 1541.23 335.55"/><polygon class="cls-2" points="1552.17 344.11 1552.9 344.11 1552.64 342.41 1552.17 344.11"/><polygon class="cls-2" points="1547.54 341.41 1547.57 341.6 1547.46 341.62 1546.77 344.11 1551.7 344.11 1552.46 341.41 1547.54 341.41"/><polygon class="cls-2" points="1546.34 336.56 1544.24 344.11 1546.3 344.11 1547.07 341.33 1546.34 336.56"/><polygon class="cls-3" points="1515.35 305.58 1515.35 305.55 1514.9 305.62 1515.05 306.57 1515.35 305.58 1515.35 305.58"/><polygon class="cls-3" points="1522.56 317.72 1522.52 317.47 1522.55 317.36 1522.5 317.35 1521.66 311.86 1521.55 311.88 1521.65 311.5 1521.43 311.44 1521.43 311.22 1516.22 311.22 1515.35 305.58 1515.35 305.58 1515.05 306.57 1515.8 311.43 1503.63 343.76 1503.63 343.76 1516.2 311.67 1521.14 311.67 1512.2 343.83 1512.64 343.95 1521.33 312.67 1522.06 317.45 1514.65 344.11 1515.12 344.11 1522.45 317.73 1522.56 317.72"/><polygon class="cls-3" points="1552.87 341.62 1552.97 341.24 1552.75 341.18 1552.75 340.96 1547.47 340.96 1546.67 335.74 1546.56 335.76 1546.66 335.39 1546.44 335.32 1546.44 335.1 1541.16 335.1 1540.36 329.88 1540.25 329.9 1540.35 329.53 1540.13 329.47 1540.13 329.24 1535.37 329.24 1535.36 329.19 1535.39 329.08 1535.34 329.06 1534.5 323.57 1534.39 323.59 1534.49 323.22 1534.28 323.16 1534.28 322.93 1528.99 322.93 1528.19 317.72 1528.08 317.73 1528.18 317.36 1527.97 317.3 1527.97 317.07 1522.56 317.07 1522.56 317.52 1527.67 317.52 1520.29 344.11 1520.75 344.11 1527.86 318.53 1528.59 323.31 1522.81 344.11 1523.28 344.11 1528.98 323.59 1529.09 323.57 1529.06 323.38 1533.98 323.38 1528.22 344.11 1528.69 344.11 1534.17 324.39 1534.9 329.16 1534.88 329.24 1534.73 329.24 1534.73 329.69 1534.76 329.69 1530.75 344.11 1531.22 344.11 1535.22 329.69 1539.84 329.69 1535.83 344.11 1536.3 344.11 1540.03 330.7 1540.76 335.47 1538.36 344.11 1538.83 344.11 1541.15 335.76 1541.26 335.74 1541.23 335.55 1546.15 335.55 1543.77 344.11 1544.24 344.11 1546.34 336.56 1547.07 341.33 1546.3 344.11 1546.77 344.11 1547.46 341.62 1547.57 341.6 1547.54 341.41 1552.46 341.41 1551.7 344.11 1552.17 344.11 1552.64 342.41 1552.9 344.11 1553.36 344.11 1552.97 341.6 1552.87 341.62"/><path class="cls-4" d="M1053.46,540.23v-1.94l2.48-2.42c6-5.68,8.68-8.71,8.71-12.23,0-2.38-1.15-4.58-4.64-4.58a8,8,0,0,0-5,2l-1-2.23a10.24,10.24,0,0,1,6.62-2.37c5,0,7.16,3.45,7.16,6.8,0,4.32-3.13,7.81-8.06,12.56l-1.87,1.73v.07h10.51v2.63Z" transform="translate(-116.63 -175.75)"/><path class="cls-4" d="M1072.18,538.36a2.13,2.13,0,0,1,2.16-2.27,2.27,2.27,0,0,1,0,4.54A2.12,2.12,0,0,1,1072.18,538.36Z" transform="translate(-116.63 -175.75)"/><path class="cls-4" d="M1087.69,536.41a11.07,11.07,0,0,0,5.62,1.59c3.2,0,5.07-1.69,5.07-4.14,0-2.27-1.29-3.57-4.57-4.82-4-1.41-6.4-3.46-6.4-6.88,0-3.78,3.13-6.59,7.84-6.59a11.05,11.05,0,0,1,5.37,1.19l-.87,2.56a9.53,9.53,0,0,0-4.6-1.16c-3.32,0-4.58,2-4.58,3.64,0,2.27,1.48,3.38,4.83,4.68,4.1,1.58,6.19,3.56,6.19,7.13,0,3.74-2.77,7-8.5,7a12.48,12.48,0,0,1-6.19-1.55Z" transform="translate(-116.63 -175.75)"/><path class="cls-4" d="M1109.8,532.6l-2.52,7.63H1104l8.24-24.26h3.78l8.28,24.26H1121l-2.59-7.63Zm8-2.45-2.37-7c-.54-1.59-.9-3-1.26-4.43H1114c-.35,1.44-.75,2.92-1.22,4.39l-2.37,7Z" transform="translate(-116.63 -175.75)"/><path class="cls-4" d="M1127.91,516H1131V537.6h10.36v2.63h-13.49Z" transform="translate(-116.63 -175.75)"/><path class="cls-6" d="M1335.47,247l-3.19-5.51c-1.29-2.11-2.11-3.48-2.88-4.92h-.08c-.7,1.44-1.4,2.77-2.7,5l-3,5.48h-3.7l7.62-12.62-7.33-12.32H1324l3.29,5.85c.93,1.62,1.63,2.88,2.3,4.22h.11c.7-1.48,1.33-2.63,2.25-4.22l3.41-5.85h3.7l-7.59,12.14,7.77,12.8Z" transform="translate(-116.63 -175.75)"/><path class="cls-6" d="M1344.23,238.64c.08,4.4,2.89,6.21,6.15,6.21a11.76,11.76,0,0,0,5-.92l.55,2.33a14.5,14.5,0,0,1-6,1.11c-5.51,0-8.8-3.63-8.8-9s3.18-9.66,8.4-9.66c5.84,0,7.4,5.15,7.4,8.44a14,14,0,0,1-.11,1.52Zm9.55-2.33c0-2.08-.85-5.3-4.51-5.3-3.3,0-4.74,3-5,5.3Z" transform="translate(-116.63 -175.75)"/><path class="cls-6" d="M1361,233.94c0-1.85,0-3.37-.15-4.85h2.89l.18,3h.08a6.58,6.58,0,0,1,5.92-3.37c2.48,0,6.32,1.48,6.32,7.63V247H1373V236.68c0-2.89-1.08-5.3-4.15-5.3a4.62,4.62,0,0,0-4.36,3.34,4.57,4.57,0,0,0-.23,1.51V247H1361Z" transform="translate(-116.63 -175.75)"/><path class="cls-6" d="M1397.7,237.9c0,6.62-4.59,9.51-8.92,9.51-4.84,0-8.58-3.56-8.58-9.22,0-6,3.92-9.51,8.88-9.51C1394.22,228.68,1397.7,232.42,1397.7,237.9Zm-14.21.18c0,3.92,2.26,6.88,5.44,6.88s5.44-2.92,5.44-7c0-3-1.52-6.88-5.37-6.88S1383.49,234.68,1383.49,238.08Z" transform="translate(-116.63 -175.75)"/><path class="cls-6" d="M1401.81,233.94c0-1.85,0-3.37-.15-4.85h2.88l.19,3h.07a6.59,6.59,0,0,1,5.92-3.37c2.48,0,6.33,1.48,6.33,7.63V247h-3.26V236.68c0-2.89-1.07-5.3-4.14-5.3a4.63,4.63,0,0,0-4.37,3.34,4.86,4.86,0,0,0-.22,1.51V247h-3.25Z" transform="translate(-116.63 -175.75)"/><path class="cls-5" d="M348.55,663.8H341v-2.74h18.47v2.74H351.8V686h-3.25Z" transform="translate(-116.63 -175.75)"/><path class="cls-5" d="M361.28,677.64c.07,4.4,2.88,6.21,6.14,6.21a11.76,11.76,0,0,0,5-.92l.55,2.33a14.5,14.5,0,0,1-6,1.11c-5.51,0-8.8-3.63-8.8-9s3.18-9.66,8.4-9.66c5.84,0,7.4,5.15,7.4,8.44a14,14,0,0,1-.11,1.52Zm9.54-2.33c0-2.08-.85-5.3-4.51-5.3-3.29,0-4.74,3-5,5.3Z" transform="translate(-116.63 -175.75)"/><path class="cls-5" d="M387.92,686l-.26-2.26h-.11a6.68,6.68,0,0,1-5.48,2.67,5.11,5.11,0,0,1-5.48-5.15c0-4.33,3.85-6.69,10.77-6.66v-.37c0-1.48-.41-4.14-4.07-4.14a9,9,0,0,0-4.66,1.33l-.74-2.15a11.11,11.11,0,0,1,5.88-1.59c5.48,0,6.81,3.74,6.81,7.33v6.7a24.39,24.39,0,0,0,.3,4.29Zm-.48-9.14c-3.56-.07-7.59.56-7.59,4a2.88,2.88,0,0,0,3.07,3.11,4.46,4.46,0,0,0,4.33-3,3.4,3.4,0,0,0,.19-1Z" transform="translate(-116.63 -175.75)"/><path class="cls-5" d="M399.61,663v5.14h4.66v2.48h-4.66v9.66c0,2.22.63,3.48,2.44,3.48a7.27,7.27,0,0,0,1.89-.23l.14,2.45a7.88,7.88,0,0,1-2.88.44,4.52,4.52,0,0,1-3.52-1.37c-.92-1-1.25-2.55-1.25-4.66v-9.77h-2.78v-2.48h2.78V663.8Z" transform="translate(-116.63 -175.75)"/><path class="cls-5" d="M409.52,677.64c.08,4.4,2.89,6.21,6.15,6.21a11.71,11.71,0,0,0,4.95-.92l.56,2.33a14.5,14.5,0,0,1-6,1.11c-5.51,0-8.8-3.63-8.8-9s3.18-9.66,8.39-9.66c5.85,0,7.41,5.15,7.41,8.44a11.48,11.48,0,0,1-.12,1.52Zm9.55-2.33c0-2.08-.85-5.3-4.51-5.3-3.3,0-4.74,3-5,5.3Z" transform="translate(-116.63 -175.75)"/><path class="cls-5" d="M426.25,673.68c0-2.11,0-3.92-.15-5.59H429l.11,3.52h.15a5.37,5.37,0,0,1,5-3.93,3.68,3.68,0,0,1,.92.11v3.08a4.54,4.54,0,0,0-1.11-.12c-2.29,0-3.92,1.74-4.37,4.19a9.59,9.59,0,0,0-.14,1.51V686h-3.22Z" transform="translate(-116.63 -175.75)"/><path class="cls-5" d="M343.81,997.39a33.88,33.88,0,0,1,6.18-.51c3.44,0,5.66.62,7.22,2a6.2,6.2,0,0,1,2,4.74,6.54,6.54,0,0,1-4.7,6.36v.11c1.92.67,3.07,2.44,3.66,5a39.88,39.88,0,0,0,1.93,6.85h-3.33a31.6,31.6,0,0,1-1.67-6c-.74-3.44-2.07-4.73-5-4.84h-3V1022h-3.22Zm3.22,11.36h3.29c3.45,0,5.63-1.88,5.63-4.73,0-3.22-2.33-4.63-5.74-4.67a13.09,13.09,0,0,0-3.18.3Z" transform="translate(-116.63 -175.75)"/><path class="cls-5" d="M365.57,1013.64c.07,4.4,2.88,6.21,6.14,6.21a11.76,11.76,0,0,0,5-.92l.55,2.33a14.4,14.4,0,0,1-6,1.11c-5.52,0-8.81-3.63-8.81-9s3.18-9.66,8.4-9.66c5.85,0,7.4,5.15,7.4,8.44a11.85,11.85,0,0,1-.11,1.52Zm9.54-2.33c0-2.08-.85-5.3-4.51-5.3-3.29,0-4.74,3-5,5.3Z" transform="translate(-116.63 -175.75)"/><path class="cls-5" d="M395.06,1021.33a11.9,11.9,0,0,1-5.15,1c-5.4,0-8.91-3.66-8.91-9.14s3.77-9.51,9.62-9.51a10.78,10.78,0,0,1,4.51.93l-.74,2.51a7.6,7.6,0,0,0-3.77-.85c-4.11,0-6.33,3-6.33,6.77,0,4.15,2.66,6.7,6.22,6.7a9.15,9.15,0,0,0,4-.89Z" transform="translate(-116.63 -175.75)"/><path class="cls-5" d="M400.46,1013.64c.07,4.4,2.88,6.21,6.14,6.21a11.76,11.76,0,0,0,5-.92l.55,2.33a14.4,14.4,0,0,1-5.95,1.11c-5.52,0-8.81-3.63-8.81-9s3.18-9.66,8.4-9.66c5.85,0,7.4,5.15,7.4,8.44a11.85,11.85,0,0,1-.11,1.52Zm9.55-2.33c0-2.08-.86-5.3-4.52-5.3-3.29,0-4.74,3-5,5.3Z" transform="translate(-116.63 -175.75)"/><path class="cls-5" d="M417.18,1009.94c0-2.3-.07-4.15-.15-5.85H420l.15,3.07h.07a7,7,0,0,1,6.36-3.48c4.33,0,7.59,3.67,7.59,9.11,0,6.43-3.92,9.62-8.14,9.62a6.27,6.27,0,0,1-5.51-2.82h-.08v9.74h-3.22Zm3.22,4.77a7.61,7.61,0,0,0,.15,1.33,5,5,0,0,0,4.88,3.81c3.45,0,5.44-2.81,5.44-6.92,0-3.58-1.88-6.66-5.33-6.66a5.2,5.2,0,0,0-4.92,4,5.29,5.29,0,0,0-.22,1.33Z" transform="translate(-116.63 -175.75)"/><path class="cls-5" d="M442.16,999v5.14h4.66v2.48h-4.66v9.66c0,2.22.63,3.48,2.44,3.48a7.27,7.27,0,0,0,1.89-.23l.14,2.45a7.88,7.88,0,0,1-2.88.44,4.52,4.52,0,0,1-3.52-1.37c-.92-1-1.25-2.55-1.25-4.66v-9.77H436.2v-2.48H439V999.8Z" transform="translate(-116.63 -175.75)"/><path class="cls-5" d="M454.11,999.06a2,2,0,0,1-4,0,2,2,0,0,1,2-2A1.94,1.94,0,0,1,454.11,999.06ZM450.48,1022v-17.91h3.26V1022Z" transform="translate(-116.63 -175.75)"/><path class="cls-5" d="M475.35,1012.9c0,6.62-4.59,9.51-8.92,9.51-4.85,0-8.59-3.55-8.59-9.22,0-6,3.93-9.51,8.88-9.51C471.87,1003.68,475.35,1007.42,475.35,1012.9Zm-14.21.18c0,3.92,2.25,6.88,5.44,6.88s5.44-2.92,5.44-7c0-3-1.52-6.88-5.37-6.88S461.14,1009.68,461.14,1013.08Z" transform="translate(-116.63 -175.75)"/><path class="cls-5" d="M479.45,1008.94c0-1.85,0-3.37-.15-4.85h2.89l.19,3h.07a6.59,6.59,0,0,1,5.92-3.37c2.48,0,6.33,1.48,6.33,7.63V1022h-3.26v-10.32c0-2.89-1.07-5.3-4.14-5.3a4.64,4.64,0,0,0-4.37,3.33,4.68,4.68,0,0,0-.22,1.52V1022h-3.26Z" transform="translate(-116.63 -175.75)"/><path class="cls-6" d="M483.37,845.08a11.37,11.37,0,0,0,5.77,1.63c3.29,0,5.22-1.74,5.22-4.26,0-2.33-1.33-3.66-4.7-5-4.07-1.44-6.59-3.55-6.59-7.07,0-3.88,3.22-6.77,8.07-6.77a11.43,11.43,0,0,1,5.51,1.22l-.89,2.63a10,10,0,0,0-4.73-1.18c-3.41,0-4.7,2-4.7,3.73,0,2.34,1.52,3.48,5,4.82,4.21,1.62,6.36,3.66,6.36,7.32,0,3.85-2.85,7.18-8.73,7.18a12.9,12.9,0,0,1-6.37-1.59Z" transform="translate(-116.63 -175.75)"/><path class="cls-6" d="M512,849l-.26-2.26h-.11a6.66,6.66,0,0,1-5.48,2.67,5.11,5.11,0,0,1-5.47-5.15c0-4.33,3.85-6.69,10.76-6.66v-.37c0-1.48-.4-4.14-4.07-4.14a9,9,0,0,0-4.66,1.33l-.74-2.15a11.15,11.15,0,0,1,5.89-1.59c5.47,0,6.8,3.74,6.8,7.33v6.7a25.39,25.39,0,0,0,.3,4.29Zm-.48-9.14c-3.55-.07-7.59.56-7.59,4A2.88,2.88,0,0,0,507,847a4.44,4.44,0,0,0,4.33-3,3.4,3.4,0,0,0,.19-1Z" transform="translate(-116.63 -175.75)"/><path class="cls-6" d="M519.89,822.73h3.25V849h-3.25Z" transform="translate(-116.63 -175.75)"/><path class="cls-6" d="M544.83,839.9c0,6.62-4.59,9.51-8.92,9.51-4.85,0-8.59-3.56-8.59-9.22,0-6,3.93-9.51,8.88-9.51C541.35,830.68,544.83,834.42,544.83,839.9Zm-14.21.18c0,3.92,2.25,6.88,5.44,6.88s5.44-2.92,5.44-7c0-3-1.52-6.88-5.37-6.88S530.62,836.68,530.62,840.08Z" transform="translate(-116.63 -175.75)"/><path class="cls-6" d="M548.93,835.94c0-1.85,0-3.37-.15-4.85h2.89l.18,3h.08a6.59,6.59,0,0,1,5.92-3.37c2.48,0,6.33,1.48,6.33,7.63V849h-3.26V838.68c0-2.89-1.07-5.3-4.14-5.3a4.78,4.78,0,0,0-4.59,4.85V849h-3.26Z" transform="translate(-116.63 -175.75)"/><path class="cls-6" d="M577.42,824.06h3.22v12h.11c.67-1,1.33-1.85,2-2.67l7.62-9.36h4l-9,10.58L595,849h-3.81L583,836.75l-2.37,2.74V849h-3.22Z" transform="translate(-116.63 -175.75)"/><path class="cls-6" d="M483.81,1127.39a31.88,31.88,0,0,1,5.89-.51c3.22,0,5.29.55,6.84,1.81a5.21,5.21,0,0,1,2.07,4.4,5.92,5.92,0,0,1-4.21,5.48v.07a6.44,6.44,0,0,1,5.14,6.26,6.71,6.71,0,0,1-2.11,5c-1.74,1.59-4.55,2.33-8.62,2.33a39.51,39.51,0,0,1-5-.29Zm3.22,10.22H490c3.41,0,5.41-1.78,5.41-4.19,0-2.92-2.22-4.07-5.48-4.07a13,13,0,0,0-2.85.23Zm0,12a17.33,17.33,0,0,0,2.7.15c3.33,0,6.4-1.23,6.4-4.85,0-3.41-2.92-4.81-6.43-4.81H487Z" transform="translate(-116.63 -175.75)"/><path class="cls-6" d="M513.67,1152l-.26-2.26h-.11a6.66,6.66,0,0,1-5.47,2.67,5.11,5.11,0,0,1-5.48-5.15c0-4.33,3.85-6.69,10.77-6.66v-.37c0-1.48-.41-4.14-4.07-4.14a9,9,0,0,0-4.67,1.33l-.74-2.14a11.06,11.06,0,0,1,5.89-1.6c5.47,0,6.81,3.74,6.81,7.33v6.7a25.46,25.46,0,0,0,.29,4.29Zm-.48-9.14c-3.55-.07-7.59.56-7.59,4a2.89,2.89,0,0,0,3.08,3.11,4.46,4.46,0,0,0,4.33-3,3.38,3.38,0,0,0,.18-1Z" transform="translate(-116.63 -175.75)"/><path class="cls-6" d="M521.15,1148.67a8.5,8.5,0,0,0,4.29,1.29c2.37,0,3.48-1.18,3.48-2.66s-.93-2.4-3.34-3.29c-3.21-1.15-4.73-2.93-4.73-5.07,0-2.89,2.33-5.26,6.18-5.26a9,9,0,0,1,4.4,1.11l-.81,2.37a7,7,0,0,0-3.67-1c-1.92,0-3,1.11-3,2.44,0,1.48,1.07,2.14,3.4,3,3.11,1.19,4.7,2.74,4.7,5.4,0,3.15-2.44,5.37-6.7,5.37a10.21,10.21,0,0,1-5-1.22Z" transform="translate(-116.63 -175.75)"/><path class="cls-6" d="M540.16,1129v5.14h4.67v2.48h-4.67v9.66c0,2.22.63,3.48,2.44,3.48a7.14,7.14,0,0,0,1.89-.23l.15,2.45a8,8,0,0,1-2.89.44,4.51,4.51,0,0,1-3.51-1.37c-.93-1-1.26-2.55-1.26-4.66v-9.77h-2.77v-2.48H537v-4.29Z" transform="translate(-116.63 -175.75)"/><path class="cls-6" d="M558.4,1152l-.25-2.26H558a6.64,6.64,0,0,1-5.47,2.67,5.11,5.11,0,0,1-5.48-5.15c0-4.33,3.85-6.69,10.77-6.66v-.37c0-1.48-.41-4.14-4.07-4.14a8.92,8.92,0,0,0-4.66,1.33l-.74-2.14a11,11,0,0,1,5.88-1.6c5.48,0,6.81,3.74,6.81,7.33v6.7a25.46,25.46,0,0,0,.29,4.29Zm-.48-9.14c-3.55-.07-7.58.56-7.58,4a2.88,2.88,0,0,0,3.07,3.11,4.46,4.46,0,0,0,4.33-3,3.38,3.38,0,0,0,.18-1Z" transform="translate(-116.63 -175.75)"/><path class="cls-6" d="M566.32,1139.68c0-2.11,0-3.92-.15-5.59H569l.11,3.52h.15a5.39,5.39,0,0,1,5-3.93,3.77,3.77,0,0,1,.93.11v3.08a4.63,4.63,0,0,0-1.12-.12c-2.29,0-3.92,1.74-4.36,4.19a8.48,8.48,0,0,0-.15,1.51V1152h-3.22Z" transform="translate(-116.63 -175.75)"/><path class="cls-6" d="M593.52,1125.73v21.65c0,1.59,0,3.4.15,4.62h-2.93l-.15-3.11h-.07a6.63,6.63,0,0,1-6.11,3.52c-4.32,0-7.65-3.67-7.65-9.11,0-6,3.66-9.62,8-9.62a6,6,0,0,1,5.41,2.74h.07v-10.69Zm-3.26,15.65a5.81,5.81,0,0,0-.15-1.37,4.78,4.78,0,0,0-4.7-3.77c-3.36,0-5.36,3-5.36,6.92,0,3.62,1.77,6.62,5.29,6.62a4.89,4.89,0,0,0,4.77-3.89,5.62,5.62,0,0,0,.15-1.4Z" transform="translate(-116.63 -175.75)"/><path class="cls-6" d="M619.53,1151.33a11.9,11.9,0,0,1-5.15,1c-5.4,0-8.91-3.66-8.91-9.14s3.77-9.51,9.62-9.51a10.78,10.78,0,0,1,4.51.93l-.74,2.51a7.6,7.6,0,0,0-3.77-.85c-4.11,0-6.33,3-6.33,6.77,0,4.15,2.66,6.7,6.22,6.7a9.15,9.15,0,0,0,4-.89Z" transform="translate(-116.63 -175.75)"/><path class="cls-6" d="M633.25,1152l-.25-2.26h-.12a6.66,6.66,0,0,1-5.47,2.67,5.11,5.11,0,0,1-5.48-5.15c0-4.33,3.85-6.69,10.77-6.66v-.37c0-1.48-.41-4.14-4.07-4.14a8.92,8.92,0,0,0-4.66,1.33l-.74-2.14a11,11,0,0,1,5.88-1.6c5.48,0,6.81,3.74,6.81,7.33v6.7a25.46,25.46,0,0,0,.29,4.29Zm-.48-9.14c-3.55-.07-7.58.56-7.58,4a2.88,2.88,0,0,0,3.07,3.11,4.46,4.46,0,0,0,4.33-3,3.38,3.38,0,0,0,.18-1Z" transform="translate(-116.63 -175.75)"/><path class="cls-6" d="M641.5,1152v-15.43H639v-2.48h2.51v-.85c0-2.52.56-4.81,2.08-6.25a6.2,6.2,0,0,1,4.36-1.67,7.55,7.55,0,0,1,2.78.52l-.45,2.52a4.71,4.71,0,0,0-2.07-.41c-2.77,0-3.48,2.44-3.48,5.18v1h4.33v2.48h-4.33V1152Z" transform="translate(-116.63 -175.75)"/><path class="cls-6" d="M653.31,1143.64c.07,4.4,2.88,6.21,6.14,6.21a11.76,11.76,0,0,0,5-.92l.55,2.33a14.4,14.4,0,0,1-6,1.11c-5.52,0-8.81-3.63-8.81-9s3.18-9.66,8.4-9.66c5.85,0,7.4,5.15,7.4,8.44a11.85,11.85,0,0,1-.11,1.52Zm9.54-2.33c0-2.08-.85-5.3-4.51-5.3-3.29,0-4.74,3-5,5.3Zm.78-15-4.51,5.29h-2.33l3.25-5.29Z" transform="translate(-116.63 -175.75)"/><path class="cls-6" d="M671.84,1143.64c.08,4.4,2.89,6.21,6.15,6.21a11.8,11.8,0,0,0,5-.92l.55,2.33a14.5,14.5,0,0,1-6,1.11c-5.51,0-8.8-3.63-8.8-9s3.18-9.66,8.4-9.66c5.84,0,7.4,5.15,7.4,8.44a14,14,0,0,1-.11,1.52Zm9.55-2.33c0-2.08-.85-5.3-4.51-5.3-3.3,0-4.74,3-5,5.3Z" transform="translate(-116.63 -175.75)"/><path class="cls-6" d="M688.57,1138.94c0-1.85,0-3.37-.15-4.85h2.89l.18,3h.07a6.61,6.61,0,0,1,5.93-3.37c2.47,0,6.32,1.48,6.32,7.63V1152h-3.25v-10.32c0-2.89-1.08-5.3-4.15-5.3a4.62,4.62,0,0,0-4.36,3.33,4.67,4.67,0,0,0-.23,1.52V1152h-3.25Z" transform="translate(-116.63 -175.75)"/><path class="cls-6" d="M499.17,1170.13v21.64c0,1.6,0,3.41.15,4.63h-2.93l-.14-3.11h-.08a6.62,6.62,0,0,1-6.1,3.52c-4.33,0-7.66-3.67-7.66-9.11,0-6,3.66-9.62,8-9.62a6,6,0,0,1,5.4,2.74h.07v-10.69Zm-3.26,15.65a5.33,5.33,0,0,0-.15-1.37,4.78,4.78,0,0,0-4.7-3.77c-3.36,0-5.36,3-5.36,6.92,0,3.62,1.78,6.62,5.29,6.62a4.89,4.89,0,0,0,4.77-3.89,5.19,5.19,0,0,0,.15-1.4Z" transform="translate(-116.63 -175.75)"/><path class="cls-6" d="M520.78,1187.3c0,6.62-4.59,9.51-8.92,9.51-4.85,0-8.59-3.56-8.59-9.22,0-6,3.93-9.51,8.88-9.51C517.3,1178.08,520.78,1181.82,520.78,1187.3Zm-14.21.18c0,3.92,2.25,6.89,5.44,6.89s5.44-2.93,5.44-7c0-3-1.52-6.88-5.37-6.88S506.57,1184.08,506.57,1187.48Z" transform="translate(-116.63 -175.75)"/><path class="cls-6" d="M525.92,1178.49l2.37,9.1c.51,2,1,3.85,1.33,5.7h.11c.41-1.81,1-3.74,1.59-5.66l2.92-9.14H537l2.78,9c.66,2.14,1.18,4,1.59,5.84h.11a55.58,55.58,0,0,1,1.37-5.81l2.55-9h3.22l-5.77,17.91h-3l-2.74-8.55a58.34,58.34,0,0,1-1.59-5.88h-.08a52.06,52.06,0,0,1-1.62,5.92L531,1196.4h-3l-5.4-17.91Z" transform="translate(-116.63 -175.75)"/><path class="cls-6" d="M551.85,1183.34c0-1.85,0-3.37-.14-4.85h2.88l.19,3h.07a6.59,6.59,0,0,1,5.92-3.37c2.48,0,6.33,1.48,6.33,7.63v10.69h-3.26v-10.32c0-2.89-1.07-5.29-4.14-5.29a4.62,4.62,0,0,0-4.37,3.33,4.86,4.86,0,0,0-.22,1.51v10.77h-3.26Z" transform="translate(-116.63 -175.75)"/><path class="cls-6" d="M572,1193.07a8.5,8.5,0,0,0,4.29,1.3c2.37,0,3.48-1.19,3.48-2.67s-.93-2.41-3.33-3.29c-3.22-1.15-4.74-2.93-4.74-5.07,0-2.89,2.33-5.26,6.18-5.26a9,9,0,0,1,4.4,1.11l-.81,2.37a7,7,0,0,0-3.67-1c-1.92,0-3,1.11-3,2.44,0,1.48,1.07,2.14,3.4,3,3.11,1.19,4.7,2.74,4.7,5.4,0,3.15-2.44,5.37-6.7,5.37a10.21,10.21,0,0,1-5-1.22Z" transform="translate(-116.63 -175.75)"/><path class="cls-6" d="M591,1173.35v5.14h4.67V1181H591v9.66c0,2.22.63,3.48,2.45,3.48a7.12,7.12,0,0,0,1.88-.23l.15,2.45a8.21,8.21,0,0,1-2.89.44,4.51,4.51,0,0,1-3.51-1.37c-.93-1-1.26-2.55-1.26-4.66V1181H585v-2.48h2.77v-4.29Z" transform="translate(-116.63 -175.75)"/><path class="cls-6" d="M609.21,1196.4l-.26-2.26h-.11a6.68,6.68,0,0,1-5.48,2.67,5.11,5.11,0,0,1-5.48-5.15c0-4.33,3.85-6.69,10.77-6.66v-.37c0-1.48-.41-4.14-4.07-4.14a9,9,0,0,0-4.66,1.33l-.74-2.15a11.11,11.11,0,0,1,5.88-1.59c5.48,0,6.81,3.74,6.81,7.33v6.7a24.39,24.39,0,0,0,.3,4.29Zm-.49-9.14c-3.55-.07-7.58.56-7.58,4a2.88,2.88,0,0,0,3.07,3.11,4.46,4.46,0,0,0,4.33-3,3.38,3.38,0,0,0,.18-1Z" transform="translate(-116.63 -175.75)"/><path class="cls-6" d="M620.75,1173.46a1.92,1.92,0,0,1-2.07,2,1.94,1.94,0,0,1-2-2,2,2,0,0,1,2-2A1.94,1.94,0,0,1,620.75,1173.46Zm-3.63,22.94v-17.91h3.26v17.91Z" transform="translate(-116.63 -175.75)"/><path class="cls-6" d="M625.78,1184.08c0-2.11,0-3.92-.15-5.59h2.85l.11,3.52h.15a5.38,5.38,0,0,1,5-3.93,3.21,3.21,0,0,1,.92.12v3.07a4.49,4.49,0,0,0-1.11-.12c-2.29,0-3.92,1.74-4.36,4.19a8.48,8.48,0,0,0-.15,1.51v9.55h-3.22Z" transform="translate(-116.63 -175.75)"/><path class="cls-6" d="M637.44,1193.07a8.5,8.5,0,0,0,4.29,1.3c2.37,0,3.48-1.19,3.48-2.67s-.93-2.41-3.33-3.29c-3.22-1.15-4.74-2.93-4.74-5.07,0-2.89,2.33-5.26,6.18-5.26a9,9,0,0,1,4.4,1.11l-.81,2.37a7,7,0,0,0-3.67-1c-1.92,0-3,1.11-3,2.44,0,1.48,1.07,2.14,3.4,3,3.11,1.19,4.7,2.74,4.7,5.4,0,3.15-2.44,5.37-6.7,5.37a10.21,10.21,0,0,1-5-1.22Z" transform="translate(-116.63 -175.75)"/><path class="cls-6" d="M1342.83,381.71c-.19-3.47-.41-7.66-.37-10.76h-.11c-.85,2.92-1.89,6-3.15,9.47l-4.4,12.1h-2.44l-4-11.88c-1.18-3.51-2.18-6.73-2.88-9.69h-.08c-.07,3.1-.25,7.29-.48,11l-.66,10.7h-3.07l1.73-24.94H1327l4.26,12.06c1,3.07,1.88,5.81,2.51,8.4h.12c.62-2.52,1.51-5.25,2.62-8.4l4.44-12.06h4.11l1.55,24.94h-3.14Z" transform="translate(-116.63 -175.75)"/><path class="cls-6" d="M1366.54,387.78c0,1.85,0,3.48.15,4.89h-2.88l-.19-2.93h-.07a6.73,6.73,0,0,1-5.92,3.33c-2.81,0-6.18-1.55-6.18-7.84V374.76h3.25v9.91c0,3.41,1,5.7,4,5.7a4.69,4.69,0,0,0,4.29-3,4.63,4.63,0,0,0,.3-1.66v-11h3.25Z" transform="translate(-116.63 -175.75)"/><path class="cls-6" d="M1371.5,389.34a8.53,8.53,0,0,0,4.29,1.29c2.37,0,3.48-1.18,3.48-2.66s-.92-2.41-3.33-3.3c-3.22-1.14-4.73-2.92-4.73-5.07,0-2.88,2.33-5.25,6.18-5.25a9,9,0,0,1,4.4,1.11l-.82,2.37a6.88,6.88,0,0,0-3.66-1c-1.92,0-3,1.11-3,2.44s1.08,2.15,3.41,3c3.11,1.18,4.7,2.74,4.7,5.4,0,3.15-2.44,5.37-6.7,5.37a10.21,10.21,0,0,1-5-1.22Z" transform="translate(-116.63 -175.75)"/><path class="cls-6" d="M1390.22,369.73a1.92,1.92,0,0,1-2.07,2,1.94,1.94,0,0,1-2-2,2,2,0,0,1,2-2A1.93,1.93,0,0,1,1390.22,369.73Zm-3.62,22.94V374.76h3.25v17.91Z" transform="translate(-116.63 -175.75)"/><path class="cls-6" d="M1398.47,383h.08c.44-.63,1.07-1.4,1.59-2l5.25-6.18h3.93l-6.92,7.36,7.88,10.55h-4l-6.18-8.59-1.67,1.85v6.74h-3.21V366.39h3.21Z" transform="translate(-116.63 -175.75)"/><path class="cls-6" d="M1425.38,392a12.1,12.1,0,0,1-5.15,1c-5.4,0-8.92-3.67-8.92-9.14s3.78-9.51,9.62-9.51a11,11,0,0,1,4.52.92l-.74,2.52a7.51,7.51,0,0,0-3.78-.85c-4.1,0-6.32,3-6.32,6.77,0,4.14,2.66,6.7,6.21,6.7a9.24,9.24,0,0,0,4-.89Z" transform="translate(-116.63 -175.75)"/><path class="cls-6" d="M1439.1,392.67l-.26-2.26h-.11a6.66,6.66,0,0,1-5.48,2.66,5.1,5.1,0,0,1-5.47-5.14c0-4.33,3.85-6.7,10.77-6.66v-.37c0-1.48-.41-4.14-4.07-4.14a8.89,8.89,0,0,0-4.67,1.33l-.74-2.15a11.15,11.15,0,0,1,5.89-1.59c5.47,0,6.81,3.74,6.81,7.33v6.69a25.51,25.51,0,0,0,.29,4.3Zm-.48-9.14c-3.55-.08-7.58.55-7.58,4a2.88,2.88,0,0,0,3.07,3.11,4.46,4.46,0,0,0,4.33-3,3.38,3.38,0,0,0,.18-1Z" transform="translate(-116.63 -175.75)"/><path class="cls-6" d="M1447.35,392.67V377.24h-2.52v-2.48h2.52v-.85c0-2.52.56-4.81,2.07-6.26a6.25,6.25,0,0,1,4.37-1.66,7.44,7.44,0,0,1,2.77.52l-.44,2.51a4.89,4.89,0,0,0-2.07-.41c-2.78,0-3.48,2.45-3.48,5.19v1h4.33v2.48h-4.33v15.43Z" transform="translate(-116.63 -175.75)"/><path class="cls-6" d="M1459.15,384.3c.08,4.41,2.89,6.22,6.15,6.22a12,12,0,0,0,5-.92l.55,2.33a14.67,14.67,0,0,1-6,1.11c-5.51,0-8.8-3.63-8.8-9s3.18-9.66,8.4-9.66c5.84,0,7.4,5.14,7.4,8.44a13.82,13.82,0,0,1-.11,1.51Zm9.55-2.33c0-2.07-.85-5.29-4.51-5.29-3.3,0-4.74,3-5,5.29Zm.78-15-4.52,5.29h-2.33l3.26-5.29Z" transform="translate(-116.63 -175.75)"/><path class="cls-6" d="M1477.69,384.3c.08,4.41,2.89,6.22,6.14,6.22a11.89,11.89,0,0,0,5-.92l.56,2.33a14.67,14.67,0,0,1-6,1.11c-5.51,0-8.81-3.63-8.81-9s3.19-9.66,8.4-9.66c5.85,0,7.4,5.14,7.4,8.44a11.66,11.66,0,0,1-.11,1.51Zm9.55-2.33c0-2.07-.85-5.29-4.52-5.29-3.29,0-4.73,3-5,5.29Z" transform="translate(-116.63 -175.75)"/><path class="cls-6" d="M1494.42,379.6c0-1.85,0-3.36-.15-4.84h2.88l.19,3h.07a6.59,6.59,0,0,1,5.92-3.37c2.48,0,6.33,1.48,6.33,7.62v10.7h-3.26V382.34c0-2.88-1.07-5.29-4.14-5.29a4.64,4.64,0,0,0-4.37,3.33,4.92,4.92,0,0,0-.22,1.52v10.77h-3.25Z" transform="translate(-116.63 -175.75)"/><path class="cls-6" d="M1325,513.39v10.44h12.06V513.39h3.26v24.94h-3.26V526.64H1325v11.69h-3.22V513.39Z" transform="translate(-116.63 -175.75)"/><path class="cls-6" d="M1360.81,533.45c0,1.85,0,3.48.15,4.88h-2.89l-.18-2.92h-.08a6.73,6.73,0,0,1-5.92,3.33c-2.81,0-6.18-1.55-6.18-7.84V520.42H1349v9.92c0,3.41,1,5.7,4,5.7a4.71,4.71,0,0,0,4.29-3,4.87,4.87,0,0,0,.29-1.67v-11h3.26Z" transform="translate(-116.63 -175.75)"/><path class="cls-6" d="M1365.77,535a8.5,8.5,0,0,0,4.29,1.3c2.37,0,3.48-1.19,3.48-2.67s-.93-2.4-3.33-3.29c-3.22-1.15-4.74-2.92-4.74-5.07,0-2.88,2.33-5.25,6.18-5.25a8.93,8.93,0,0,1,4.4,1.11l-.81,2.37a6.9,6.9,0,0,0-3.66-1c-1.93,0-3,1.11-3,2.44,0,1.48,1.07,2.15,3.4,3,3.11,1.18,4.7,2.73,4.7,5.4,0,3.14-2.44,5.36-6.69,5.36a10.25,10.25,0,0,1-5-1.22Z" transform="translate(-116.63 -175.75)"/><path class="cls-6" d="M1382.68,530c.07,4.4,2.88,6.22,6.14,6.22a11.74,11.74,0,0,0,5-.93l.55,2.33a14.44,14.44,0,0,1-5.95,1.11c-5.52,0-8.81-3.62-8.81-9s3.18-9.65,8.4-9.65c5.84,0,7.4,5.14,7.4,8.43a13.83,13.83,0,0,1-.11,1.52Zm9.54-2.33c0-2.07-.85-5.29-4.51-5.29-3.29,0-4.74,3-5,5.29Z" transform="translate(-116.63 -175.75)"/><path class="cls-6" d="M1403.32,515.28v5.14H1408v2.48h-4.66v9.66c0,2.22.63,3.48,2.44,3.48a7.23,7.23,0,0,0,1.89-.22l.15,2.44a8,8,0,0,1-2.89.44,4.51,4.51,0,0,1-3.51-1.37c-.93-1-1.26-2.55-1.26-4.66V522.9h-2.77v-2.48h2.77v-4.29Z" transform="translate(-116.63 -175.75)"/><path class="cls-6" d="M1411.2,535a8.57,8.57,0,0,0,4.3,1.3c2.36,0,3.47-1.19,3.47-2.67s-.92-2.4-3.33-3.29c-3.22-1.15-4.73-2.92-4.73-5.07,0-2.88,2.33-5.25,6.18-5.25a9,9,0,0,1,4.4,1.11l-.81,2.37a7,7,0,0,0-3.67-1c-1.92,0-3,1.11-3,2.44,0,1.48,1.07,2.15,3.4,3,3.11,1.18,4.7,2.73,4.7,5.4,0,3.14-2.44,5.36-6.7,5.36a10.21,10.21,0,0,1-5-1.22Z" transform="translate(-116.63 -175.75)"/><path class="cls-6" d="M1434,538.33c.08-1.22.15-3,.15-4.62V512.06h3.22v11.25h.08a6.65,6.65,0,0,1,6.1-3.29c4.44,0,7.59,3.7,7.55,9.14,0,6.4-4,9.58-8,9.58a6.37,6.37,0,0,1-6-3.37H1437l-.15,3Zm3.37-7.18a6.45,6.45,0,0,0,.15,1.19,5,5,0,0,0,4.88,3.81c3.41,0,5.44-2.77,5.44-6.88,0-3.59-1.85-6.66-5.32-6.66a5.18,5.18,0,0,0-5,4,6.07,6.07,0,0,0-.19,1.34Z" transform="translate(-116.63 -175.75)"/><path class="cls-6" d="M1458.82,515.39a2,2,0,0,1-4,0,2,2,0,0,1,2-2A1.93,1.93,0,0,1,1458.82,515.39Zm-3.62,22.94V520.42h3.25v17.91Z" transform="translate(-116.63 -175.75)"/><path class="cls-6" d="M1480.06,529.23c0,6.62-4.59,9.51-8.92,9.51-4.85,0-8.58-3.55-8.58-9.21,0-6,3.92-9.51,8.88-9.51C1476.58,520,1480.06,523.75,1480.06,529.23Zm-14.21.19c0,3.92,2.26,6.88,5.44,6.88s5.44-2.92,5.44-7c0-3-1.52-6.88-5.37-6.88S1465.85,526,1465.85,529.42Z" transform="translate(-116.63 -175.75)"/><path class="cls-6" d="M1499.6,520.42c-.08,1.3-.15,2.74-.15,4.93v10.39c0,4.11-.82,6.63-2.56,8.18a9.46,9.46,0,0,1-6.51,2.15,11.62,11.62,0,0,1-6-1.48l.82-2.48a10.07,10.07,0,0,0,5.25,1.4c3.33,0,5.78-1.74,5.78-6.25v-2h-.08a6.38,6.38,0,0,1-5.7,3c-4.44,0-7.62-3.77-7.62-8.73,0-6.07,4-9.51,8.07-9.51a6,6,0,0,1,5.58,3.11h.08l.15-2.71Zm-3.37,7.07A4.62,4.62,0,0,0,1496,526a4.68,4.68,0,0,0-4.55-3.44c-3.11,0-5.33,2.63-5.33,6.77,0,3.52,1.78,6.44,5.3,6.44a4.76,4.76,0,0,0,4.51-3.33,5.78,5.78,0,0,0,.26-1.74Z" transform="translate(-116.63 -175.75)"/><path class="cls-6" d="M1504.63,526c0-2.11,0-3.92-.15-5.59h2.85l.11,3.52h.15a5.35,5.35,0,0,1,5-3.92,3.3,3.3,0,0,1,.93.11v3.07a5.14,5.14,0,0,0-1.11-.11c-2.29,0-3.92,1.74-4.37,4.18a9.61,9.61,0,0,0-.14,1.52v9.54h-3.22Z" transform="translate(-116.63 -175.75)"/><path class="cls-6" d="M1526.46,538.33l-.26-2.25h-.11a6.7,6.7,0,0,1-5.48,2.66,5.1,5.1,0,0,1-5.48-5.14c0-4.33,3.85-6.7,10.77-6.66v-.37c0-1.48-.4-4.15-4.07-4.15a9,9,0,0,0-4.66,1.33l-.74-2.14a11.14,11.14,0,0,1,5.88-1.59c5.48,0,6.81,3.73,6.81,7.32V534a25.32,25.32,0,0,0,.3,4.29Zm-.48-9.14c-3.56-.07-7.59.56-7.59,4a2.88,2.88,0,0,0,3.07,3.11,4.46,4.46,0,0,0,4.33-3,3.41,3.41,0,0,0,.19-1Z" transform="translate(-116.63 -175.75)"/><path class="cls-6" d="M1534.71,538.33V522.9h-2.52v-2.48h2.52v-.85c0-2.51.55-4.81,2.07-6.25a6.26,6.26,0,0,1,4.37-1.67,7.53,7.53,0,0,1,2.77.52l-.44,2.52a4.91,4.91,0,0,0-2.08-.41c-2.77,0-3.47,2.44-3.47,5.18v1h4.33v2.48h-4.33v15.43Z" transform="translate(-116.63 -175.75)"/><path class="cls-6" d="M1332.6,639.89h-8.38v7.77h9.34V650h-12.13V628.43h11.65v2.34h-8.86v6.81h8.38Z" transform="translate(-116.63 -175.75)"/><path class="cls-6" d="M1337.94,634.51l3,8.71a37.17,37.17,0,0,1,1.25,4h.1c.35-1.28.8-2.56,1.31-4l3-8.71h2.94L1343.51,650h-2.69l-5.88-15.49Z" transform="translate(-116.63 -175.75)"/><path class="cls-6" d="M1365.94,642.13c0,5.73-4,8.22-7.71,8.22-4.19,0-7.42-3.07-7.42-8,0-5.18,3.39-8.22,7.68-8.22C1362.94,634.16,1365.94,637.39,1365.94,642.13Zm-12.28.16c0,3.39,1.95,6,4.7,6s4.7-2.53,4.7-6c0-2.62-1.31-6-4.64-6S1353.66,639.34,1353.66,642.29Z" transform="translate(-116.63 -175.75)"/><path class="cls-6" d="M1383.51,642.13c0,5.73-4,8.22-7.71,8.22-4.19,0-7.42-3.07-7.42-8,0-5.18,3.39-8.22,7.67-8.22C1380.5,634.16,1383.51,637.39,1383.51,642.13Zm-12.29.16c0,3.39,2,6,4.71,6s4.7-2.53,4.7-6c0-2.62-1.31-6-4.64-6S1371.22,639.34,1371.22,642.29Z" transform="translate(-116.63 -175.75)"/><path class="cls-6" d="M1393.46,647.12a7.43,7.43,0,0,0,3.71,1.12c2,0,3-1,3-2.3s-.8-2.08-2.88-2.85c-2.78-1-4.09-2.53-4.09-4.39,0-2.49,2-4.54,5.34-4.54a7.77,7.77,0,0,1,3.81,1l-.71,2a6,6,0,0,0-3.16-.9c-1.67,0-2.6,1-2.6,2.11s.93,1.86,2.95,2.63c2.69,1,4.06,2.37,4.06,4.67,0,2.72-2.11,4.64-5.79,4.64a8.85,8.85,0,0,1-4.35-1.06Z" transform="translate(-116.63 -175.75)"/><path class="cls-6" d="M1409.91,630.07v4.44h4v2.15h-4V645c0,1.92.55,3,2.11,3a6,6,0,0,0,1.63-.2l.13,2.12a6.94,6.94,0,0,1-2.49.38,3.91,3.91,0,0,1-3-1.18c-.8-.84-1.09-2.21-1.09-4v-8.44h-2.4v-2.15h2.4V630.8Z" transform="translate(-116.63 -175.75)"/><path class="cls-6" d="M1417.11,639.34c0-1.82,0-3.39-.13-4.83h2.47l.09,3h.13a4.65,4.65,0,0,1,4.29-3.39,2.83,2.83,0,0,1,.8.1v2.65a4.54,4.54,0,0,0-1-.09c-2,0-3.39,1.5-3.78,3.61a8.42,8.42,0,0,0-.13,1.31V650h-2.78Z" transform="translate(-116.63 -175.75)"/><path class="cls-6" d="M1428.82,642.77c.07,3.81,2.5,5.37,5.31,5.37a10.13,10.13,0,0,0,4.29-.8l.48,2a12.51,12.51,0,0,1-5.15,1c-4.77,0-7.62-3.14-7.62-7.81s2.76-8.35,7.27-8.35c5,0,6.4,4.45,6.4,7.3a11,11,0,0,1-.1,1.31Zm8.26-2c0-1.79-.74-4.57-3.91-4.57-2.84,0-4.09,2.62-4.32,4.57Z" transform="translate(-116.63 -175.75)"/><path class="cls-6" d="M1444.85,642.77c.07,3.81,2.5,5.37,5.32,5.37a10.11,10.11,0,0,0,4.28-.8l.48,2a12.47,12.47,0,0,1-5.15,1c-4.77,0-7.61-3.14-7.61-7.81s2.75-8.35,7.26-8.35c5.06,0,6.4,4.45,6.4,7.3a9.18,9.18,0,0,1-.1,1.31Zm8.26-2c0-1.79-.74-4.57-3.9-4.57-2.85,0-4.1,2.62-4.32,4.57Z" transform="translate(-116.63 -175.75)"/><path class="cls-6" d="M1462.71,630.07v4.44h4v2.15h-4V645c0,1.92.54,3,2.11,3a6,6,0,0,0,1.63-.2l.13,2.12a7,7,0,0,1-2.49.38,3.91,3.91,0,0,1-3-1.18c-.8-.84-1.09-2.21-1.09-4v-8.44h-2.4v-2.15h2.4V630.8Z" transform="translate(-116.63 -175.75)"/><path class="cls-6" d="M1477,650V636.66h-2.17v-2.15H1477v-.73c0-2.18.48-4.16,1.79-5.41a5.43,5.43,0,0,1,3.78-1.44,6.39,6.39,0,0,1,2.4.45l-.39,2.17a4.21,4.21,0,0,0-1.79-.35c-2.4,0-3,2.11-3,4.48v.83h3.74v2.15h-3.74V650Z" transform="translate(-116.63 -175.75)"/><path class="cls-6" d="M1499.64,642.13c0,5.73-4,8.22-7.71,8.22-4.2,0-7.43-3.07-7.43-8,0-5.18,3.39-8.22,7.68-8.22C1496.63,634.16,1499.64,637.39,1499.64,642.13Zm-12.29.16c0,3.39,2,6,4.7,6s4.71-2.53,4.71-6c0-2.62-1.31-6-4.64-6S1487.35,639.34,1487.35,642.29Z" transform="translate(-116.63 -175.75)"/><path class="cls-6" d="M1517.21,642.13c0,5.73-4,8.22-7.72,8.22-4.19,0-7.42-3.07-7.42-8,0-5.18,3.39-8.22,7.68-8.22C1514.2,634.16,1517.21,637.39,1517.21,642.13Zm-12.29.16c0,3.39,1.95,6,4.7,6s4.71-2.53,4.71-6c0-2.62-1.32-6-4.64-6S1504.92,639.34,1504.92,642.29Z" transform="translate(-116.63 -175.75)"/><path class="cls-6" d="M1534.13,627.28V646c0,1.38,0,2.94.13,4h-2.53l-.12-2.69h-.07a5.72,5.72,0,0,1-5.28,3c-3.74,0-6.62-3.17-6.62-7.87,0-5.15,3.17-8.32,6.94-8.32a5.16,5.16,0,0,1,4.67,2.37h.07v-9.25Zm-2.81,13.54a4.77,4.77,0,0,0-.13-1.19,4.14,4.14,0,0,0-4.06-3.26c-2.92,0-4.64,2.56-4.64,6,0,3.14,1.53,5.73,4.57,5.73a4.23,4.23,0,0,0,4.13-3.36,4.71,4.71,0,0,0,.13-1.22Z" transform="translate(-116.63 -175.75)"/><path class="cls-6" d="M1321.05,681.61a9.84,9.84,0,0,0,5,1.41c2.85,0,4.51-1.51,4.51-3.68s-1.15-3.17-4.06-4.29c-3.52-1.25-5.7-3.07-5.7-6.11,0-3.36,2.79-5.86,7-5.86a9.76,9.76,0,0,1,4.77,1.06l-.77,2.27a8.69,8.69,0,0,0-4.1-1c-2.94,0-4.06,1.76-4.06,3.23,0,2,1.31,3,4.29,4.16,3.64,1.4,5.5,3.16,5.5,6.33,0,3.33-2.46,6.21-7.55,6.21a11.17,11.17,0,0,1-5.51-1.38Z" transform="translate(-116.63 -175.75)"/><path class="cls-6" d="M1340.41,665.07v4.44h4v2.15h-4V680c0,1.92.54,3,2.11,3a6,6,0,0,0,1.63-.2l.13,2.12a7,7,0,0,1-2.5.38,3.94,3.94,0,0,1-3-1.18c-.8-.84-1.08-2.21-1.08-4v-8.44h-2.4v-2.15h2.4V665.8Z" transform="translate(-116.63 -175.75)"/><path class="cls-6" d="M1356.18,685l-.22-2h-.1a5.76,5.76,0,0,1-4.73,2.3,4.42,4.42,0,0,1-4.74-4.45c0-3.74,3.33-5.79,9.31-5.76v-.32c0-1.28-.35-3.58-3.52-3.58a7.75,7.75,0,0,0-4,1.15l-.64-1.85a9.64,9.64,0,0,1,5.09-1.38c4.73,0,5.89,3.23,5.89,6.34v5.79a22.09,22.09,0,0,0,.25,3.71Zm-.41-7.9c-3.07-.07-6.56.48-6.56,3.48a2.49,2.49,0,0,0,2.65,2.69,3.86,3.86,0,0,0,3.75-2.59,3.16,3.16,0,0,0,.16-.9Z" transform="translate(-116.63 -175.75)"/><path class="cls-6" d="M1363,674.34c0-1.82,0-3.39-.13-4.83h2.47l.09,3h.13a4.64,4.64,0,0,1,4.29-3.39,2.83,2.83,0,0,1,.8.1v2.65a4.54,4.54,0,0,0-1-.09c-2,0-3.39,1.5-3.78,3.61a8.48,8.48,0,0,0-.12,1.31V685H1363Z" transform="translate(-116.63 -175.75)"/><path class="cls-6" d="M1386.55,662.28V681c0,1.38,0,2.94.13,4h-2.53l-.13-2.69H1384a5.73,5.73,0,0,1-5.28,3c-3.74,0-6.62-3.17-6.62-7.87,0-5.15,3.16-8.32,6.94-8.32a5.16,5.16,0,0,1,4.67,2.37h.06v-9.25Zm-2.82,13.54a5.28,5.28,0,0,0-.12-1.19,4.14,4.14,0,0,0-4.07-3.26c-2.91,0-4.64,2.56-4.64,6,0,3.14,1.54,5.73,4.58,5.73a4.24,4.24,0,0,0,4.13-3.36,5.21,5.21,0,0,0,.12-1.22Z" transform="translate(-116.63 -175.75)"/><path class="cls-6" d="M1404.18,680.78c0,1.6,0,3,.13,4.22h-2.5l-.16-2.53h-.06a5.82,5.82,0,0,1-5.12,2.88c-2.43,0-5.34-1.34-5.34-6.78v-9.06h2.81v8.58c0,2.94.9,4.93,3.46,4.93a4.08,4.08,0,0,0,3.71-2.56,4.14,4.14,0,0,0,.26-1.44v-9.51h2.81Z" transform="translate(-116.63 -175.75)"/><path class="cls-6" d="M1408.47,682.12a7.43,7.43,0,0,0,3.71,1.12c2,0,3-1,3-2.3s-.8-2.08-2.88-2.85c-2.78-1-4.1-2.53-4.1-4.39,0-2.49,2-4.54,5.35-4.54a7.77,7.77,0,0,1,3.81,1l-.71,2a6,6,0,0,0-3.16-.9c-1.67,0-2.6,1-2.6,2.11s.93,1.86,2.95,2.63c2.69,1,4.06,2.37,4.06,4.67,0,2.72-2.11,4.64-5.79,4.64a8.82,8.82,0,0,1-4.35-1.06Z" transform="translate(-116.63 -175.75)"/><path class="cls-6" d="M1424.92,665.07v4.44h4v2.15h-4V680c0,1.92.54,3,2.11,3a6,6,0,0,0,1.63-.2l.13,2.12a7,7,0,0,1-2.5.38,3.94,3.94,0,0,1-3-1.18c-.79-.84-1.08-2.21-1.08-4v-8.44h-2.4v-2.15h2.4V665.8Z" transform="translate(-116.63 -175.75)"/><path class="cls-6" d="M1321.43,698.72a27.54,27.54,0,0,1,5.09-.45c2.78,0,4.58.48,5.92,1.57a4.52,4.52,0,0,1,1.79,3.81,5.1,5.1,0,0,1-3.65,4.73v.07a5.56,5.56,0,0,1,4.45,5.41,5.86,5.86,0,0,1-1.82,4.32c-1.51,1.37-3.94,2-7.46,2a34.28,34.28,0,0,1-4.32-.25Zm2.79,8.83h2.52c3,0,4.68-1.53,4.68-3.61,0-2.53-1.92-3.52-4.74-3.52a11.59,11.59,0,0,0-2.46.19Zm0,10.34a15.5,15.5,0,0,0,2.33.13c2.88,0,5.54-1.06,5.54-4.2,0-2.94-2.53-4.16-5.57-4.16h-2.3Z" transform="translate(-116.63 -175.75)"/><path class="cls-6" d="M1341.82,700.16a1.75,1.75,0,0,1-3.49,0,1.71,1.71,0,0,1,1.76-1.76A1.68,1.68,0,0,1,1341.82,700.16ZM1338.68,720V704.51h2.82V720Z" transform="translate(-116.63 -175.75)"/><path class="cls-6" d="M1346.17,709.57c0-2-.07-3.59-.13-5.06h2.53l.13,2.66h.06a6.08,6.08,0,0,1,5.5-3c3.75,0,6.56,3.17,6.56,7.87,0,5.57-3.39,8.32-7,8.32a5.4,5.4,0,0,1-4.76-2.43H1349v8.42h-2.78Zm2.78,4.13a6.73,6.73,0,0,0,.13,1.15,4.34,4.34,0,0,0,4.22,3.29c3,0,4.71-2.43,4.71-6,0-3.1-1.63-5.76-4.61-5.76a4.51,4.51,0,0,0-4.26,3.49A4.85,4.85,0,0,0,1349,711Z" transform="translate(-116.63 -175.75)"/><path class="cls-6" d="M1371,720c.06-1.06.13-2.62.13-4V697.28h2.78V707h.07a5.76,5.76,0,0,1,5.28-2.85c3.84,0,6.56,3.2,6.52,7.9,0,5.54-3.48,8.29-6.94,8.29a5.5,5.5,0,0,1-5.18-2.91h-.1l-.13,2.56Zm2.91-6.21a5.69,5.69,0,0,0,.13,1,4.34,4.34,0,0,0,4.22,3.29c3,0,4.71-2.4,4.71-6,0-3.1-1.6-5.76-4.61-5.76a4.49,4.49,0,0,0-4.29,3.46,5.79,5.79,0,0,0-.16,1.15Z" transform="translate(-116.63 -175.75)"/><path class="cls-6" d="M1392.5,700.16a1.75,1.75,0,0,1-3.49,0,1.72,1.72,0,0,1,1.76-1.76A1.67,1.67,0,0,1,1392.5,700.16ZM1389.37,720V704.51h2.81V720Z" transform="translate(-116.63 -175.75)"/><path class="cls-6" d="M1396.85,709.57c0-2-.06-3.59-.12-5.06h2.52l.13,2.66h.07a6.08,6.08,0,0,1,5.5-3c3.74,0,6.56,3.17,6.56,7.87,0,5.57-3.39,8.32-7,8.32a5.42,5.42,0,0,1-4.77-2.43h-.06v8.42h-2.79Zm2.79,4.13a5.86,5.86,0,0,0,.13,1.15,4.33,4.33,0,0,0,4.22,3.29c3,0,4.7-2.43,4.7-6,0-3.1-1.63-5.76-4.6-5.76a4.5,4.5,0,0,0-4.26,3.49,4.39,4.39,0,0,0-.19,1.15Z" transform="translate(-116.63 -175.75)"/><path class="cls-6" d="M1421.72,720c.06-1.06.13-2.62.13-4V697.28h2.78V707h.06a5.78,5.78,0,0,1,5.28-2.85c3.84,0,6.56,3.2,6.53,7.9,0,5.54-3.49,8.29-6.94,8.29a5.53,5.53,0,0,1-5.19-2.91h-.09l-.13,2.56Zm2.91-6.21a4.92,4.92,0,0,0,.13,1,4.33,4.33,0,0,0,4.22,3.29c2.94,0,4.7-2.4,4.7-6,0-3.1-1.6-5.76-4.6-5.76a4.49,4.49,0,0,0-4.29,3.46,5.14,5.14,0,0,0-.16,1.15Z" transform="translate(-116.63 -175.75)"/><path class="cls-6" d="M1448.63,720l-.23-2h-.09a5.8,5.8,0,0,1-4.74,2.3,4.41,4.41,0,0,1-4.73-4.45c0-3.74,3.32-5.79,9.31-5.76v-.32c0-1.28-.35-3.58-3.52-3.58a7.72,7.72,0,0,0-4,1.15l-.64-1.85a9.61,9.61,0,0,1,5.08-1.38c4.74,0,5.89,3.23,5.89,6.34v5.79a22,22,0,0,0,.26,3.71Zm-.42-7.9c-3.07-.07-6.56.48-6.56,3.48a2.49,2.49,0,0,0,2.66,2.69,3.86,3.86,0,0,0,3.74-2.59,2.85,2.85,0,0,0,.16-.9Z" transform="translate(-116.63 -175.75)"/><path class="cls-6" d="M1455.48,709.34c0-1.82,0-3.39-.13-4.83h2.46l.1,3h.13a4.64,4.64,0,0,1,4.28-3.39,2.78,2.78,0,0,1,.8.1v2.65a4.41,4.41,0,0,0-1-.09c-2,0-3.39,1.5-3.77,3.61a7.35,7.35,0,0,0-.13,1.31V720h-2.78Z" transform="translate(-116.63 -175.75)"/></g></svg>
