<svg xmlns="http://www.w3.org/2000/svg" viewBox="0 0 1646.37 1190.04"><defs><style>.cls-1{fill:#1c1e4b;}.cls-2{fill:#c1dfea;stroke:#474643;stroke-miterlimit:10;}.cls-3{fill:#474643;}.cls-4{fill:#efefef;}.cls-5{fill:#1f1f1f;}</style></defs><title>plantegning</title><g id="bluekælder"><polygon class="cls-1" points="632.87 1063.75 20.87 1063.75 120.87 891.75 174.37 791.25 548.37 791.25 486.37 892.25 722.87 891.75 632.87 1063.75"/><polygon class="cls-2" points="458.06 820.01 458.09 820.2 457.98 820.22 452.28 840.74 457.22 840.74 462.98 820.01 458.06 820.01"/><polygon class="cls-2" points="463.73 826.32 463.73 825.87 463.88 825.87 463.9 825.79 463.17 821.01 457.69 840.74 459.75 840.74 463.76 826.32 463.73 826.32"/><polygon class="cls-2" points="464.22 826.32 460.22 840.74 464.83 840.74 468.84 826.32 464.22 826.32"/><polygon class="cls-2" points="469.03 827.32 465.3 840.74 467.36 840.74 469.76 832.1 469.03 827.32"/><polygon class="cls-2" points="450.32 809.3 441.64 840.57 441.2 840.45 450.14 808.29 445.2 808.29 432.92 840.68 432.92 840.68 444.8 808.05 444.05 803.2 426.03 840.68 443.65 840.74 451.06 814.07 450.32 809.3"/><polygon class="cls-2" points="456.86 815.15 449.75 840.74 451.81 840.74 457.59 819.93 456.86 815.15"/><polygon class="cls-2" points="512.71 803.37 444.35 802.21 445.22 807.84 450.43 807.84 450.43 808.07 450.65 808.13 450.55 808.5 450.66 808.48 451.5 813.97 451.55 813.99 451.52 814.1 451.56 814.34 451.45 814.36 444.12 840.74 449.29 840.74 456.67 814.15 451.56 814.15 451.56 813.7 456.97 813.7 456.97 813.92 457.18 813.99 457.08 814.36 457.19 814.34 457.99 819.56 463.28 819.56 463.28 819.78 463.49 819.84 463.39 820.22 463.5 820.2 464.34 825.69 464.39 825.7 464.36 825.82 464.37 825.87 469.13 825.87 469.13 826.09 469.35 826.15 469.25 826.52 469.36 826.51 470.16 831.73 475.44 831.73 475.44 831.95 475.66 832.01 475.56 832.38 475.67 832.37 476.47 837.58 481.75 837.58 481.75 837.81 481.97 837.87 481.87 838.24 481.98 838.23 482.36 840.74 493.76 841.25 512.71 803.37"/><polygon class="cls-2" points="470.23 832.18 470.26 832.37 470.15 832.38 467.83 840.74 472.77 840.74 475.15 832.18 470.23 832.18"/><polygon class="cls-2" points="481.17 840.74 481.9 840.74 481.64 839.04 481.17 840.74"/><polygon class="cls-2" points="476.54 838.03 476.57 838.23 476.46 838.24 475.76 840.74 480.7 840.74 481.46 838.03 476.54 838.03"/><polygon class="cls-2" points="475.33 833.18 473.24 840.74 475.3 840.74 476.07 837.96 475.33 833.18"/><polygon class="cls-3" points="444.35 802.21 444.35 802.17 443.9 802.24 444.05 803.2 444.35 802.21 444.35 802.21"/><polygon class="cls-3" points="451.56 814.34 451.52 814.1 451.55 813.99 451.5 813.97 450.66 808.48 450.55 808.5 450.65 808.13 450.43 808.07 450.43 807.84 445.22 807.84 444.35 802.21 444.35 802.21 444.05 803.2 444.8 808.05 432.63 840.39 432.63 840.39 445.2 808.29 450.14 808.29 441.2 840.45 441.64 840.57 450.32 809.3 451.06 814.07 443.65 840.74 444.12 840.74 451.45 814.36 451.56 814.34"/><polygon class="cls-3" points="481.87 838.24 481.97 837.87 481.75 837.81 481.75 837.58 476.47 837.58 475.67 832.37 475.56 832.38 475.66 832.01 475.44 831.95 475.44 831.73 470.16 831.73 469.36 826.51 469.25 826.52 469.35 826.15 469.13 826.09 469.13 825.87 464.37 825.87 464.36 825.82 464.39 825.7 464.34 825.69 463.5 820.2 463.39 820.22 463.49 819.84 463.28 819.78 463.28 819.56 457.99 819.56 457.19 814.34 457.08 814.36 457.18 813.99 456.97 813.92 456.97 813.7 451.56 813.7 451.56 814.15 456.67 814.15 449.29 840.74 449.75 840.74 456.86 815.15 457.59 819.93 451.81 840.74 452.28 840.74 457.98 820.22 458.09 820.2 458.06 820.01 462.98 820.01 457.22 840.74 457.69 840.74 463.17 821.01 463.9 825.79 463.88 825.87 463.73 825.87 463.73 826.32 463.76 826.32 459.75 840.74 460.22 840.74 464.22 826.32 468.84 826.32 464.83 840.74 465.3 840.74 469.03 827.32 469.76 832.1 467.36 840.74 467.83 840.74 470.15 832.38 470.26 832.37 470.23 832.18 475.15 832.18 472.77 840.74 473.24 840.74 475.33 833.18 476.07 837.96 475.3 840.74 475.76 840.74 476.46 838.24 476.57 838.23 476.54 838.03 481.46 838.03 480.7 840.74 481.17 840.74 481.64 839.04 481.9 840.74 482.36 840.74 481.98 838.23 481.87 838.24"/><path class="cls-4" d="M248.58,1159.59h3.13v11.7h.11c.64-.93,1.29-1.8,1.9-2.59l7.42-9.11H265l-8.79,10.3,9.47,14H262l-8-11.91-2.3,2.66v9.25h-3.13Z" transform="translate(-116.63 -175.75)"/><path class="cls-4" d="M265.67,1183.85l11.09-24.26H292v2.63H281.62l.94,7.74h9v2.59H283l1.08,8.68h8.89v2.62H281.33l-1.08-8.56H272.8l-3.89,8.56Zm14.22-11.08-.79-7c-.14-1.16-.36-2.71-.43-3.93h-.14c-.44,1.15-1,2.52-1.55,3.82l-3.13,7.09Z" transform="translate(-116.63 -175.75)"/><path class="cls-4" d="M296.81,1159.59H300v21.64h10.36v2.62h-13.5Z" transform="translate(-116.63 -175.75)"/><path class="cls-4" d="M313.81,1159.92a44.35,44.35,0,0,1,6.65-.51c4.5,0,7.71,1,9.83,3s3.42,4.78,3.42,8.71-1.22,7.2-3.49,9.43-6,3.49-10.73,3.49a50.32,50.32,0,0,1-5.68-.29Zm3.13,21.45a20.22,20.22,0,0,0,3.17.18c6.69,0,10.33-3.74,10.33-10.29,0-5.73-3.21-9.36-9.83-9.36a17.84,17.84,0,0,0-3.67.32Z" transform="translate(-116.63 -175.75)"/><path class="cls-4" d="M350.34,1172.48h-9.43v8.75h10.51v2.62H337.78v-24.26h13.1v2.63h-10v7.67h9.43Z" transform="translate(-116.63 -175.75)"/><path class="cls-4" d="M355.49,1159.92a32.09,32.09,0,0,1,6-.51c3.35,0,5.51.62,7,2a6,6,0,0,1,1.91,4.61,6.36,6.36,0,0,1-4.57,6.19v.11c1.87.65,3,2.38,3.56,4.9a38.3,38.3,0,0,0,1.88,6.65h-3.24a30.65,30.65,0,0,1-1.62-5.79c-.72-3.35-2-4.61-4.86-4.72h-2.95v10.51h-3.14Zm3.14,11h3.2c3.35,0,5.47-1.84,5.47-4.61,0-3.13-2.27-4.5-5.58-4.53a13.16,13.16,0,0,0-3.09.28Z" transform="translate(-116.63 -175.75)"/></g><g id="bluestuen"><polygon class="cls-2" points="375.87 891.25 0.87 891.25 100.87 719.25 465.87 719.25 375.87 891.25"/><path class="cls-5" d="M228.14,1007.21a11.17,11.17,0,0,0,5.62,1.58c3.2,0,5.07-1.69,5.07-4.14,0-2.27-1.29-3.56-4.57-4.82-4-1.41-6.4-3.46-6.4-6.88,0-3.78,3.13-6.59,7.84-6.59a11.05,11.05,0,0,1,5.37,1.19l-.87,2.56a9.68,9.68,0,0,0-4.61-1.15c-3.31,0-4.57,2-4.57,3.63,0,2.27,1.48,3.39,4.83,4.68,4.1,1.59,6.19,3.56,6.19,7.13,0,3.74-2.77,7-8.5,7a12.48,12.48,0,0,1-6.19-1.55Z" transform="translate(-116.63 -175.75)"/><path class="cls-5" d="M250.93,989.42h-7.38v-2.66h18v2.66H254.1V1011h-3.17Z" transform="translate(-116.63 -175.75)"/><path class="cls-5" d="M267.35,986.76v14.36c0,5.44,2.41,7.74,5.65,7.74,3.6,0,5.9-2.37,5.9-7.74V986.76h3.17v14.15c0,7.45-3.92,10.51-9.18,10.51-5,0-8.71-2.85-8.71-10.37V986.76Z" transform="translate(-116.63 -175.75)"/><path class="cls-5" d="M300.07,999.65h-9.43v8.74h10.51V1011H287.51V986.76h13.1v2.63h-10v7.67h9.43Z" transform="translate(-116.63 -175.75)"/><path class="cls-5" d="M305.22,1011V986.76h3.42L316.41,999a68.5,68.5,0,0,1,4.36,7.89l.07,0c-.29-3.24-.36-6.19-.36-10V986.76h2.95V1011h-3.17l-7.7-12.31a76.38,76.38,0,0,1-4.53-8.1l-.11,0c.18,3.06.25,6,.25,10V1011Z" transform="translate(-116.63 -175.75)"/></g><g id="blue2sal"><polygon class="cls-1" points="632.87 719.25 20.87 719.25 120.87 547.25 174.37 446.75 539.37 446.75 486.37 547.75 727.37 547.75 632.87 719.25"/><polygon class="cls-2" points="458.06 475.51 458.09 475.7 457.98 475.72 452.28 496.24 457.22 496.24 462.98 475.51 458.06 475.51"/><polygon class="cls-2" points="463.73 481.82 463.73 481.37 463.88 481.37 463.9 481.29 463.17 476.51 457.69 496.24 459.75 496.24 463.76 481.82 463.73 481.82"/><polygon class="cls-2" points="464.22 481.82 460.22 496.24 464.83 496.24 468.84 481.82 464.22 481.82"/><polygon class="cls-2" points="469.03 482.82 465.3 496.24 467.36 496.24 469.76 487.6 469.03 482.82"/><polygon class="cls-2" points="450.32 464.8 441.64 496.07 441.2 495.95 450.14 463.79 445.2 463.79 432.92 496.18 432.92 496.18 444.8 463.55 444.05 458.7 426.03 496.18 443.65 496.24 451.06 469.57 450.32 464.8"/><polygon class="cls-2" points="456.86 470.65 449.75 496.24 451.81 496.24 457.59 475.43 456.86 470.65"/><polygon class="cls-2" points="512.71 458.87 444.35 457.71 445.22 463.34 450.43 463.34 450.43 463.57 450.65 463.63 450.55 464 450.66 463.98 451.5 469.47 451.55 469.49 451.52 469.6 451.56 469.84 451.45 469.86 444.12 496.24 449.29 496.24 456.67 469.65 451.56 469.65 451.56 469.2 456.97 469.2 456.97 469.43 457.18 469.49 457.08 469.86 457.19 469.84 457.99 475.06 463.28 475.06 463.28 475.28 463.49 475.34 463.39 475.72 463.5 475.7 464.34 481.19 464.39 481.2 464.36 481.32 464.37 481.37 469.13 481.37 469.13 481.59 469.35 481.65 469.25 482.02 469.36 482.01 470.16 487.23 475.44 487.23 475.44 487.45 475.66 487.51 475.56 487.88 475.67 487.87 476.47 493.08 481.75 493.08 481.75 493.31 481.97 493.37 481.87 493.74 481.98 493.73 482.36 496.24 493.76 496.75 512.71 458.87"/><polygon class="cls-2" points="470.23 487.68 470.26 487.87 470.15 487.88 467.83 496.24 472.77 496.24 475.15 487.68 470.23 487.68"/><polygon class="cls-2" points="481.17 496.24 481.9 496.24 481.64 494.54 481.17 496.24"/><polygon class="cls-2" points="476.54 493.53 476.57 493.73 476.46 493.74 475.76 496.24 480.7 496.24 481.46 493.53 476.54 493.53"/><polygon class="cls-2" points="475.33 488.68 473.24 496.24 475.3 496.24 476.07 493.45 475.33 488.68"/><polygon class="cls-3" points="444.35 457.71 444.35 457.67 443.9 457.74 444.05 458.7 444.35 457.71 444.35 457.71"/><polygon class="cls-3" points="451.56 469.84 451.52 469.6 451.55 469.49 451.5 469.47 450.66 463.98 450.55 464 450.65 463.63 450.43 463.57 450.43 463.34 445.22 463.34 444.35 457.71 444.35 457.71 444.05 458.7 444.8 463.55 432.63 495.89 432.63 495.89 445.2 463.79 450.14 463.79 441.2 495.95 441.64 496.07 450.32 464.8 451.06 469.57 443.65 496.24 444.12 496.24 451.45 469.86 451.56 469.84"/><polygon class="cls-3" points="481.87 493.74 481.97 493.37 481.75 493.31 481.75 493.08 476.47 493.08 475.67 487.87 475.56 487.88 475.66 487.51 475.44 487.45 475.44 487.23 470.16 487.23 469.36 482.01 469.25 482.02 469.35 481.65 469.13 481.59 469.13 481.37 464.37 481.37 464.36 481.32 464.39 481.2 464.34 481.19 463.5 475.7 463.39 475.72 463.49 475.34 463.28 475.28 463.28 475.06 457.99 475.06 457.19 469.84 457.08 469.86 457.18 469.49 456.97 469.43 456.97 469.2 451.56 469.2 451.56 469.65 456.67 469.65 449.29 496.24 449.75 496.24 456.86 470.65 457.59 475.43 451.81 496.24 452.28 496.24 457.98 475.72 458.09 475.7 458.06 475.51 462.98 475.51 457.22 496.24 457.69 496.24 463.17 476.51 463.9 481.29 463.88 481.37 463.73 481.37 463.73 481.82 463.76 481.82 459.75 496.24 460.22 496.24 464.22 481.82 468.84 481.82 464.83 496.24 465.3 496.24 469.03 482.82 469.76 487.6 467.36 496.24 467.83 496.24 470.15 487.88 470.26 487.87 470.23 487.68 475.15 487.68 472.77 496.24 473.24 496.24 475.33 488.68 476.07 493.45 475.3 496.24 475.76 496.24 476.46 493.74 476.57 493.73 476.54 493.53 481.46 493.53 480.7 496.24 481.17 496.24 481.64 494.54 481.9 496.24 482.36 496.24 481.98 493.73 481.87 493.74"/><path class="cls-4" d="M254.33,817.91h-.07l-4.06,2.19-.62-2.41,5.11-2.73h2.7v23.39h-3.06Z" transform="translate(-116.63 -175.75)"/><path class="cls-4" d="M266.18,836.48a2.13,2.13,0,0,1,2.16-2.27,2.27,2.27,0,1,1-2.16,2.27Z" transform="translate(-116.63 -175.75)"/><path class="cls-4" d="M281.69,834.54a11.17,11.17,0,0,0,5.62,1.58c3.2,0,5.07-1.69,5.07-4.14,0-2.26-1.29-3.56-4.57-4.82-4-1.4-6.4-3.46-6.4-6.87,0-3.79,3.13-6.59,7.84-6.59a10.94,10.94,0,0,1,5.37,1.19l-.87,2.55a9.67,9.67,0,0,0-4.6-1.15c-3.32,0-4.58,2-4.58,3.63,0,2.27,1.48,3.39,4.83,4.68,4.1,1.59,6.19,3.57,6.19,7.13,0,3.74-2.77,7-8.5,7a12.59,12.59,0,0,1-6.19-1.54Z" transform="translate(-116.63 -175.75)"/><path class="cls-4" d="M303.8,830.72l-2.52,7.63H298l8.24-24.26h3.78l8.28,24.26H315l-2.59-7.63Zm7.95-2.44-2.37-7c-.54-1.58-.9-3-1.26-4.42H308c-.35,1.43-.75,2.91-1.22,4.39l-2.37,7Z" transform="translate(-116.63 -175.75)"/><path class="cls-4" d="M321.91,814.09H325v21.64H335.4v2.62H321.91Z" transform="translate(-116.63 -175.75)"/><polygon class="cls-2" points="375.87 546.75 0.87 546.75 100.87 374.75 465.87 374.75 375.87 546.75"/><path class="cls-5" d="M227.46,675.85v-1.94l2.48-2.41c6-5.69,8.68-8.71,8.71-12.24,0-2.38-1.15-4.57-4.64-4.57a8,8,0,0,0-5,2l-1-2.23a10.25,10.25,0,0,1,6.62-2.38c5,0,7.16,3.46,7.16,6.8,0,4.32-3.13,7.82-8.06,12.57l-1.87,1.73v.07H242.4v2.62Z" transform="translate(-116.63 -175.75)"/><path class="cls-5" d="M246.18,674a2.13,2.13,0,0,1,2.16-2.27,2.27,2.27,0,1,1-2.16,2.27Z" transform="translate(-116.63 -175.75)"/><path class="cls-5" d="M254.06,672a11.17,11.17,0,0,0,5.62,1.58c3.2,0,5.07-1.69,5.07-4.14,0-2.26-1.29-3.56-4.57-4.82-4-1.4-6.41-3.46-6.41-6.87,0-3.79,3.14-6.59,7.85-6.59a10.94,10.94,0,0,1,5.37,1.19l-.87,2.55a9.68,9.68,0,0,0-4.61-1.15c-3.31,0-4.57,2-4.57,3.63,0,2.27,1.48,3.39,4.83,4.68,4.1,1.59,6.19,3.57,6.19,7.13,0,3.74-2.77,7-8.5,7a12.59,12.59,0,0,1-6.19-1.54Z" transform="translate(-116.63 -175.75)"/><path class="cls-5" d="M276.17,668.22l-2.52,7.63h-3.24l8.24-24.26h3.78l8.28,24.26h-3.35l-2.59-7.63Zm7.95-2.44-2.37-7c-.54-1.58-.9-3-1.26-4.42h-.08c-.36,1.43-.75,2.91-1.22,4.39l-2.38,7Z" transform="translate(-116.63 -175.75)"/><path class="cls-5" d="M294.27,651.59h3.14v21.64h10.36v2.62h-13.5Z" transform="translate(-116.63 -175.75)"/></g><g id="indgang"><path d="M744.48,1319.87v35.05H740v-35.05Z" transform="translate(-116.63 -175.75)"/><path d="M752.74,1336.56c0-2.6,0-4.73-.2-6.81h4.05l.26,4.16H757a9.25,9.25,0,0,1,8.32-4.73c3.48,0,8.89,2.08,8.89,10.71v15h-4.58v-14.51c0-4.05-1.51-7.44-5.82-7.44a6.71,6.71,0,0,0-6.45,6.82v15.13h-4.58Z" transform="translate(-116.63 -175.75)"/><path d="M803.34,1318v30.42c0,2.24,0,4.78.21,6.5h-4.11l-.21-4.37h-.1a9.31,9.31,0,0,1-8.58,4.94c-6.09,0-10.77-5.15-10.77-12.79,0-8.37,5.15-13.52,11.29-13.52,3.85,0,6.45,1.82,7.59,3.85h.1v-15Zm-4.58,22a8.38,8.38,0,0,0-.2-1.93,6.74,6.74,0,0,0-6.61-5.3c-4.73,0-7.54,4.16-7.54,9.72,0,5.1,2.5,9.31,7.44,9.31a6.89,6.89,0,0,0,6.71-5.46,8.26,8.26,0,0,0,.2-2Z" transform="translate(-116.63 -175.75)"/><path d="M832.62,1329.75c-.11,1.82-.21,3.85-.21,6.92v14.61c0,5.77-1.15,9.31-3.59,11.49s-6,3-9.15,3a16.29,16.29,0,0,1-8.38-2.08l1.15-3.49a14.16,14.16,0,0,0,7.38,2c4.68,0,8.12-2.44,8.12-8.79v-2.81h-.11a9,9,0,0,1-8,4.22c-6.24,0-10.71-5.31-10.71-12.28,0-8.52,5.56-13.36,11.34-13.36a8.38,8.38,0,0,1,7.85,4.37h.1l.21-3.8Zm-4.74,9.93a6.48,6.48,0,0,0-.26-2.08,6.59,6.59,0,0,0-6.39-4.83c-4.37,0-7.49,3.69-7.49,9.51,0,4.94,2.49,9,7.43,9a6.7,6.7,0,0,0,6.35-4.68,7.93,7.93,0,0,0,.36-2.44Z" transform="translate(-116.63 -175.75)"/><path d="M853.93,1354.92l-.36-3.17h-.16a9.37,9.37,0,0,1-7.69,3.74c-5.1,0-7.7-3.59-7.7-7.23,0-6.08,5.41-9.41,15.13-9.36v-.52c0-2.08-.57-5.82-5.72-5.82a12.57,12.57,0,0,0-6.55,1.87l-1-3a15.56,15.56,0,0,1,8.27-2.24c7.7,0,9.57,5.25,9.57,10.3v9.41a35.72,35.72,0,0,0,.41,6Zm-.67-12.84c-5-.11-10.66.78-10.66,5.66a4,4,0,0,0,4.31,4.37,6.27,6.27,0,0,0,6.09-4.21,5,5,0,0,0,.26-1.46Z" transform="translate(-116.63 -175.75)"/><path d="M865.06,1336.56c0-2.6,0-4.73-.21-6.81h4.06l.26,4.16h.1a9.26,9.26,0,0,1,8.32-4.73c3.49,0,8.9,2.08,8.9,10.71v15h-4.58v-14.51c0-4.05-1.51-7.44-5.82-7.44a6.71,6.71,0,0,0-6.45,6.82v15.13h-4.58Z" transform="translate(-116.63 -175.75)"/><path d="M915.61,1329.75c-.11,1.82-.21,3.85-.21,6.92v14.61c0,5.77-1.15,9.31-3.59,11.49s-6,3-9.15,3a16.23,16.23,0,0,1-8.37-2.08l1.14-3.49a14.16,14.16,0,0,0,7.38,2c4.68,0,8.12-2.44,8.12-8.79v-2.81h-.11a9,9,0,0,1-8,4.22c-6.24,0-10.71-5.31-10.71-12.28,0-8.52,5.57-13.36,11.34-13.36,4.37,0,6.76,2.29,7.85,4.37h.1l.21-3.8Zm-4.74,9.93a6.48,6.48,0,0,0-.26-2.08,6.58,6.58,0,0,0-6.39-4.83c-4.37,0-7.49,3.69-7.49,9.51,0,4.94,2.5,9,7.44,9a6.7,6.7,0,0,0,6.34-4.68,7.93,7.93,0,0,0,.36-2.44Z" transform="translate(-116.63 -175.75)"/><polygon points="815.71 1093.42 786.73 1104.89 811 1106.29 827.84 1119.67 815.71 1093.42"/><polygon points="828.71 1056.42 799.73 1067.89 824 1069.29 840.84 1082.67 828.71 1056.42"/><polygon points="841.71 1019.42 812.73 1030.89 837 1032.29 853.84 1045.67 841.71 1019.42"/></g><g id="sort4sal"><polygon class="cls-5" points="1579.99 130 827.37 130 911.95 0 1646.37 0 1579.99 130"/><polygon class="cls-2" points="1529.06 34.01 1529.09 34.2 1528.98 34.22 1523.28 54.74 1528.22 54.74 1533.98 34.01 1529.06 34.01"/><polygon class="cls-2" points="1534.73 40.32 1534.73 39.87 1534.88 39.87 1534.9 39.79 1534.17 35.01 1528.69 54.74 1530.75 54.74 1534.76 40.32 1534.73 40.32"/><polygon class="cls-2" points="1535.22 40.32 1531.22 54.74 1535.83 54.74 1539.84 40.32 1535.22 40.32"/><polygon class="cls-2" points="1540.03 41.32 1536.3 54.74 1538.36 54.74 1540.76 46.1 1540.03 41.32"/><polygon class="cls-2" points="1521.33 23.3 1512.64 54.57 1512.2 54.45 1521.14 22.29 1516.2 22.29 1503.92 54.68 1503.92 54.68 1515.8 22.05 1515.05 17.2 1497.03 54.68 1514.65 54.74 1522.06 28.07 1521.33 23.3"/><polygon class="cls-2" points="1527.86 29.16 1520.75 54.74 1522.81 54.74 1528.59 33.93 1527.86 29.16"/><polygon class="cls-2" points="1583.71 17.37 1515.35 16.21 1516.22 21.84 1521.43 21.84 1521.43 22.07 1521.65 22.13 1521.55 22.5 1521.66 22.48 1522.5 27.97 1522.55 27.98 1522.52 28.1 1522.56 28.34 1522.45 28.36 1515.12 54.74 1520.29 54.74 1527.67 28.15 1522.56 28.15 1522.56 27.7 1527.97 27.7 1527.97 27.93 1528.18 27.98 1528.08 28.36 1528.19 28.34 1528.99 33.56 1534.28 33.56 1534.28 33.78 1534.49 33.84 1534.39 34.22 1534.5 34.2 1535.34 39.69 1535.39 39.7 1535.36 39.82 1535.37 39.87 1540.13 39.87 1540.13 40.09 1540.35 40.15 1540.25 40.52 1540.36 40.51 1541.16 45.73 1546.44 45.73 1546.44 45.95 1546.66 46.01 1546.56 46.38 1546.67 46.37 1547.47 51.58 1552.75 51.58 1552.75 51.81 1552.97 51.87 1552.87 52.24 1552.97 52.23 1553.36 54.74 1564.76 55.25 1583.71 17.37"/><polygon class="cls-2" points="1541.23 46.18 1541.26 46.37 1541.15 46.38 1538.83 54.74 1543.77 54.74 1546.15 46.18 1541.23 46.18"/><polygon class="cls-2" points="1552.17 54.74 1552.9 54.74 1552.64 53.04 1552.17 54.74"/><polygon class="cls-2" points="1547.54 52.03 1547.57 52.23 1547.46 52.24 1546.77 54.74 1551.7 54.74 1552.46 52.03 1547.54 52.03"/><polygon class="cls-2" points="1546.34 47.18 1544.24 54.74 1546.3 54.74 1547.07 51.95 1546.34 47.18"/><polygon class="cls-3" points="1515.35 16.21 1515.35 16.17 1514.9 16.24 1515.05 17.2 1515.35 16.21 1515.35 16.21"/><polygon class="cls-3" points="1522.56 28.34 1522.52 28.1 1522.55 27.98 1522.5 27.97 1521.66 22.48 1521.55 22.5 1521.65 22.13 1521.43 22.07 1521.43 21.84 1516.22 21.84 1515.35 16.21 1515.35 16.21 1515.05 17.2 1515.8 22.05 1503.63 54.39 1503.63 54.39 1516.2 22.29 1521.14 22.29 1512.2 54.45 1512.64 54.57 1521.33 23.3 1522.06 28.07 1514.65 54.74 1515.12 54.74 1522.45 28.36 1522.56 28.34"/><polygon class="cls-3" points="1552.87 52.24 1552.97 51.87 1552.75 51.81 1552.75 51.58 1547.47 51.58 1546.67 46.37 1546.56 46.38 1546.66 46.01 1546.44 45.95 1546.44 45.73 1541.16 45.73 1540.36 40.51 1540.25 40.52 1540.35 40.15 1540.13 40.09 1540.13 39.87 1535.37 39.87 1535.36 39.82 1535.39 39.7 1535.34 39.69 1534.5 34.2 1534.39 34.22 1534.49 33.84 1534.28 33.78 1534.28 33.56 1528.99 33.56 1528.19 28.34 1528.08 28.36 1528.18 27.98 1527.97 27.93 1527.97 27.7 1522.56 27.7 1522.56 28.15 1527.67 28.15 1520.29 54.74 1520.75 54.74 1527.86 29.16 1528.59 33.93 1522.81 54.74 1523.28 54.74 1528.98 34.22 1529.09 34.2 1529.06 34.01 1533.98 34.01 1528.22 54.74 1528.69 54.74 1534.17 35.01 1534.9 39.79 1534.88 39.87 1534.73 39.87 1534.73 40.32 1534.76 40.32 1530.75 54.74 1531.22 54.74 1535.22 40.32 1539.84 40.32 1535.83 54.74 1536.3 54.74 1540.03 41.32 1540.76 46.1 1538.36 54.74 1538.83 54.74 1541.15 46.38 1541.26 46.37 1541.23 46.18 1546.15 46.18 1543.77 54.74 1544.24 54.74 1546.34 47.18 1547.07 51.95 1546.3 54.74 1546.77 54.74 1547.46 52.24 1547.57 52.23 1547.54 52.03 1552.46 52.03 1551.7 54.74 1552.17 54.74 1552.64 53.04 1552.9 54.74 1553.36 54.74 1552.97 52.23 1552.87 52.24"/><path class="cls-4" d="M1063.25,247.85v-6.37h-10.87V239.4l10.44-14.94h3.42V239h3.27v2.48h-3.27v6.37Zm0-8.85v-7.81c0-1.23,0-2.45.11-3.67h-.11c-.72,1.36-1.3,2.37-1.94,3.45l-5.73,8V239Z" transform="translate(-116.63 -175.75)"/><path class="cls-4" d="M1072.18,246a2.13,2.13,0,0,1,2.16-2.27,2.27,2.27,0,1,1-2.16,2.27Z" transform="translate(-116.63 -175.75)"/><path class="cls-4" d="M1087.69,244a11.17,11.17,0,0,0,5.62,1.58c3.2,0,5.07-1.69,5.07-4.14,0-2.26-1.29-3.56-4.57-4.82-4-1.4-6.4-3.46-6.4-6.87,0-3.79,3.13-6.59,7.84-6.59a10.94,10.94,0,0,1,5.37,1.19l-.87,2.55a9.67,9.67,0,0,0-4.6-1.15c-3.32,0-4.58,2-4.58,3.63,0,2.27,1.48,3.39,4.83,4.68,4.1,1.59,6.19,3.57,6.19,7.13,0,3.74-2.77,7-8.5,7a12.59,12.59,0,0,1-6.19-1.54Z" transform="translate(-116.63 -175.75)"/><path class="cls-4" d="M1109.8,240.22l-2.52,7.63H1104l8.24-24.26h3.78l8.28,24.26H1121l-2.59-7.63Zm8-2.44-2.37-7c-.54-1.58-.9-3-1.26-4.42H1114c-.35,1.43-.75,2.91-1.22,4.39l-2.37,7Z" transform="translate(-116.63 -175.75)"/><path class="cls-4" d="M1127.91,223.59H1131v21.64h10.36v2.62h-13.49Z" transform="translate(-116.63 -175.75)"/></g><g id="sort3sal"><polygon class="cls-5" points="1579.99 274.69 827.37 274.69 911.95 144.69 1646.37 144.69 1579.99 274.69"/><polygon class="cls-2" points="1529.06 178.7 1529.09 178.89 1528.98 178.9 1523.28 199.43 1528.22 199.43 1533.98 178.7 1529.06 178.7"/><polygon class="cls-2" points="1534.73 185 1534.73 184.55 1534.88 184.55 1534.9 184.48 1534.17 179.7 1528.69 199.43 1530.75 199.43 1534.76 185 1534.73 185"/><polygon class="cls-2" points="1535.22 185 1531.22 199.43 1535.83 199.43 1539.84 185 1535.22 185"/><polygon class="cls-2" points="1540.03 186.01 1536.3 199.43 1538.36 199.43 1540.76 190.78 1540.03 186.01"/><polygon class="cls-2" points="1521.33 167.99 1512.64 199.26 1512.2 199.14 1521.14 166.98 1516.2 166.98 1503.92 199.36 1503.92 199.36 1515.8 166.74 1515.05 161.88 1497.03 199.36 1514.65 199.43 1522.06 172.76 1521.33 167.99"/><polygon class="cls-2" points="1527.86 173.84 1520.75 199.43 1522.81 199.43 1528.59 178.62 1527.86 173.84"/><polygon class="cls-2" points="1583.71 162.05 1515.35 160.9 1516.22 166.53 1521.43 166.53 1521.43 166.75 1521.65 166.81 1521.55 167.19 1521.66 167.17 1522.5 172.66 1522.55 172.67 1522.52 172.79 1522.56 173.03 1522.45 173.04 1515.12 199.43 1520.29 199.43 1527.67 172.84 1522.56 172.84 1522.56 172.39 1527.97 172.39 1527.97 172.61 1528.18 172.67 1528.08 173.04 1528.19 173.03 1528.99 178.25 1534.28 178.25 1534.28 178.47 1534.49 178.53 1534.39 178.9 1534.5 178.89 1535.34 184.38 1535.39 184.39 1535.36 184.5 1535.37 184.55 1540.13 184.55 1540.13 184.78 1540.35 184.84 1540.25 185.21 1540.36 185.2 1541.16 190.41 1546.44 190.41 1546.44 190.64 1546.66 190.7 1546.56 191.07 1546.67 191.05 1547.47 196.27 1552.75 196.27 1552.75 196.5 1552.97 196.56 1552.87 196.93 1552.97 196.91 1553.36 199.43 1564.76 199.94 1583.71 162.05"/><polygon class="cls-2" points="1541.23 190.86 1541.26 191.05 1541.15 191.07 1538.83 199.43 1543.77 199.43 1546.15 190.86 1541.23 190.86"/><polygon class="cls-2" points="1552.17 199.43 1552.9 199.43 1552.64 197.73 1552.17 199.43"/><polygon class="cls-2" points="1547.54 196.72 1547.57 196.91 1547.46 196.93 1546.77 199.43 1551.7 199.43 1552.46 196.72 1547.54 196.72"/><polygon class="cls-2" points="1546.34 191.87 1544.24 199.43 1546.3 199.43 1547.07 196.64 1546.34 191.87"/><polygon class="cls-3" points="1515.35 160.9 1515.35 160.86 1514.9 160.93 1515.05 161.88 1515.35 160.9 1515.35 160.9"/><polygon class="cls-3" points="1522.56 173.03 1522.52 172.79 1522.55 172.67 1522.5 172.66 1521.66 167.17 1521.55 167.19 1521.65 166.81 1521.43 166.75 1521.43 166.53 1516.22 166.53 1515.35 160.9 1515.35 160.9 1515.05 161.88 1515.8 166.74 1503.63 199.08 1503.63 199.08 1516.2 166.98 1521.14 166.98 1512.2 199.14 1512.64 199.26 1521.33 167.99 1522.06 172.76 1514.65 199.43 1515.12 199.43 1522.45 173.04 1522.56 173.03"/><polygon class="cls-3" points="1552.87 196.93 1552.97 196.56 1552.75 196.5 1552.75 196.27 1547.47 196.27 1546.67 191.05 1546.56 191.07 1546.66 190.7 1546.44 190.64 1546.44 190.41 1541.16 190.41 1540.36 185.2 1540.25 185.21 1540.35 184.84 1540.13 184.78 1540.13 184.55 1535.37 184.55 1535.36 184.5 1535.39 184.39 1535.34 184.38 1534.5 178.89 1534.39 178.9 1534.49 178.53 1534.28 178.47 1534.28 178.25 1528.99 178.25 1528.19 173.03 1528.08 173.04 1528.18 172.67 1527.97 172.61 1527.97 172.39 1522.56 172.39 1522.56 172.84 1527.67 172.84 1520.29 199.43 1520.75 199.43 1527.86 173.84 1528.59 178.62 1522.81 199.43 1523.28 199.43 1528.98 178.9 1529.09 178.89 1529.06 178.7 1533.98 178.7 1528.22 199.43 1528.69 199.43 1534.17 179.7 1534.9 184.48 1534.88 184.55 1534.73 184.55 1534.73 185 1534.76 185 1530.75 199.43 1531.22 199.43 1535.22 185 1539.84 185 1535.83 199.43 1536.3 199.43 1540.03 186.01 1540.76 190.78 1538.36 199.43 1538.83 199.43 1541.15 191.07 1541.26 191.05 1541.23 190.86 1546.15 190.86 1543.77 199.43 1544.24 199.43 1546.34 191.87 1547.07 196.64 1546.3 199.43 1546.77 199.43 1547.46 196.93 1547.57 196.91 1547.54 196.72 1552.46 196.72 1551.7 199.43 1552.17 199.43 1552.64 197.73 1552.9 199.43 1553.36 199.43 1552.97 196.91 1552.87 196.93"/><path class="cls-4" d="M1054.22,392.91a10.63,10.63,0,0,0,5.18,1.47c4.07,0,5.33-2.59,5.29-4.53,0-3.28-3-4.68-6-4.68h-1.76v-2.38h1.76c2.31,0,5.22-1.19,5.22-4,0-1.87-1.19-3.53-4.1-3.53a8.61,8.61,0,0,0-4.68,1.55l-.83-2.3a11.14,11.14,0,0,1,6.12-1.8c4.61,0,6.7,2.73,6.7,5.58,0,2.41-1.44,4.46-4.32,5.51v.07a6.09,6.09,0,0,1,5.22,6c0,3.74-2.92,7-8.54,7a11.85,11.85,0,0,1-6.08-1.59Z" transform="translate(-116.63 -175.75)"/><path class="cls-4" d="M1072.18,394.67a2.13,2.13,0,0,1,2.16-2.27,2.27,2.27,0,1,1-2.16,2.27Z" transform="translate(-116.63 -175.75)"/><path class="cls-4" d="M1087.69,392.73a11.17,11.17,0,0,0,5.62,1.58c3.2,0,5.07-1.69,5.07-4.14,0-2.27-1.29-3.56-4.57-4.82-4-1.41-6.4-3.46-6.4-6.88,0-3.78,3.13-6.59,7.84-6.59a11.05,11.05,0,0,1,5.37,1.19l-.87,2.56a9.67,9.67,0,0,0-4.6-1.15c-3.32,0-4.58,2-4.58,3.63,0,2.27,1.48,3.39,4.83,4.68,4.1,1.59,6.19,3.57,6.19,7.13,0,3.74-2.77,7-8.5,7a12.48,12.48,0,0,1-6.19-1.55Z" transform="translate(-116.63 -175.75)"/><path class="cls-4" d="M1109.8,388.91l-2.52,7.63H1104l8.24-24.26h3.78l8.28,24.26H1121l-2.59-7.63Zm8-2.45-2.37-7c-.54-1.58-.9-3-1.26-4.43H1114c-.35,1.44-.75,2.92-1.22,4.39l-2.37,7Z" transform="translate(-116.63 -175.75)"/><path class="cls-4" d="M1127.91,372.28H1131v21.63h10.36v2.63h-13.49Z" transform="translate(-116.63 -175.75)"/></g><g id="sort1sal"><polygon class="cls-5" points="1579.99 564.06 827.37 564.06 911.95 434.06 1646.37 434.06 1579.99 564.06"/><polygon class="cls-2" points="1529.06 468.07 1529.09 468.26 1528.98 468.28 1523.28 488.8 1528.22 488.8 1533.98 468.07 1529.06 468.07"/><polygon class="cls-2" points="1534.73 474.38 1534.73 473.93 1534.88 473.93 1534.9 473.85 1534.17 469.08 1528.69 488.8 1530.75 488.8 1534.76 474.38 1534.73 474.38"/><polygon class="cls-2" points="1535.22 474.38 1531.22 488.8 1535.83 488.8 1539.84 474.38 1535.22 474.38"/><polygon class="cls-2" points="1540.03 475.38 1536.3 488.8 1538.36 488.8 1540.76 480.16 1540.03 475.38"/><polygon class="cls-2" points="1521.33 457.36 1512.64 488.63 1512.2 488.51 1521.14 456.35 1516.2 456.35 1503.92 488.74 1503.92 488.74 1515.8 456.12 1515.05 451.26 1497.03 488.74 1514.65 488.8 1522.06 462.13 1521.33 457.36"/><polygon class="cls-2" points="1527.86 463.22 1520.75 488.8 1522.81 488.8 1528.59 467.99 1527.86 463.22"/><polygon class="cls-2" points="1583.71 451.43 1515.35 450.27 1516.22 455.9 1521.43 455.9 1521.43 456.13 1521.65 456.19 1521.55 456.56 1521.66 456.55 1522.5 462.03 1522.55 462.05 1522.52 462.16 1522.56 462.4 1522.45 462.42 1515.12 488.8 1520.29 488.8 1527.67 462.21 1522.56 462.21 1522.56 461.76 1527.97 461.76 1527.97 461.99 1528.18 462.05 1528.08 462.42 1528.19 462.4 1528.99 467.62 1534.28 467.62 1534.28 467.85 1534.49 467.91 1534.39 468.28 1534.5 468.26 1535.34 473.75 1535.39 473.76 1535.36 473.88 1535.37 473.93 1540.13 473.93 1540.13 474.15 1540.35 474.21 1540.25 474.59 1540.36 474.57 1541.16 479.79 1546.44 479.79 1546.44 480.01 1546.66 480.07 1546.56 480.45 1546.67 480.43 1547.47 485.65 1552.75 485.65 1552.75 485.87 1552.97 485.93 1552.87 486.3 1552.97 486.29 1553.36 488.8 1564.76 489.31 1583.71 451.43"/><polygon class="cls-2" points="1541.23 480.24 1541.26 480.43 1541.15 480.45 1538.83 488.8 1543.77 488.8 1546.15 480.24 1541.23 480.24"/><polygon class="cls-2" points="1552.17 488.8 1552.9 488.8 1552.64 487.1 1552.17 488.8"/><polygon class="cls-2" points="1547.54 486.1 1547.57 486.29 1547.46 486.3 1546.77 488.8 1551.7 488.8 1552.46 486.1 1547.54 486.1"/><polygon class="cls-2" points="1546.34 481.24 1544.24 488.8 1546.3 488.8 1547.07 486.02 1546.34 481.24"/><polygon class="cls-3" points="1515.35 450.27 1515.35 450.24 1514.9 450.31 1515.05 451.26 1515.35 450.27 1515.35 450.27"/><polygon class="cls-3" points="1522.56 462.4 1522.52 462.16 1522.55 462.05 1522.5 462.03 1521.66 456.55 1521.55 456.56 1521.65 456.19 1521.43 456.13 1521.43 455.9 1516.22 455.9 1515.35 450.27 1515.35 450.27 1515.05 451.26 1515.8 456.12 1503.63 488.45 1503.63 488.45 1516.2 456.35 1521.14 456.35 1512.2 488.51 1512.64 488.63 1521.33 457.36 1522.06 462.13 1514.65 488.8 1515.12 488.8 1522.45 462.42 1522.56 462.4"/><polygon class="cls-3" points="1552.87 486.3 1552.97 485.93 1552.75 485.87 1552.75 485.65 1547.47 485.65 1546.67 480.43 1546.56 480.45 1546.66 480.07 1546.44 480.01 1546.44 479.79 1541.16 479.79 1540.36 474.57 1540.25 474.59 1540.35 474.21 1540.13 474.15 1540.13 473.93 1535.37 473.93 1535.36 473.88 1535.39 473.76 1535.34 473.75 1534.5 468.26 1534.39 468.28 1534.49 467.91 1534.28 467.85 1534.28 467.62 1528.99 467.62 1528.19 462.4 1528.08 462.42 1528.18 462.05 1527.97 461.99 1527.97 461.76 1522.56 461.76 1522.56 462.21 1527.67 462.21 1520.29 488.8 1520.75 488.8 1527.86 463.22 1528.59 467.99 1522.81 488.8 1523.28 488.8 1528.98 468.28 1529.09 468.26 1529.06 468.07 1533.98 468.07 1528.22 488.8 1528.69 488.8 1534.17 469.08 1534.9 473.85 1534.88 473.93 1534.73 473.93 1534.73 474.38 1534.76 474.38 1530.75 488.8 1531.22 488.8 1535.22 474.38 1539.84 474.38 1535.83 488.8 1536.3 488.8 1540.03 475.38 1540.76 480.16 1538.36 488.8 1538.83 488.8 1541.15 480.45 1541.26 480.43 1541.23 480.24 1546.15 480.24 1543.77 488.8 1544.24 488.8 1546.34 481.24 1547.07 486.02 1546.3 488.8 1546.77 488.8 1547.46 486.3 1547.57 486.29 1547.54 486.1 1552.46 486.1 1551.7 488.8 1552.17 488.8 1552.64 487.1 1552.9 488.8 1553.36 488.8 1552.97 486.29 1552.87 486.3"/><path class="cls-4" d="M1060.33,665.47h-.07l-4.06,2.2-.62-2.41,5.11-2.74h2.7v23.4h-3.06Z" transform="translate(-116.63 -175.75)"/><path class="cls-4" d="M1072.18,684a2.12,2.12,0,0,1,2.16-2.26,2.27,2.27,0,0,1,0,4.53A2.12,2.12,0,0,1,1072.18,684Z" transform="translate(-116.63 -175.75)"/><path class="cls-4" d="M1087.69,682.1a11.07,11.07,0,0,0,5.62,1.59c3.2,0,5.07-1.7,5.07-4.14,0-2.27-1.29-3.57-4.57-4.83-4-1.4-6.4-3.45-6.4-6.87,0-3.78,3.13-6.59,7.84-6.59a11.05,11.05,0,0,1,5.37,1.19l-.87,2.55a9.67,9.67,0,0,0-4.6-1.15c-3.32,0-4.58,2-4.58,3.64,0,2.26,1.48,3.38,4.83,4.68,4.1,1.58,6.19,3.56,6.19,7.12,0,3.75-2.77,7-8.5,7a12.59,12.59,0,0,1-6.19-1.55Z" transform="translate(-116.63 -175.75)"/><path class="cls-4" d="M1109.8,678.29l-2.52,7.63H1104l8.24-24.26h3.78l8.28,24.26H1121l-2.59-7.63Zm8-2.45-2.37-7c-.54-1.59-.9-3-1.26-4.43H1114c-.35,1.44-.75,2.91-1.22,4.39l-2.37,7Z" transform="translate(-116.63 -175.75)"/><path class="cls-4" d="M1127.91,661.66H1131v21.63h10.36v2.63h-13.49Z" transform="translate(-116.63 -175.75)"/></g><g id="bastard"><polygon class="cls-2" points="1567.87 708.75 1070.87 708.75 1149.87 578.75 1629.87 578.75 1567.87 708.75"/><polygon class="cls-2" points="1538.06 607.01 1538.09 607.2 1537.98 607.22 1532.28 627.74 1537.22 627.74 1542.98 607.01 1538.06 607.01"/><polygon class="cls-2" points="1543.73 613.32 1543.73 612.87 1543.88 612.87 1543.9 612.79 1543.17 608.01 1537.69 627.74 1539.75 627.74 1543.76 613.32 1543.73 613.32"/><polygon class="cls-2" points="1544.22 613.32 1540.22 627.74 1544.83 627.74 1548.84 613.32 1544.22 613.32"/><polygon class="cls-2" points="1549.03 614.32 1545.3 627.74 1547.36 627.74 1549.76 619.1 1549.03 614.32"/><polygon class="cls-2" points="1530.33 596.3 1521.64 627.57 1521.2 627.45 1530.14 595.29 1525.2 595.29 1512.92 627.68 1512.92 627.68 1524.8 595.05 1524.05 590.2 1506.03 627.68 1523.65 627.74 1531.06 601.07 1530.33 596.3"/><polygon class="cls-2" points="1536.86 602.15 1529.75 627.74 1531.81 627.74 1537.59 606.93 1536.86 602.15"/><polygon class="cls-2" points="1592.71 590.37 1524.35 589.21 1525.22 594.84 1530.43 594.84 1530.43 595.07 1530.65 595.13 1530.55 595.5 1530.66 595.48 1531.5 600.97 1531.55 600.99 1531.52 601.1 1531.56 601.34 1531.45 601.36 1524.12 627.74 1529.29 627.74 1536.67 601.15 1531.56 601.15 1531.56 600.7 1536.97 600.7 1536.97 600.92 1537.18 600.99 1537.08 601.36 1537.19 601.34 1537.99 606.56 1543.28 606.56 1543.28 606.78 1543.49 606.84 1543.39 607.22 1543.5 607.2 1544.34 612.69 1544.39 612.7 1544.36 612.82 1544.37 612.87 1549.13 612.87 1549.13 613.09 1549.35 613.15 1549.25 613.52 1549.36 613.51 1550.16 618.73 1555.44 618.73 1555.44 618.95 1555.66 619.01 1555.56 619.38 1555.67 619.37 1556.47 624.58 1561.75 624.58 1561.75 624.81 1561.97 624.87 1561.87 625.24 1561.97 625.23 1562.36 627.74 1573.76 628.25 1592.71 590.37"/><polygon class="cls-2" points="1550.23 619.18 1550.26 619.37 1550.15 619.38 1547.83 627.74 1552.77 627.74 1555.15 619.18 1550.23 619.18"/><polygon class="cls-2" points="1561.17 627.74 1561.9 627.74 1561.64 626.04 1561.17 627.74"/><polygon class="cls-2" points="1556.54 625.03 1556.57 625.23 1556.46 625.24 1555.77 627.74 1560.7 627.74 1561.46 625.03 1556.54 625.03"/><polygon class="cls-2" points="1555.34 620.18 1553.24 627.74 1555.3 627.74 1556.07 624.96 1555.34 620.18"/><polygon class="cls-3" points="1524.35 589.21 1524.35 589.17 1523.9 589.24 1524.05 590.2 1524.35 589.21 1524.35 589.21"/><polygon class="cls-3" points="1531.56 601.34 1531.52 601.1 1531.55 600.99 1531.5 600.97 1530.66 595.48 1530.55 595.5 1530.65 595.13 1530.43 595.07 1530.43 594.84 1525.22 594.84 1524.35 589.21 1524.35 589.21 1524.05 590.2 1524.8 595.05 1512.63 627.39 1512.63 627.39 1525.2 595.29 1530.14 595.29 1521.2 627.45 1521.64 627.57 1530.33 596.3 1531.06 601.07 1523.65 627.74 1524.12 627.74 1531.45 601.36 1531.56 601.34"/><polygon class="cls-3" points="1561.87 625.24 1561.97 624.87 1561.75 624.81 1561.75 624.58 1556.47 624.58 1555.67 619.37 1555.56 619.38 1555.66 619.01 1555.44 618.95 1555.44 618.73 1550.16 618.73 1549.36 613.51 1549.25 613.52 1549.35 613.15 1549.13 613.09 1549.13 612.87 1544.37 612.87 1544.36 612.82 1544.39 612.7 1544.34 612.69 1543.5 607.2 1543.39 607.22 1543.49 606.84 1543.28 606.78 1543.28 606.56 1537.99 606.56 1537.19 601.34 1537.08 601.36 1537.18 600.99 1536.97 600.92 1536.97 600.7 1531.56 600.7 1531.56 601.15 1536.67 601.15 1529.29 627.74 1529.75 627.74 1536.86 602.15 1537.59 606.93 1531.81 627.74 1532.28 627.74 1537.98 607.22 1538.09 607.2 1538.06 607.01 1542.98 607.01 1537.22 627.74 1537.69 627.74 1543.17 608.01 1543.9 612.79 1543.88 612.87 1543.73 612.87 1543.73 613.32 1543.76 613.32 1539.75 627.74 1540.22 627.74 1544.22 613.32 1548.84 613.32 1544.83 627.74 1545.3 627.74 1549.03 614.32 1549.76 619.1 1547.36 627.74 1547.83 627.74 1550.15 619.38 1550.26 619.37 1550.23 619.18 1555.15 619.18 1552.77 627.74 1553.24 627.74 1555.34 620.18 1556.07 624.96 1555.3 627.74 1555.77 627.74 1556.46 625.24 1556.57 625.23 1556.54 625.03 1561.46 625.03 1560.7 627.74 1561.17 627.74 1561.64 626.04 1561.9 627.74 1562.36 627.74 1561.97 625.23 1561.87 625.24"/><path class="cls-5" d="M1264.27,823.58a26.7,26.7,0,0,1,5.09-.45c2.78,0,4.57.48,5.92,1.57a4.51,4.51,0,0,1,1.79,3.8,5.12,5.12,0,0,1-3.65,4.74v.06a5.57,5.57,0,0,1,4.45,5.41,5.84,5.84,0,0,1-1.82,4.32c-1.51,1.38-3.94,2-7.46,2a32.08,32.08,0,0,1-4.32-.26Zm2.79,8.83h2.52c3,0,4.67-1.54,4.67-3.62,0-2.53-1.92-3.52-4.73-3.52a12.34,12.34,0,0,0-2.46.19Zm0,10.33a14.26,14.26,0,0,0,2.33.13c2.88,0,5.54-1.06,5.54-4.19,0-2.94-2.53-4.16-5.57-4.16h-2.3Z" transform="translate(-116.63 -175.75)"/><path class="cls-5" d="M1285.1,838.07l-2.24,6.78H1280l7.33-21.56h3.36l7.36,21.56h-3l-2.3-6.78Zm7.07-2.17-2.11-6.21c-.48-1.41-.8-2.69-1.12-3.94h-.06c-.32,1.28-.67,2.59-1.09,3.91l-2.11,6.24Z" transform="translate(-116.63 -175.75)"/><path class="cls-5" d="M1300.82,841.46a9.82,9.82,0,0,0,5,1.41c2.85,0,4.51-1.5,4.51-3.68,0-2-1.15-3.17-4.07-4.29-3.51-1.24-5.69-3.07-5.69-6.11,0-3.36,2.78-5.85,7-5.85a9.84,9.84,0,0,1,4.76,1l-.77,2.27a8.61,8.61,0,0,0-4.09-1c-2.94,0-4.06,1.76-4.06,3.23,0,2,1.31,3,4.28,4.16,3.65,1.41,5.51,3.17,5.51,6.34s-2.47,6.2-7.55,6.2a11.15,11.15,0,0,1-5.51-1.37Z" transform="translate(-116.63 -175.75)"/><path class="cls-5" d="M1321.07,825.66h-6.56v-2.37h16v2.37h-6.59v19.19h-2.82Z" transform="translate(-116.63 -175.75)"/><path class="cls-5" d="M1334,838.07l-2.24,6.78h-2.88l7.32-21.56h3.36l7.36,21.56h-3l-2.31-6.78Zm7.07-2.17-2.11-6.21c-.48-1.41-.8-2.69-1.12-3.94h-.07c-.32,1.28-.67,2.59-1.09,3.91l-2.11,6.24Z" transform="translate(-116.63 -175.75)"/><path class="cls-5" d="M1350.06,823.58a28.9,28.9,0,0,1,5.35-.45c3,0,4.89.54,6.24,1.76a5.39,5.39,0,0,1,1.69,4.09,5.67,5.67,0,0,1-4.06,5.51v.09c1.66.58,2.65,2.12,3.17,4.35a33.77,33.77,0,0,0,1.66,5.92h-2.88a28,28,0,0,1-1.44-5.15c-.64-3-1.79-4.09-4.32-4.19h-2.62v9.34h-2.79Zm2.79,9.82h2.84c3,0,4.87-1.63,4.87-4.1,0-2.78-2-4-5-4a11.17,11.17,0,0,0-2.75.26Z" transform="translate(-116.63 -175.75)"/><path class="cls-5" d="M1367.28,823.58a39.35,39.35,0,0,1,5.92-.45c4,0,6.85.93,8.73,2.69a9.92,9.92,0,0,1,3,7.74,11.37,11.37,0,0,1-3.1,8.38c-2,2-5.34,3.11-9.54,3.11a44.8,44.8,0,0,1-5-.26Zm2.78,19.07a18.66,18.66,0,0,0,2.82.16c5.95,0,9.18-3.33,9.18-9.15,0-5.09-2.85-8.32-8.73-8.32a16,16,0,0,0-3.27.28Z" transform="translate(-116.63 -175.75)"/><path class="cls-5" d="M1410.45,844.15a13.93,13.93,0,0,1-5.7,1c-6.08,0-10.66-3.84-10.66-10.91,0-6.75,4.58-11.32,11.27-11.32a11.52,11.52,0,0,1,5.12,1l-.68,2.27a10.11,10.11,0,0,0-4.35-.9c-5,0-8.41,3.23-8.41,8.9,0,5.28,3,8.67,8.29,8.67a11,11,0,0,0,4.54-.9Z" transform="translate(-116.63 -175.75)"/><path class="cls-5" d="M1417.55,838.07l-2.24,6.78h-2.88l7.33-21.56h3.36l7.36,21.56h-3l-2.3-6.78Zm7.07-2.17-2.11-6.21c-.48-1.41-.8-2.69-1.12-3.94h-.06c-.33,1.28-.68,2.59-1.09,3.91l-2.11,6.24Z" transform="translate(-116.63 -175.75)"/><path class="cls-5" d="M1433.65,823.29h11.61v2.33h-8.83v7.17h8.16v2.3h-8.16v9.76h-2.78Z" transform="translate(-116.63 -175.75)"/><path class="cls-5" d="M1460.4,834.74H1452v7.78h9.35v2.33h-12.13V823.29h11.65v2.33H1452v6.82h8.39Zm-.55-16.35-4.06,3.75h-2.3l3-3.75Z" transform="translate(-116.63 -175.75)"/><path class="cls-5" d="M1476.14,834.74h-8.38v7.78h9.34v2.33H1465V823.29h11.65v2.33h-8.86v6.82h8.38Z" transform="translate(-116.63 -175.75)"/><path class="cls-5" d="M1480.72,844.85V823.29h3l6.91,10.91a60.43,60.43,0,0,1,3.87,7l.06,0c-.25-2.88-.32-5.5-.32-8.86v-9h2.63v21.56h-2.82l-6.85-10.94a69.12,69.12,0,0,1-4-7.2l-.09,0c.16,2.72.22,5.32.22,8.9v9.21Z" transform="translate(-116.63 -175.75)"/></g><g id="gaarden"><polygon class="cls-2" points="1054.87 855.75 606.37 855.75 690.31 725.75 1115.87 725.75 1054.87 855.75"/><path class="cls-5" d="M844,993.77a22.35,22.35,0,0,1-7.45,1.34c-3.67,0-6.7-.94-9.07-3.21a12.45,12.45,0,0,1-3.38-9c0-7.24,5-12.53,13.13-12.53a14.87,14.87,0,0,1,6.05,1.12l-.75,2.55a12.72,12.72,0,0,0-5.37-1c-5.9,0-9.75,3.67-9.75,9.75s3.71,9.79,9.36,9.79a10.22,10.22,0,0,0,4.17-.64v-7.24h-4.93v-2.52h8Z" transform="translate(-116.63 -175.75)"/><path class="cls-5" d="M852.75,987.22l-2.51,7.63H847l8.24-24.26H859l8.28,24.26H864l-2.59-7.63Zm8-2.44-2.38-7c-.54-1.58-.9-3-1.26-4.42H857c-.36,1.43-.75,2.91-1.22,4.39l-2.38,7Zm0-18.29a3.6,3.6,0,1,1-3.57-3.24A3.27,3.27,0,0,1,860.75,966.49Zm-5.33,0a1.79,1.79,0,0,0,1.73,1.83,1.91,1.91,0,0,0,0-3.81A1.79,1.79,0,0,0,855.42,966.53Z" transform="translate(-116.63 -175.75)"/><path class="cls-5" d="M870.86,970.92a32.13,32.13,0,0,1,6-.51c3.34,0,5.5.62,7,2A6,6,0,0,1,885.8,977a6.36,6.36,0,0,1-4.57,6.19v.11c1.87.65,3,2.38,3.56,4.9a38.3,38.3,0,0,0,1.88,6.65h-3.24a30.65,30.65,0,0,1-1.62-5.79c-.72-3.35-2-4.61-4.86-4.72h-3v10.51h-3.14ZM874,982h3.2c3.35,0,5.47-1.84,5.47-4.61,0-3.13-2.27-4.5-5.58-4.53a13.16,13.16,0,0,0-3.09.28Z" transform="translate(-116.63 -175.75)"/><path class="cls-5" d="M890.23,970.92a44.6,44.6,0,0,1,6.66-.51c4.5,0,7.7,1.05,9.83,3s3.42,4.78,3.42,8.71-1.23,7.2-3.5,9.43-6,3.49-10.72,3.49a50.51,50.51,0,0,1-5.69-.29Zm3.13,21.45a20.3,20.3,0,0,0,3.17.18c6.7,0,10.33-3.74,10.33-10.29,0-5.73-3.2-9.36-9.83-9.36a17.84,17.84,0,0,0-3.67.32Z" transform="translate(-116.63 -175.75)"/><path class="cls-5" d="M917.34,970.59v10.15h11.73V970.59h3.17v24.26h-3.17V983.48H917.34v11.37h-3.13V970.59Z" transform="translate(-116.63 -175.75)"/><path class="cls-5" d="M941.6,987.22l-2.52,7.63h-3.24l8.24-24.26h3.79l8.27,24.26H952.8l-2.6-7.63Zm8-2.44-2.38-7c-.54-1.58-.9-3-1.26-4.42h-.07c-.36,1.43-.76,2.91-1.22,4.39l-2.38,7Z" transform="translate(-116.63 -175.75)"/><path class="cls-5" d="M963.13,994.85l-7.92-24.26h3.38l3.78,11.95c1,3.28,2,6.23,2.59,9.08H965c.68-2.81,1.69-5.87,2.77-9l4.1-12h3.35l-8.68,24.26Z" transform="translate(-116.63 -175.75)"/><path class="cls-5" d="M990.45,983.48H981v8.75h10.51v2.62H977.89V970.59H991v2.63H981v7.67h9.43Z" transform="translate(-116.63 -175.75)"/><path class="cls-5" d="M995.6,994.85V970.59H999l7.78,12.28a68.24,68.24,0,0,1,4.35,7.88l.07,0c-.28-3.23-.36-6.19-.36-10V970.59h3v24.26h-3.17l-7.7-12.31a75.63,75.63,0,0,1-4.54-8.09l-.11,0c.18,3.06.25,6,.25,10v10.36Z" transform="translate(-116.63 -175.75)"/></g><g id="bygning"><polygon class="cls-2" points="1558.87 1051.75 1034.87 1054.75 1183.87 725.75 1183.48 725.75 1307.87 725.75 1239.87 881.75 1622.87 879.75 1558.87 1051.75"/></g><g id="sort2sal"><polygon class="cls-5" points="1579.99 419.38 827.37 419.38 911.95 289.38 1646.37 289.38 1579.99 419.38"/><polygon class="cls-2" points="1529.06 323.38 1529.09 323.57 1528.98 323.59 1523.28 344.11 1528.22 344.11 1533.98 323.38 1529.06 323.38"/><polygon class="cls-2" points="1534.73 329.69 1534.73 329.24 1534.88 329.24 1534.9 329.16 1534.17 324.39 1528.69 344.11 1530.75 344.11 1534.76 329.69 1534.73 329.69"/><polygon class="cls-2" points="1535.22 329.69 1531.22 344.11 1535.83 344.11 1539.84 329.69 1535.22 329.69"/><polygon class="cls-2" points="1540.03 330.7 1536.3 344.11 1538.36 344.11 1540.76 335.47 1540.03 330.7"/><polygon class="cls-2" points="1521.33 312.67 1512.64 343.95 1512.2 343.83 1521.14 311.67 1516.2 311.67 1503.92 344.05 1503.92 344.05 1515.8 311.43 1515.05 306.57 1497.03 344.05 1514.65 344.11 1522.06 317.45 1521.33 312.67"/><polygon class="cls-2" points="1527.86 318.53 1520.75 344.11 1522.81 344.11 1528.59 323.31 1527.86 318.53"/><polygon class="cls-2" points="1583.71 306.74 1515.35 305.58 1516.22 311.22 1521.43 311.22 1521.43 311.44 1521.65 311.5 1521.55 311.88 1521.66 311.86 1522.5 317.35 1522.55 317.36 1522.52 317.47 1522.56 317.72 1522.45 317.73 1515.12 344.11 1520.29 344.11 1527.67 317.52 1522.56 317.52 1522.56 317.07 1527.97 317.07 1527.97 317.3 1528.18 317.36 1528.08 317.73 1528.19 317.72 1528.99 322.93 1534.28 322.93 1534.28 323.16 1534.49 323.22 1534.39 323.59 1534.5 323.57 1535.34 329.06 1535.39 329.08 1535.36 329.19 1535.37 329.24 1540.13 329.24 1540.13 329.47 1540.35 329.53 1540.25 329.9 1540.36 329.88 1541.16 335.1 1546.44 335.1 1546.44 335.32 1546.66 335.39 1546.56 335.76 1546.67 335.74 1547.47 340.96 1552.75 340.96 1552.75 341.18 1552.97 341.24 1552.87 341.62 1552.97 341.6 1553.36 344.11 1564.76 344.63 1583.71 306.74"/><polygon class="cls-2" points="1541.23 335.55 1541.26 335.74 1541.15 335.76 1538.83 344.11 1543.77 344.11 1546.15 335.55 1541.23 335.55"/><polygon class="cls-2" points="1552.17 344.11 1552.9 344.11 1552.64 342.41 1552.17 344.11"/><polygon class="cls-2" points="1547.54 341.41 1547.57 341.6 1547.46 341.62 1546.77 344.11 1551.7 344.11 1552.46 341.41 1547.54 341.41"/><polygon class="cls-2" points="1546.34 336.56 1544.24 344.11 1546.3 344.11 1547.07 341.33 1546.34 336.56"/><polygon class="cls-3" points="1515.35 305.58 1515.35 305.55 1514.9 305.62 1515.05 306.57 1515.35 305.58 1515.35 305.58"/><polygon class="cls-3" points="1522.56 317.72 1522.52 317.47 1522.55 317.36 1522.5 317.35 1521.66 311.86 1521.55 311.88 1521.65 311.5 1521.43 311.44 1521.43 311.22 1516.22 311.22 1515.35 305.58 1515.35 305.58 1515.05 306.57 1515.8 311.43 1503.63 343.76 1503.63 343.76 1516.2 311.67 1521.14 311.67 1512.2 343.83 1512.64 343.95 1521.33 312.67 1522.06 317.45 1514.65 344.11 1515.12 344.11 1522.45 317.73 1522.56 317.72"/><polygon class="cls-3" points="1552.87 341.62 1552.97 341.24 1552.75 341.18 1552.75 340.96 1547.47 340.96 1546.67 335.74 1546.56 335.76 1546.66 335.39 1546.44 335.32 1546.44 335.1 1541.16 335.1 1540.36 329.88 1540.25 329.9 1540.35 329.53 1540.13 329.47 1540.13 329.24 1535.37 329.24 1535.36 329.19 1535.39 329.08 1535.34 329.06 1534.5 323.57 1534.39 323.59 1534.49 323.22 1534.28 323.16 1534.28 322.93 1528.99 322.93 1528.19 317.72 1528.08 317.73 1528.18 317.36 1527.97 317.3 1527.97 317.07 1522.56 317.07 1522.56 317.52 1527.67 317.52 1520.29 344.11 1520.75 344.11 1527.86 318.53 1528.59 323.31 1522.81 344.11 1523.28 344.11 1528.98 323.59 1529.09 323.57 1529.06 323.38 1533.98 323.38 1528.22 344.11 1528.69 344.11 1534.17 324.39 1534.9 329.16 1534.88 329.24 1534.73 329.24 1534.73 329.69 1534.76 329.69 1530.75 344.11 1531.22 344.11 1535.22 329.69 1539.84 329.69 1535.83 344.11 1536.3 344.11 1540.03 330.7 1540.76 335.47 1538.36 344.11 1538.83 344.11 1541.15 335.76 1541.26 335.74 1541.23 335.55 1546.15 335.55 1543.77 344.11 1544.24 344.11 1546.34 336.56 1547.07 341.33 1546.3 344.11 1546.77 344.11 1547.46 341.62 1547.57 341.6 1547.54 341.41 1552.46 341.41 1551.7 344.11 1552.17 344.11 1552.64 342.41 1552.9 344.11 1553.36 344.11 1552.97 341.6 1552.87 341.62"/><path class="cls-4" d="M1053.46,540.23v-1.94l2.48-2.42c6-5.68,8.68-8.71,8.71-12.23,0-2.38-1.15-4.58-4.64-4.58a8,8,0,0,0-5,2l-1-2.23a10.24,10.24,0,0,1,6.62-2.37c5,0,7.16,3.45,7.16,6.8,0,4.32-3.13,7.81-8.06,12.56l-1.87,1.73v.07h10.51v2.63Z" transform="translate(-116.63 -175.75)"/><path class="cls-4" d="M1072.18,538.36a2.13,2.13,0,0,1,2.16-2.27,2.27,2.27,0,0,1,0,4.54A2.12,2.12,0,0,1,1072.18,538.36Z" transform="translate(-116.63 -175.75)"/><path class="cls-4" d="M1087.69,536.41a11.07,11.07,0,0,0,5.62,1.59c3.2,0,5.07-1.69,5.07-4.14,0-2.27-1.29-3.57-4.57-4.82-4-1.41-6.4-3.46-6.4-6.88,0-3.78,3.13-6.59,7.84-6.59a11.05,11.05,0,0,1,5.37,1.19l-.87,2.56a9.53,9.53,0,0,0-4.6-1.16c-3.32,0-4.58,2-4.58,3.64,0,2.27,1.48,3.38,4.83,4.68,4.1,1.58,6.19,3.56,6.19,7.13,0,3.74-2.77,7-8.5,7a12.48,12.48,0,0,1-6.19-1.55Z" transform="translate(-116.63 -175.75)"/><path class="cls-4" d="M1109.8,532.6l-2.52,7.63H1104l8.24-24.26h3.78l8.28,24.26H1121l-2.59-7.63Zm8-2.45-2.37-7c-.54-1.59-.9-3-1.26-4.43H1114c-.35,1.44-.75,2.92-1.22,4.39l-2.37,7Z" transform="translate(-116.63 -175.75)"/><path class="cls-4" d="M1127.91,516H1131V537.6h10.36v2.63h-13.49Z" transform="translate(-116.63 -175.75)"/></g></svg>
